<svg xmlns:dc="http://purl.org/dc/elements/1.1/" xmlns:cc="http://creativecommons.org/ns#" xmlns:rdf="http://www.w3.org/1999/02/22-rdf-syntax-ns#" xmlns:svg="http://www.w3.org/2000/svg" xmlns="http://www.w3.org/2000/svg" aria-hidden="true" data-prefix="fas" data-icon="chess-bishop" class="svg-inline--fa fa-chess-bishop fa-w-10" role="img" viewBox="0 0 320 512" version="1.1" id="svg4349" width="320" height="512"><metadata id="metadata4355"><rdf:RDF><cc:Work><dc:format>image/svg+xml</dc:format><dc:type rdf:resource="http://purl.org/dc/dcmitype/StillImage"/><dc:title/></cc:Work></rdf:RDF></metadata><path d="M 123.158,77.881 C 107.369,72.53 96,57.597 96,40 96,17.909 113.909,0 136,0 h 47.796 c 22.091,0 40,17.909 40,40 0,17.541 -11.295,32.434 -27.005,37.829 23.993,16.657 48.577,46.839 68.703,82.05 L 144.929,280.443 a 6,6 0 0 0 0,8.485 l 14.142,14.142 a 6,6 0 0 0 8.485,0 L 280.9,189.726 c 17.758,38.297 29.371,79.443 29.371,114.273 0,53.786 -22.897,75.788 -58.446,86.033 V 448 H 68.174 V 390.03 C 32.631,379.784 9.739,357.781 9.739,304 9.739,225.971 68.02,116.234 123.158,77.881 Z M 320,500 v -24 c 0,-6.627 -5.373,-12 -12,-12 H 12 c -6.627,0 -12,5.373 -12,12 v 24 c 0,6.627 5.373,12 12,12 h 296 c 6.627,0 12,-5.373 12,-12 z" id="path4347" fill="currentColor"/></svg>