<svg height="522" viewBox="0 0 457.95 522" width="457.95" xmlns="http://www.w3.org/2000/svg"><path d="m420.975 481v24c0 6.627-5.373 12-12 12h-360.000005c-6.627 0-12-5.373-12-12v-24c0-6.627 5.373-12 12-12h360.000005c6.627 0 12 5.373 12 12zm-8.033-324h-159.967v-48h50a6 6 0 0 0 6-6v-36a6 6 0 0 0 -6-6h-50v-50a6 6 0 0 0 -6-6h-36a6 6 0 0 0 -6 6v50h-50a6 6 0 0 0 -6 6v36a6 6 0 0 0 6 6h50v48h-159.967005c-27.574 0-46.8789996 27.244-37.7379996 53.259l85.2869996 242.741h272.836005l85.287-242.741c9.141-26.015-10.164-53.259-37.738-53.259z" fill="#fff" stroke="#000" stroke-width="10"/></svg>