<svg xmlns:dc="http://purl.org/dc/elements/1.1/" xmlns:cc="http://creativecommons.org/ns#" xmlns:rdf="http://www.w3.org/1999/02/22-rdf-syntax-ns#" xmlns:svg="http://www.w3.org/2000/svg" xmlns="http://www.w3.org/2000/svg" aria-hidden="true" data-prefix="fas" data-icon="chess-king" class="svg-inline--fa fa-chess-king fa-w-14" role="img" viewBox="0 0 448 512" version="1.1" id="svg4408" width="448" height="512"><metadata id="metadata4414"><rdf:RDF><cc:Work><dc:format>image/svg+xml</dc:format><dc:type rdf:resource="http://purl.org/dc/dcmitype/StillImage"/><dc:title/></cc:Work></rdf:RDF></metadata><path d="m 415.99985,476 v 24 c 0,6.627 -5.373,12 -12,12 H 43.999854 c -6.627,0 -12,-5.373 -12,-12 v -24 c 0,-6.627 5.373,-12 12,-12 H 403.99985 c 6.627,0 12,5.373 12,12 z m -8.033,-324 h -159.967 v -48 h 50 a 6,6 0 0 0 6,-6 V 62 a 6,6 0 0 0 -6,-6 h -50 V 6 a 6,6 0 0 0 -6,-6 h -36 a 6,6 0 0 0 -6,6 v 50 h -50 a 6,6 0 0 0 -6,6 v 36 a 6,6 0 0 0 6,6 h 50 v 48 H 40.032854 c -27.574,0 -46.879,27.244 -37.738,53.259 L 87.581854,448 H 360.41785 l 85.287,-242.741 c 9.141,-26.015 -10.164,-53.259 -37.738,-53.259 z" id="path4406" fill="currentColor"/></svg>