<svg height="490" viewBox="0 0 394 490" width="394" xmlns="http://www.w3.org/2000/svg"><path d="m357 197v224h-320v-46.557c0-30.302 17.12-58.003 44.223-71.554l57.243-28.622a48 48 0 0 0 26.534-42.933v-50.334l-22.127 11.063a23.996 23.996 0 0 0 -12.55 15.645l-11.835 47.338a12 12 0 0 1 -7.185 8.231l-29.601 11.84a11.998 11.998 0 0 1 -9.33-.176l-60.246-26.774a12 12 0 0 1 -7.1259999-10.966v-158.26c0-6.365 2.529-12.47 7.0299999-16.971l8.97-8.97-14.2109999-28.422a16.937 16.937 0 0 1 -1.789-7.578c0-6.627 5.3729999-12 11.9999999-12h148c106.039 0 192 85.961 192 192zm20 240h-360c-6.627 0-11.9999999 5.373-11.9999999 12v24c0 6.627 5.3729999 12 11.9999999 12h360c6.627 0 12-5.373 12-12v-24c0-6.627-5.373-12-12-12zm-320-336c-11.046 0-20 8.954-20 20s8.954 20 20 20 20-8.954 20-20-8.954-20-20-20z" fill="#fff" stroke="#000" stroke-width="10"/></svg>