<?xml version="1.0" encoding="UTF-8" standalone="no"?>
<svg
   xmlns:dc="http://purl.org/dc/elements/1.1/"
   xmlns:cc="http://creativecommons.org/ns#"
   xmlns:rdf="http://www.w3.org/1999/02/22-rdf-syntax-ns#"
   xmlns:svg="http://www.w3.org/2000/svg"
   xmlns="http://www.w3.org/2000/svg"
   xmlns:sodipodi="http://sodipodi.sourceforge.net/DTD/sodipodi-0.dtd"
   xmlns:inkscape="http://www.inkscape.org/namespaces/inkscape"
   aria-hidden="true"
   data-prefix="fas"
   data-icon="chess-pawn"
   class="svg-inline--fa fa-chess-pawn fa-w-10"
   role="img"
   viewBox="0 0 288 448"
   version="1.1"
   id="svg90"
   sodipodi:docname="chess-pawn2.svg"
   width="288"
   height="448"
   inkscape:version="0.92.2 5c3e80d, 2017-08-06">
  <metadata
     id="metadata96">
    <rdf:RDF>
      <cc:Work
         rdf:about="">
        <dc:format>image/svg+xml</dc:format>
        <dc:type
           rdf:resource="http://purl.org/dc/dcmitype/StillImage" />
        <dc:title></dc:title>
      </cc:Work>
    </rdf:RDF>
  </metadata>
  <defs
     id="defs94" />
  <sodipodi:namedview
     pagecolor="#ffffff"
     bordercolor="#666666"
     borderopacity="1"
     objecttolerance="10"
     gridtolerance="10"
     guidetolerance="10"
     inkscape:pageopacity="0"
     inkscape:pageshadow="2"
     inkscape:window-width="1901"
     inkscape:window-height="953"
     id="namedview92"
     showgrid="false"
     fit-margin-top="0"
     fit-margin-left="0"
     fit-margin-right="0"
     fit-margin-bottom="0"
     inkscape:zoom="1.6757812"
     inkscape:cx="144"
     inkscape:cy="236.48615"
     inkscape:window-x="0"
     inkscape:window-y="0"
     inkscape:window-maximized="0"
     inkscape:current-layer="svg90" />
  <path
     d="M 248,384 H 40 c 0,0 60,-42.743 60,-176 H 68 c -6.627,0 -12,-5.373 -12,-12 v -24 c 0,-6.627 5.373,-12 12,-12 h 40.209 C 79.721,146.56 60,117.588 60,84 60,37.608 97.608,0 144,0 c 46.392,0 84,37.608 84,84 0,33.588 -19.721,62.56 -48.209,76 H 220 c 6.627,0 12,5.373 12,12 v 24 c 0,6.627 -5.373,12 -12,12 h -32 c 0,133.257 60,176 60,176 z m 28,16 H 12 c -6.627,0 -12,5.373 -12,12 v 24 c 0,6.627 5.373,12 12,12 h 264 c 6.627,0 12,-5.373 12,-12 v -24 c 0,-6.627 -5.373,-12 -12,-12 z"
     id="path88"
     inkscape:connector-curvature="0"
     style="fill:#FFFFFF;stroke:#000000;stroke-width:10px;" />
</svg>
