<svg xmlns:dc="http://purl.org/dc/elements/1.1/" xmlns:cc="http://creativecommons.org/ns#" xmlns:rdf="http://www.w3.org/1999/02/22-rdf-syntax-ns#" xmlns:svg="http://www.w3.org/2000/svg" xmlns="http://www.w3.org/2000/svg" aria-hidden="true" data-prefix="fas" data-icon="chess-queen" class="svg-inline--fa fa-chess-queen fa-w-16" role="img" viewBox="0 0 499.806 512" version="1.1" id="svg4173" width="499.806" height="512"><metadata id="metadata4179"><rdf:RDF><cc:Work><dc:format>image/svg+xml</dc:format><dc:type rdf:resource="http://purl.org/dc/dcmitype/StillImage"/><dc:title/></cc:Work></rdf:RDF></metadata><path d="M 429.90286,512 H 69.902864 c -6.627,0 -12,-5.373 -12,-12 v -24 c 0,-6.627 5.373,-12 12,-12 H 429.90286 c 6.627,0 12,5.373 12,12 v 24 c 0,6.627 -5.373,12 -12,12 z M 249.48186,0 c -30.928,0 -56,25.072 -56,56 0,30.928 25.072,56 56,56 30.928,0 56,-25.072 56,-56 0,-30.928 -25.072,-56 -56,-56 z m 204.568,154.634 c -5.768,-3.045 -12.916,-0.932 -16.082,4.77 -8.616,15.516 -22.747,37.801 -44.065,37.801 -28.714,0 -30.625,-19.804 -31.686,-57.542 -0.183,-6.492 -5.501,-11.664 -11.995,-11.664 h -41.006 c -5.175,0 -9.754,3.328 -11.388,8.238 -8.89,26.709 -26.073,40.992 -47.925,40.992 -21.852,0 -39.034,-14.283 -47.925,-40.992 -1.634,-4.91 -6.213,-8.238 -11.388,-8.238 h -41.005 c -6.495,0 -11.813,5.174 -11.995,11.667 -1.052,37.642 -2.934,57.539 -31.688,57.539 -20.690996,0 -33.816996,-20.224 -44.424996,-38.025 -3.266,-5.48 -10.258,-7.431 -15.899,-4.453 L 6.3988638,175.406 A 12,12 0 0 0 0.88886379,190.551 L 105.90286,448 h 288 l 105.014,-257.448 a 12,12 0 0 0 -5.51,-15.145 z" id="path4171" fill="currentColor"/></svg>