<svg enable-background="new 0 0 512 512" viewBox="0 0 512 512" xmlns="http://www.w3.org/2000/svg"><circle cx="421.16" cy="90.84" fill="#824641" r="90.84"/><circle cx="421.16" cy="90.84" fill="#643c3c" r="57.806"/><circle cx="90.84" cy="90.84" fill="#824641" r="90.84"/><circle cx="90.84" cy="90.84" fill="#643c3c" r="57.806"/><ellipse cx="256" cy="280.77" fill="#965a50" rx="239.48" ry="231.23"/><ellipse cx="256" cy="429.42" fill="#ebc9a0" rx="61.935" ry="49.548"/><path d="m90.839 272.516c0-91.778 45.208-172.233 113.09-217.422-107.214 22.963-187.413 115.252-187.413 225.68 0 124.145 101.338 225.41 228.498 230.958-90.127-36.752-154.175-129.964-154.175-239.216z" fill="#824641"/><path d="m156.903 305.548c-13.682 0-24.774-11.092-24.774-24.774v-8.258c0-13.682 11.092-24.774 24.774-24.774 13.682 0 24.774 11.092 24.774 24.774v8.258c0 13.683-11.091 24.774-24.774 24.774z" fill="#4b3f4e"/><path d="m156.903 247.742v28.903c0 6.841 5.546 12.387 12.387 12.387s12.387-5.546 12.387-12.387v-4.129c0-13.682-11.091-24.774-24.774-24.774z" fill="#5d5360"/><circle cx="156.9" cy="264.26" fill="#fff" r="8.258"/><path d="m355.097 305.548c-13.682 0-24.774-11.092-24.774-24.774v-8.258c0-13.682 11.092-24.774 24.774-24.774 13.682 0 24.774 11.092 24.774 24.774v8.258c0 13.683-11.092 24.774-24.774 24.774z" fill="#4b3f4e"/><path d="m355.097 247.742v28.903c0 6.841 5.546 12.387 12.387 12.387s12.387-5.546 12.387-12.387v-4.129c0-13.682-11.092-24.774-24.774-24.774z" fill="#5d5360"/><circle cx="355.1" cy="264.26" fill="#fff" r="8.258"/><path d="m288.115 371.613c-12.2 0-23.389 2.835-32.115 7.551-8.726-4.717-19.914-7.551-32.115-7.551-27.871 0-50.466 14.789-50.466 33.032s22.595 33.032 50.466 33.032c12.2 0 23.389-2.835 32.115-7.551 8.726 4.717 19.914 7.551 32.115 7.551 27.871 0 50.466-14.789 50.466-33.032s-22.595-33.032-50.466-33.032z" fill="#f5dcb4"/><path d="m297.29 371.613c0 13.682-18.486 33.032-41.29 33.032s-41.29-19.35-41.29-33.032 18.486-24.774 41.29-24.774 41.29 11.091 41.29 24.774z" fill="#5d5360"/><path d="m338.419 403.024c-.883-4.415-5.157-7.234-9.565-6.431-4.435.81-7.387 5.097-6.653 9.544.04.25.96 6.21-3.734 11.069-4.024 4.169-15.371 10.565-45.972 6.597-2.738-.355-5.486-.621-8.238-.798v-22.255c0-4.56-3.698-4.363-8.258-4.363s-8.258-.198-8.258 4.363v22.254c-2.753.177-5.5.443-8.238.798-30.605 3.968-41.948-2.427-45.972-6.597-4.694-4.859-3.774-10.819-3.758-10.94.895-4.476-2.004-8.823-6.476-9.718-4.504-.887-8.827 2.004-9.718 6.476-1.04 5.21-.589 16.391 7.71 25.274 8.246 8.827 21.867 13.266 40.625 13.266 6.04 0 12.621-.46 19.718-1.383 9.532-1.242 19.202-1.242 28.734 0 29.129 3.79 49.435-.214 60.343-11.883 8.299-8.882 8.751-20.063 7.71-25.273z" fill="#d4af91"/><path d="m272.516 396.387c-22.804 0-41.29-22.114-41.29-37.751 0-2.637.695-5.139 1.678-7.561-10.977 4.453-18.195 11.989-18.195 20.538 0 13.682 18.486 33.032 41.29 33.032 10.504 0 19.984-4.189 27.272-9.955-3.434 1.057-7.028 1.697-10.755 1.697z" fill="#4b3f4e"/></svg>