<svg enable-background="new 0 0 512 512" viewBox="0 0 512 512" xmlns="http://www.w3.org/2000/svg"><path d="m297.275 468.428h-54.324l26.899-54.667c2.07-4.211.336-9.302-3.875-11.376-4.215-2.079-9.302-.336-11.376 3.875l-30.591 62.168h-45.692c-4.692 0-8.497 3.805-8.497 8.497s3.805 8.497 8.497 8.497h118.959c4.692 0 8.497-3.805 8.497-8.497s-3.804-8.497-8.497-8.497z" fill="#ebaf4b"/><path d="m297.275 468.428h-20.335l26.899-54.667c2.07-4.211.336-9.302-3.875-11.376-4.228-2.079-9.302-.336-11.376 3.875l-30.591 62.168h-45.692c-4.692 0-8.497 3.805-8.497 8.497s3.805 8.497 8.497 8.497h84.971c4.692 0 8.497-3.805 8.497-8.497-.001-4.692-3.805-8.497-8.498-8.497z" fill="#ffc850"/><path d="m3.454 187.233 41.324 32.693 6.083-67.252-45.289 19.041c-6.38 2.682-7.546 11.224-2.118 15.518z" fill="#ffc850"/><path d="m427.121 268.216c-69.658-6.55-119.932-92.937-150.026-144.981-20.121-34.797-47.088-56.293-87.01-64.083l25.052-32.571s-155.779-2.833-180.161 161.444c-16.329 144.451 100.885 237.918 236.808 237.918 110.277 0 205.906-65.686 239.61-156.472 2.86-7.704-4.918-15.036-12.509-11.888-15.941 6.609-40.915 13.534-71.764 10.633z" fill="#00c3ff"/><path d="m337.636 413.197c-135.923 0-253.137-93.467-236.808-237.918 13.667-92.08 68.611-131.645 114.27-148.647l.039-.051s-155.779-2.833-180.161 161.444c-16.329 144.451 100.885 237.918 236.808 237.918 29.708 0 58.351-4.771 85.009-13.512-6.338.441-12.709.766-19.157.766z" fill="#00aaf0"/><path d="m299.464 155.591c-14.095-18.374-39.291-24.058-59.637-13l-.284.155c-114.983 62.606 8.56 278.381 197.875 112.142 7.025-6.169 2.676-17.796-6.673-17.798-30.201-.005-79.003-13.351-131.281-81.499z" fill="#00aaf0"/><path d="m411.462 235.301c-59.522 55.914-206.572 88.149-215.637-30.259-9.78 80.44 96.68 177.234 241.747 49.709 7.041-6.189 2.472-17.679-6.902-17.69-5.763-.006-12.201-.498-19.208-1.76z" fill="#0096dc"/><path d="m110.34 188.025c-14.078 0-25.491-11.413-25.491-25.491v-8.497c0-14.078 11.413-25.491 25.491-25.491 14.078 0 25.491 11.413 25.491 25.491v8.497c0 14.078-11.413 25.491-25.491 25.491z" fill="#4b3f4e"/><path d="m110.34 128.546v29.74c0 7.039 5.706 12.746 12.746 12.746s12.746-5.706 12.746-12.746v-4.249c-.001-14.079-11.414-25.491-25.492-25.491z" fill="#5d5360"/><circle cx="110.34" cy="145.54" fill="#fff" r="8.497"/></svg>