<svg enable-background="new 0 0 512 512" viewBox="0 0 512 512" xmlns="http://www.w3.org/2000/svg"><path d="m503.483 1.656c6.686.216 10.641 7.587 7.319 13.393-5.278 9.226-10.274 24.223-7.959 46.505 5.69 54.775-7.826 98.879-67.58 133.025l-102.436-110.972c20.758-22.425 89.952-84.554 170.656-81.951z" fill="#965a50"/><path d="m510.091 5.129c2.067 2.718 2.632 6.562.711 9.92-5.278 9.226-10.274 24.223-7.959 46.505 5.69 54.775-7.826 98.879-67.58 133.025l-56.098-60.773c34.31-84.631 90.445-119.061 130.926-128.677z" fill="#824d51"/><path d="m8.517 1.656c-6.685.216-10.641 7.587-7.319 13.393 5.278 9.226 10.274 24.223 7.959 46.505-5.689 54.775 7.826 98.879 67.58 133.025l102.436-110.972c-20.758-22.425-89.952-84.554-170.656-81.951z" fill="#965a50"/><path d="m1.909 5.129c-2.067 2.718-2.632 6.562-.711 9.92 5.278 9.226 10.274 24.223 7.959 46.505-5.689 54.775 7.826 98.879 67.58 133.025l56.098-60.773c-34.31-84.631-90.445-119.061-130.926-128.677z" fill="#824d51"/><path d="m473.676 303.404c0 115.505-89.631 207.019-217.676 207.019s-217.676-91.514-217.676-207.019 106.704-253.942 217.676-253.942 217.676 138.437 217.676 253.942z" fill="#af6e5a"/><path d="m110.882 307.748c0-91.937 48.154-196.059 113.38-254.581-98.729 22.677-185.938 145.817-185.938 250.237 0 95.101 60.793 173.886 153.729 198.772-50.712-44.629-81.171-114.678-81.171-194.428z" fill="#965a50"/><path d="m162.1 271.406c-14.143 0-25.609-11.466-25.609-25.609v-8.536c0-14.143 11.466-25.609 25.609-25.609 14.143 0 25.609 11.466 25.609 25.609v8.536c0 14.143-11.465 25.609-25.609 25.609z" fill="#4b3f4e"/><path d="m162.1 211.652v29.877c0 7.072 5.733 12.804 12.804 12.804s12.804-5.733 12.804-12.804v-4.268c.001-14.144-11.464-25.609-25.608-25.609z" fill="#5d5360"/><circle cx="162.1" cy="228.72" fill="#fff" r="8.536"/><path d="m349.9 271.406c-14.143 0-25.609-11.466-25.609-25.609v-8.536c0-14.143 11.466-25.609 25.609-25.609 14.143 0 25.609 11.466 25.609 25.609v8.536c0 14.143-11.466 25.609-25.609 25.609z" fill="#4b3f4e"/><path d="m349.9 211.652v29.877c0 7.072 5.733 12.804 12.805 12.804s12.804-5.733 12.804-12.804v-4.268c0-14.144-11.466-25.609-25.609-25.609z" fill="#5d5360"/><circle cx="349.9" cy="228.72" fill="#fff" r="8.536"/><path d="m18.539 296.703c5.359 35.404 29.175 115.846 135.025 131.558l17.073-62.955s-96.368-14.826-144.037-72.109c-3.006-3.612-8.765-1.139-8.061 3.506z" fill="#c9c6ca"/><path d="m153.564 428.261 6.592-24.309v-.001c-91.441-17.061-127.73-84.498-138.953-112.104-1.74.742-3.018 2.523-2.664 4.856 5.359 35.404 29.175 115.846 135.025 131.558z" fill="#aea8af"/><path d="m493.461 296.703c-5.359 35.404-29.175 115.846-135.025 131.558l-17.073-62.955s96.368-14.826 144.037-72.109c3.006-3.612 8.765-1.139 8.061 3.506z" fill="#c9c6ca"/><path d="m358.436 428.261-6.592-24.309v-.001c91.441-17.062 127.73-84.499 138.953-112.104 1.74.742 3.018 2.523 2.664 4.856-5.359 35.404-29.175 115.846-135.025 131.558z" fill="#aea8af"/><path d="m362.8 417.69c0 58.763-74.715 40.185-106.726 40.185-31.344 0-106.682 18.579-106.682-40.184 0-60.017 47.711-102.145 106.643-102.145 58.93-.001 106.765 42.127 106.765 102.144z" fill="#6f6571"/><g fill="#4b3f4e"><path d="m234.613 414.543c-5.907 11.598-17.937 16.87-26.87 11.775-8.933-5.094-11.386-18.625-5.479-30.223s17.937-16.87 26.87-11.775 11.386 18.626 5.479 30.223z"/><path d="m277.387 414.543c5.907 11.598 17.937 16.87 26.87 11.775 8.933-5.094 11.386-18.625 5.479-30.223s-17.937-16.87-26.87-11.775-11.386 18.626-5.479 30.223z"/></g></svg>