<svg enable-background="new 0 0 511.999 511.999" viewBox="0 0 511.999 511.999" xmlns="http://www.w3.org/2000/svg"><path d="m511.309 119.148s16 125.134-106.016 99.529l-24.882-33.177z" fill="#dbd9dc"/><path d="m405.327 218.683c35.532-41.613 83.285-73.465 106.656-87.69.39 30.56-8.031 108.367-106.656 87.69z" fill="#c9c6ca"/><path d="m.691 119.148s-16 125.134 106.016 99.529l24.882-33.176z" fill="#dbd9dc"/><path d="m106.673 218.683c-35.532-41.613-83.285-73.465-106.656-87.69-.39 30.56 8.031 108.367 106.656 87.69z" fill="#c9c6ca"/><path d="m438.47 11.325s41.47 82.941-49.764 140.999l-33.176-49.764c67.795-18.981 82.94-91.235 82.94-91.235z" fill="#f5dcb4"/><path d="m388.705 152.324-12.957-19.436c71.464-44.617 62.722-121.563 62.722-121.563s41.47 82.94-49.765 140.999z" fill="#faebc8"/><path d="m73.53 11.325s-41.47 82.941 49.764 140.999l33.176-49.764c-67.795-18.981-82.94-91.235-82.94-91.235z" fill="#faebc8"/><path d="m123.295 152.324 12.957-19.436c-71.464-44.617-62.722-121.563-62.722-121.563s-41.47 82.94 49.765 140.999z" fill="#f5dcb4"/><path d="m256 44.501c-95.944 0-169.313 85.52-154.724 180.348l20.95 136.178c5.957 38.72 27.958 71.495 58.609 91.982l150.52-.129c30.552-20.495 52.474-53.214 58.418-91.854l20.95-136.178c14.59-94.828-58.779-180.347-154.723-180.347z" fill="#edebed"/><path d="m182.892 371.664-20.463-149.08c-10.275-74.859 24.129-144.404 79.253-177.383-88.785 8.007-154.26 89.602-140.406 179.648l20.95 136.178c5.957 38.72 27.958 71.495 58.609 91.982l38.425-.033c-18.879-21.523-32.014-49.592-36.368-81.312z" fill="#dbd9dc"/><path d="m289.987 500.675h-67.973c-25.626 0-45.119-23.011-40.906-48.288l1.61-9.658c3.999-23.996 24.761-41.583 49.087-41.583h48.392c24.327 0 45.088 17.587 49.087 41.583l1.61 9.658c4.212 25.278-15.281 48.288-40.907 48.288z" fill="#ff96a0"/><path d="m231.692 460.927 1.609-11.267c3.923-27.459 23.982-47.675 47.704-48.441-.275-.005-.534-.073-.809-.073h-48.392c-24.327 0-45.088 17.587-49.087 41.583l-1.61 9.657c-4.213 25.278 15.28 48.288 40.906 48.288h19.363c-7.814-10.446-11.827-24.744-9.684-39.747z" fill="#ff8087"/><path d="m214.53 459.205c-4.584 0-8.294-3.714-8.294-8.294 0-7.905 2.892-15.499 8.359-21.954 2.948-3.491 8.173-3.936 11.688-.968 3.491 2.96 3.928 8.193.964 11.692-2.932 3.467-4.422 7.245-4.422 11.23-.001 4.58-3.711 8.294-8.295 8.294z" fill="#a5465a"/><path d="m297.47 459.205c-4.584 0-8.294-3.714-8.294-8.294 0-3.985-1.49-7.764-4.422-11.23-2.965-3.499-2.527-8.731.964-11.692 3.515-2.969 8.748-2.523 11.688.968 5.467 6.455 8.359 14.049 8.359 21.954-.001 4.58-3.71 8.294-8.295 8.294z" fill="#a5465a"/><path d="m164.765 260.147c-13.742 0-24.882-11.14-24.882-24.882v-8.294c0-13.742 11.14-24.882 24.882-24.882 13.742 0 24.882 11.14 24.882 24.882v8.294c0 13.742-11.14 24.882-24.882 24.882z" fill="#4b3f4e"/><path d="m164.765 202.088v29.029c0 6.871 5.57 12.441 12.441 12.441s12.441-5.57 12.441-12.441v-4.147c0-13.741-11.14-24.882-24.882-24.882z" fill="#5d5360"/><circle cx="164.76" cy="218.68" fill="#fff" r="8.294"/><path d="m347.235 260.147c-13.742 0-24.882-11.14-24.882-24.882v-8.294c0-13.742 11.14-24.882 24.882-24.882 13.742 0 24.882 11.14 24.882 24.882v8.294c0 13.742-11.14 24.882-24.882 24.882z" fill="#4b3f4e"/><path d="m347.235 202.088v29.029c0 6.871 5.57 12.441 12.441 12.441s12.441-5.57 12.441-12.441v-4.147c0-13.741-11.14-24.882-24.882-24.882z" fill="#5d5360"/><circle cx="347.24" cy="218.68" fill="#fff" r="8.294"/><path d="m381.451 107.477c-28.342-37.952-73.579-62.976-125.451-62.976-60.797 0-112.491 34.361-138.522 83.648 25.571 1.31 90.857 2.39 130.228-17.295l-8.294 33.176s58.059-8.294 91.235-33.176c0 0 6.221 15.551 8.294 34.731 0 0 29.029-8.812 42.51-38.108z" fill="#dbd9dc"/><path d="m241.645 45.225c-54.508 4.934-100.215 37.572-124.167 82.924 12.109.62 33.147 1.16 56.097-.503 13.791-35.051 37.767-64.279 68.07-82.421z" fill="#c9c6ca"/></svg>