<svg enable-background="new 0 0 512 512" viewBox="0 0 512 512" xmlns="http://www.w3.org/2000/svg"><path d="m0 228.999c0 70.841 140.387 206.451 256 206.451s256-135.61 256-206.451z" fill="#dcfd92"/><path d="m0 228.999c0 58.282 95.024 160.337 193.096 194.715-23.94-32.714-61.291-88.333-77.483-136.909-6.088-18.263-1.668-38.022 8.775-57.806z" fill="#bee86e"/><path d="m0 228.998c0 37.436 173.419 140.387 256 140.387s256-102.951 256-140.387z" fill="#4b3f4e"/><path d="m256 286.804c127.312 0 256-41.29 256-57.806s-28.903-55.054-28.903-55.054c-19.957-28.903-7.57-61.935-31.155-81.427-23.12-19.107-66.091-21.871-88.587-3.907-36.873 29.444-67.441 41.29-107.355 41.29s-70.482-11.846-107.355-41.29c-22.496-17.964-65.467-15.2-88.587 3.907-23.585 19.491-11.198 52.524-31.155 81.427 0 0-28.903 38.537-28.903 55.054s128.688 57.806 256 57.806z" fill="#bee86e"/><path d="m148.645 88.611c-22.496-17.964-65.467-15.2-88.587 3.907-23.585 19.491-11.198 52.524-31.155 81.427 0 0-28.903 38.537-28.903 55.053 0 10.012 47.327 29.118 112.933 42.621-1.911-49.965 60.464-107.517 106.623-145.823-23.957-5.608-46.022-17.311-70.911-37.185z" fill="#afd755"/><circle cx="82.58" cy="154.68" fill="#ffdc64" r="66.06"/><path d="m107.355 195.966c-36.486 0-66.065-29.578-66.065-66.065 0-11.878 3.177-22.995 8.663-32.627-19.953 11.369-33.437 32.793-33.437 57.402 0 36.486 29.579 66.065 66.065 66.065 24.609 0 46.032-13.483 57.401-33.438-9.632 5.486-20.75 8.663-32.627 8.663z" fill="#ffc850"/><circle cx="429.42" cy="154.68" fill="#ffdc64" r="66.06"/><path d="m454.194 195.966c-36.486 0-66.065-29.578-66.065-66.065 0-11.878 3.177-22.995 8.663-32.627-19.954 11.368-33.438 32.792-33.438 57.401 0 36.486 29.579 66.065 66.065 66.065 24.609 0 46.032-13.483 57.401-33.438-9.631 5.487-20.749 8.664-32.626 8.664z" fill="#ffc850"/><path d="m66.065 187.708c-13.626 0-24.774-11.148-24.774-24.774v-24.774c0-13.626 11.148-24.774 24.774-24.774 13.626 0 24.774 11.148 24.774 24.774v24.774c0 13.626-11.149 24.774-24.774 24.774z" fill="#4b3f4e"/><path d="m222.968 237.256c-2.113 0-4.226-.806-5.839-2.419-3.226-3.226-3.226-8.452 0-11.677l8.258-8.258c3.226-3.226 8.452-3.226 11.677 0 3.226 3.226 3.226 8.452 0 11.677l-8.258 8.258c-1.612 1.613-3.725 2.419-5.838 2.419z" fill="#7daa55"/><path d="m289.032 237.256c-2.113 0-4.226-.806-5.839-2.419l-8.258-8.258c-3.226-3.226-3.226-8.452 0-11.677s8.452-3.226 11.677 0l8.258 8.258c3.226 3.226 3.226 8.452 0 11.677-1.612 1.613-3.725 2.419-5.838 2.419z" fill="#7daa55"/><path d="m66.799 113.46c-.445 1.277-.735 2.627-.735 4.054v33.032c0 6.841 5.546 12.387 12.387 12.387s12.387-5.546 12.387-12.387v-12.387c.001-13.374-10.757-24.298-24.039-24.699z" fill="#5d5360"/><circle cx="66.06" cy="138.16" fill="#fff" r="8.258"/><path d="m445.936 187.708c-13.626 0-24.774-11.148-24.774-24.774v-24.774c0-13.626 11.148-24.774 24.774-24.774 13.626 0 24.774 11.148 24.774 24.774v24.774c0 13.626-11.149 24.774-24.774 24.774z" fill="#4b3f4e"/><path d="m446.67 113.46c-.445 1.277-.735 2.627-.735 4.054v33.032c0 6.841 5.546 12.387 12.387 12.387s12.387-5.546 12.387-12.387v-12.387c.001-13.374-10.757-24.298-24.039-24.699z" fill="#5d5360"/><circle cx="445.94" cy="138.16" fill="#fff" r="8.258"/><path d="m352.154 344.284c-22.712-14.908-57.332-24.447-96.154-24.447s-73.443 9.539-96.154 24.447c35.548 15.01 70.302 25.101 96.154 25.101s60.606-10.091 96.154-25.101z" fill="#e6646e"/><path d="m225.223 365.71c11.136 2.34 21.543 3.675 30.777 3.675 25.852 0 60.606-10.092 96.154-25.101-16.154-10.604-38.4-18.409-63.832-22.08-24.087 5.622-45.816 21.135-63.099 43.506z" fill="#ff8087"/></svg>