<?xml version="1.0" encoding="iso-8859-1"?>
<!-- Generator: Adobe Illustrator 19.0.0, SVG Export Plug-In . SVG Version: 6.00 Build 0)  -->
<svg version="1.1" id="Capa_1" xmlns="http://www.w3.org/2000/svg" xmlns:xlink="http://www.w3.org/1999/xlink" x="0px" y="0px"
	 viewBox="0 0 512 512" style="enable-background:new 0 0 512 512;" xml:space="preserve">
<path style="fill:#5D5360;" d="M256.002,0L256.002,0C146.542,0,57.807,88.734,57.807,198.194v82.581
	c0,52.716,20.581,100.624,54.145,136.129c1.512,1.6,4.246,0.518,4.305-1.683l0.732-27.091c0,0,31.656,49.548,72.946,82.581h132.129
	c33.032-24.774,72.947-82.581,72.947-82.581l0.732,27.091c0.059,2.201,2.793,3.282,4.305,1.683
	c33.565-35.505,54.145-83.413,54.145-136.129v-82.581C454.195,88.734,365.461,0,256.002,0z"/>
<path style="fill:#4B3F4E;" d="M189.936,148.645c0-68.929,46.985-126.732,110.628-143.552C286.234,1.798,271.332,0,256.002,0h-0.001
	C146.542,0,57.807,88.734,57.807,198.194v82.581c0,52.716,20.581,100.624,54.146,136.129c1.512,1.6,4.246,0.518,4.305-1.683
	l0.732-27.091c0,0,31.656,49.548,72.946,82.581V148.645z"/>
<path style="fill:#AEA8AF;" d="M379.139,230.845c-3.607-21.356-21.595-38.184-43.118-40.591
	c-13.678-1.529-26.374,2.527-36.138,10.169c-12.418,9.72-28.108,14.285-43.878,14.286h-0.009
	c-15.77-0.001-31.46-4.566-43.878-14.286c-9.764-7.642-22.46-11.699-36.137-10.169c-21.524,2.406-39.512,19.235-43.119,40.591
	c-4.202,24.874,10.163,47.069,31.473,55.034c4.349,1.625,8.081,4.566,10.866,8.279c5.101,6.801,6.629,15.765,3.585,23.704
	c-3.449,8.997-5.366,18.745-5.366,28.976h165.16c0-10.231-1.917-19.979-5.366-28.976c-3.043-7.939-1.516-16.902,3.585-23.704
	c2.785-3.714,6.517-6.654,10.866-8.279C368.976,277.914,383.34,255.72,379.139,230.845z"/>
<g>
	<path style="fill:#C0BCC1;" d="M256.001,512L256.001,512c-45.608,0-82.581-36.973-82.581-82.581v-82.581
		c0-45.608,36.973-82.581,82.581-82.581l0,0c45.608,0,82.581,36.973,82.581,82.581v82.581C338.582,475.027,301.609,512,256.001,512z
		"/>
	<path style="fill:#C0BCC1;" d="M256.001,313.806c-45.608,0-82.581,24.648-82.581,55.054v55.054
		c0,30.405,36.973,55.054,82.581,55.054s82.581-24.649,82.581-55.054V368.86C338.582,338.455,301.609,313.806,256.001,313.806z"/>
</g>
<path style="fill:#BEE86E;" d="M198.195,231.226h-33.032v16.516c0,9.122,7.395,16.516,16.516,16.516l0,0
	c9.122,0,16.516-7.395,16.516-16.516L198.195,231.226L198.195,231.226z"/>
<g>
	
		<ellipse transform="matrix(0.7071 -0.7071 0.7071 0.7071 -175.3507 265.9926)" style="fill:#4B3F4E;" cx="233.406" cy="344.663" rx="16.516" ry="20.645"/>
	
		<ellipse transform="matrix(0.7071 0.7071 -0.7071 0.7071 325.309 -96.0473)" style="fill:#4B3F4E;" cx="278.594" cy="344.659" rx="16.516" ry="20.645"/>
</g>
<path style="fill:#9C969E;" d="M256.001,462.452c-5.806,0-11.589-0.23-17.19-0.69c-4.544-0.371-7.927-4.355-7.556-8.903
	c0.371-4.544,4.339-7.911,8.903-7.556c10.306,0.839,21.379,0.839,31.685,0c4.593-0.343,8.532,3.012,8.903,7.556
	c0.371,4.548-3.012,8.532-7.556,8.903C267.59,462.222,261.807,462.452,256.001,462.452z"/>
<path style="fill:#4B3F4E;" d="M256.001,429.419c25.306,0,47.206-5.153,62.096-13.557c2.525-1.425,3.969-4.199,3.969-7.099l0,0
	c0-6.313-6.711-10.263-12.24-7.215c-11.349,6.256-30.052,11.355-53.825,11.355s-42.475-5.099-53.825-11.355
	c-5.529-3.048-12.24,0.902-12.24,7.215l0,0c0,2.899,1.444,5.674,3.969,7.099C208.795,424.266,230.695,429.419,256.001,429.419z"/>
<path style="fill:#9C969E;" d="M272.517,212.946c-5.403,1.162-10.949,1.763-16.513,1.764h-0.009
	c-5.563-0.001-11.108-0.601-16.511-1.763v18.279c0,9.122,7.395,16.516,16.516,16.516l0,0c9.122,0,16.516-7.395,16.516-16.516v-18.28
	H272.517z"/>
<path style="fill:#D4F582;" d="M189.936,256L189.936,256c-4.561,0-8.258-3.697-8.258-8.258v-16.516h16.516v16.516
	C198.195,252.303,194.497,256,189.936,256z"/>
<path style="fill:#5D5360;" d="M198.195,239.484h-33.032c-4.561,0-8.258-3.697-8.258-8.258l0,0c0-4.561,3.697-8.258,8.258-8.258
	h33.032c4.561,0,8.258,3.697,8.258,8.258l0,0C206.453,235.787,202.755,239.484,198.195,239.484z"/>
<path style="fill:#BEE86E;" d="M346.84,231.226h-33.032v16.516c0,9.122,7.395,16.516,16.516,16.516l0,0
	c9.122,0,16.516-7.395,16.516-16.516L346.84,231.226L346.84,231.226z"/>
<path style="fill:#D4F582;" d="M338.582,256L338.582,256c-4.561,0-8.258-3.697-8.258-8.258v-16.516h16.516v16.516
	C346.84,252.303,343.142,256,338.582,256z"/>
<path style="fill:#5D5360;" d="M346.84,239.484h-33.032c-4.561,0-8.258-3.697-8.258-8.258l0,0c0-4.561,3.697-8.258,8.258-8.258
	h33.032c4.561,0,8.258,3.697,8.258,8.258l0,0C355.098,235.787,351.401,239.484,346.84,239.484z"/>
<path style="fill:#AEA8AF;" d="M256.001,478.968c-45.608,0-82.581-24.649-82.581-55.054v5.506c0,45.607,36.973,82.58,82.581,82.58
	s82.581-36.973,82.581-82.581v-5.506C338.582,454.319,301.609,478.968,256.001,478.968z"/>
<g>
</g>
<g>
</g>
<g>
</g>
<g>
</g>
<g>
</g>
<g>
</g>
<g>
</g>
<g>
</g>
<g>
</g>
<g>
</g>
<g>
</g>
<g>
</g>
<g>
</g>
<g>
</g>
<g>
</g>
</svg>
