<svg enable-background="new 0 0 512 512" viewBox="0 0 512 512" xmlns="http://www.w3.org/2000/svg"><path d="m256.002 0c-109.46 0-198.195 88.734-198.195 198.194v82.581c0 52.716 20.581 100.624 54.145 136.129 1.512 1.6 4.246.518 4.305-1.683l.732-27.091s31.656 49.548 72.946 82.581h132.129c33.032-24.774 72.947-82.581 72.947-82.581l.732 27.091c.059 2.201 2.793 3.282 4.305 1.683 33.565-35.505 54.145-83.413 54.145-136.129v-82.581c.002-109.46-88.732-198.194-198.191-198.194z" fill="#5d5360"/><path d="m189.936 148.645c0-68.929 46.985-126.732 110.628-143.552-14.33-3.295-29.232-5.093-44.562-5.093h-.001c-109.459 0-198.194 88.734-198.194 198.194v82.581c0 52.716 20.581 100.624 54.146 136.129 1.512 1.6 4.246.518 4.305-1.683l.732-27.091s31.656 49.548 72.946 82.581z" fill="#4b3f4e"/><path d="m379.139 230.845c-3.607-21.356-21.595-38.184-43.118-40.591-13.678-1.529-26.374 2.527-36.138 10.169-12.418 9.72-28.108 14.285-43.878 14.286h-.009c-15.77-.001-31.46-4.566-43.878-14.286-9.764-7.642-22.46-11.699-36.137-10.169-21.524 2.406-39.512 19.235-43.119 40.591-4.202 24.874 10.163 47.069 31.473 55.034 4.349 1.625 8.081 4.566 10.866 8.279 5.101 6.801 6.629 15.765 3.585 23.704-3.449 8.997-5.366 18.745-5.366 28.976h165.16c0-10.231-1.917-19.979-5.366-28.976-3.043-7.939-1.516-16.902 3.585-23.704 2.785-3.714 6.517-6.654 10.866-8.279 21.311-7.965 35.675-30.159 31.474-55.034z" fill="#aea8af"/><path d="m256.001 512c-45.608 0-82.581-36.973-82.581-82.581v-82.581c0-45.608 36.973-82.581 82.581-82.581 45.608 0 82.581 36.973 82.581 82.581v82.581c0 45.608-36.973 82.581-82.581 82.581z" fill="#c0bcc1"/><path d="m256.001 313.806c-45.608 0-82.581 24.648-82.581 55.054v55.054c0 30.405 36.973 55.054 82.581 55.054s82.581-24.649 82.581-55.054v-55.054c0-30.405-36.973-55.054-82.581-55.054z" fill="#c0bcc1"/><path d="m198.195 231.226h-33.032v16.516c0 9.122 7.395 16.516 16.516 16.516 9.122 0 16.516-7.395 16.516-16.516z" fill="#bee86e"/><ellipse cx="233.406" cy="344.663" fill="#4b3f4e" rx="16.516" ry="20.645" transform="matrix(.7071 -.7071 .7071 .7071 -175.3507 265.9926)"/><ellipse cx="278.594" cy="344.659" fill="#4b3f4e" rx="16.516" ry="20.645" transform="matrix(.7071 .7071 -.7071 .7071 325.309 -96.0473)"/><path d="m256.001 462.452c-5.806 0-11.589-.23-17.19-.69-4.544-.371-7.927-4.355-7.556-8.903.371-4.544 4.339-7.911 8.903-7.556 10.306.839 21.379.839 31.685 0 4.593-.343 8.532 3.012 8.903 7.556.371 4.548-3.012 8.532-7.556 8.903-5.6.46-11.383.69-17.189.69z" fill="#9c969e"/><path d="m256.001 429.419c25.306 0 47.206-5.153 62.096-13.557 2.525-1.425 3.969-4.199 3.969-7.099 0-6.313-6.711-10.263-12.24-7.215-11.349 6.256-30.052 11.355-53.825 11.355s-42.475-5.099-53.825-11.355c-5.529-3.048-12.24.902-12.24 7.215 0 2.899 1.444 5.674 3.969 7.099 14.89 8.404 36.79 13.557 62.096 13.557z" fill="#4b3f4e"/><path d="m272.517 212.946c-5.403 1.162-10.949 1.763-16.513 1.764h-.009c-5.563-.001-11.108-.601-16.511-1.763v18.279c0 9.122 7.395 16.516 16.516 16.516 9.122 0 16.516-7.395 16.516-16.516v-18.28z" fill="#9c969e"/><path d="m189.936 256c-4.561 0-8.258-3.697-8.258-8.258v-16.516h16.516v16.516c.001 4.561-3.697 8.258-8.258 8.258z" fill="#d4f582"/><path d="m198.195 239.484h-33.032c-4.561 0-8.258-3.697-8.258-8.258 0-4.561 3.697-8.258 8.258-8.258h33.032c4.561 0 8.258 3.697 8.258 8.258 0 4.561-3.698 8.258-8.258 8.258z" fill="#5d5360"/><path d="m346.84 231.226h-33.032v16.516c0 9.122 7.395 16.516 16.516 16.516 9.122 0 16.516-7.395 16.516-16.516z" fill="#bee86e"/><path d="m338.582 256c-4.561 0-8.258-3.697-8.258-8.258v-16.516h16.516v16.516c0 4.561-3.698 8.258-8.258 8.258z" fill="#d4f582"/><path d="m346.84 239.484h-33.032c-4.561 0-8.258-3.697-8.258-8.258 0-4.561 3.697-8.258 8.258-8.258h33.032c4.561 0 8.258 3.697 8.258 8.258 0 4.561-3.697 8.258-8.258 8.258z" fill="#5d5360"/><path d="m256.001 478.968c-45.608 0-82.581-24.649-82.581-55.054v5.506c0 45.607 36.973 82.58 82.581 82.58s82.581-36.973 82.581-82.581v-5.506c0 30.406-36.973 55.055-82.581 55.055z" fill="#aea8af"/></svg>