<?xml version="1.0" encoding="iso-8859-1"?>
<!-- Generator: Adobe Illustrator 19.0.0, SVG Export Plug-In . SVG Version: 6.00 Build 0)  -->
<svg version="1.1" id="Capa_1" xmlns="http://www.w3.org/2000/svg" xmlns:xlink="http://www.w3.org/1999/xlink" x="0px" y="0px"
	 viewBox="0 0 512.002 512.002" style="enable-background:new 0 0 512.002 512.002;" xml:space="preserve">
<path style="fill:#E6646E;" d="M495.173,81.03c-37.052-27.031-85.019-34.175-85.019-34.175l4.084-20.42
	c2.177-10.883-6.82-20.856-17.86-19.706c-47.058,4.901-81.879,23.61-81.879,23.61l-9.205-18.412
	c-4.139-8.276-14.378-11.726-22.477-7.251c-46.865,25.896-75.671,71.081-75.671,71.081l-10.042-4.394
	c-7.245-3.17-15.914-0.894-20.231,5.732c-29.701,45.577-30.285,126.659-30.285,126.659l282.834-49.547l65.217-46.406
	C503.858,101.383,504.248,87.651,495.173,81.03z"/>
<g>
	<path style="fill:#DC4655;" d="M314.499,30.339c0.201-0.101,0.377-0.198,0.576-0.299C314.726,30.22,314.499,30.339,314.499,30.339z
		"/>
	<path style="fill:#DC4655;" d="M305.294,11.927C301.156,3.65,290.917,0.2,282.818,4.676
		c-46.866,25.896-75.672,71.082-75.672,71.082l-10.042-4.394c-7.159-3.132-16.378-0.273-20.6,6.302
		c-29.337,45.68-29.916,126.089-29.916,126.089l59.87-10.488c0-28.902,16.985-64.569,33.032-88.607
		c18.905-28.321,39.279-56.268,75.009-74.321L305.294,11.927z"/>
</g>
<path style="fill:#E6646E;" d="M107.019,344.484l-52.037,52.037c-8.76,8.76-13.682,20.642-13.682,33.032
	c0,25.799,20.914,46.714,46.714,46.714c42.612,0,77.155-34.544,77.155-77.155v-54.628H107.019z"/>
<path style="fill:#DC4655;" d="M148.653,344.484v21.596c0,42.611-34.543,77.155-77.155,77.155c-11.456,0-21.935-4.139-30.061-10.983
	c1.406,24.536,21.689,44.014,46.577,44.014c42.612,0,77.155-34.544,77.155-77.155v-54.628L148.653,344.484L148.653,344.484z"/>
<path style="fill:#EDEBED;" d="M315.143,80.01c-102.922,3.659-183.006,91.373-183.006,194.361v80.907
	c19.232,6.809,33.032,25.103,33.032,46.667v90.837c0,9.121,7.394,16.516,16.516,16.516h313.801c9.121,0,16.516-7.394,16.516-16.516
	V269.818C512.001,162.623,423.197,76.168,315.143,80.01z"/>
<path style="fill:#DBD9DC;" d="M371.616,86.457c-20.882-5.629-43.16-7.855-66.252-5.841
	c-98.862,8.622-173.228,94.376-173.228,193.614v81.048c19.232,6.809,33.032,25.103,33.032,46.667v90.837
	c0,9.121,7.394,16.516,16.516,16.516h49.547v-239.48C231.232,182.069,290.756,108.257,371.616,86.457z"/>
<path style="fill:#FFC850;" d="M169.947,238.413c-3.603-5.785-10.972-9.884-16.064-9.38C117.89,232.597,7.227,247.342,0.347,342.896
	l11.026,9.502h104.248c12.655,0,24.187,4.75,32.932,12.562c5.061,4.521,12.892,4.361,17.522-0.6
	C216.375,310.457,175.672,247.604,169.947,238.413z"/>
<path style="fill:#EBAF4B;" d="M155.878,319.882c-95.743,0-134.507,16.981-148.644,26.4l3.458,6.116h104.929
	c12.655,0,24.187,4.75,32.932,12.562c5.061,4.521,12.892,4.361,17.522-0.6c12.594-13.496,19.48-27.552,22.642-41.187
	C176.576,321.423,163.679,319.882,155.878,319.882z"/>
<path style="fill:#4B3F4E;" d="M251.877,269.819L251.877,269.819c-15.897,0-28.903-13.006-28.903-28.903V224.4
	c0-15.896,13.006-28.903,28.903-28.903l0,0c15.896,0,28.903,13.006,28.903,28.903v16.516
	C280.779,256.812,267.773,269.819,251.877,269.819z"/>
<path style="fill:#5D5360;" d="M251.877,195.497c-1.413,0-2.769,0.221-4.129,0.419v40.87c0,9.121,7.395,16.516,16.516,16.516
	c9.122,0,16.516-7.395,16.516-16.516v-12.387C280.779,208.504,267.773,195.497,251.877,195.497z"/>
<circle style="fill:#FFFFFF;" cx="251.881" cy="216.141" r="12.387"/>
<path style="fill:#E1A546;" d="M155.878,311.624c-101.006,0-140.834,18.637-155.305,29.199l-0.171,0.572
	c-2.268,7.602,5.49,14.327,12.693,11.003l0,0c13.429-8.368,50.999-24.258,142.783-24.258c4.56,0,8.258-3.698,8.258-8.258
	C164.136,315.322,160.439,311.624,155.878,311.624z"/>
<g>
</g>
<g>
</g>
<g>
</g>
<g>
</g>
<g>
</g>
<g>
</g>
<g>
</g>
<g>
</g>
<g>
</g>
<g>
</g>
<g>
</g>
<g>
</g>
<g>
</g>
<g>
</g>
<g>
</g>
</svg>
