<svg enable-background="new 0 0 512.002 512.002" viewBox="0 0 512.002 512.002" xmlns="http://www.w3.org/2000/svg"><path d="m495.173 81.03c-37.052-27.031-85.019-34.175-85.019-34.175l4.084-20.42c2.177-10.883-6.82-20.856-17.86-19.706-47.058 4.901-81.879 23.61-81.879 23.61l-9.205-18.412c-4.139-8.276-14.378-11.726-22.477-7.251-46.865 25.896-75.671 71.081-75.671 71.081l-10.042-4.394c-7.245-3.17-15.914-.894-20.231 5.732-29.701 45.577-30.285 126.659-30.285 126.659l282.834-49.547 65.217-46.406c9.219-6.418 9.609-20.15.534-26.771z" fill="#e6646e"/><path d="m314.499 30.339c.201-.101.377-.198.576-.299-.349.18-.576.299-.576.299z" fill="#dc4655"/><path d="m305.294 11.927c-4.138-8.277-14.377-11.727-22.476-7.251-46.866 25.896-75.672 71.082-75.672 71.082l-10.042-4.394c-7.159-3.132-16.378-.273-20.6 6.302-29.337 45.68-29.916 126.089-29.916 126.089l59.87-10.488c0-28.902 16.985-64.569 33.032-88.607 18.905-28.321 39.279-56.268 75.009-74.321z" fill="#dc4655"/><path d="m107.019 344.484-52.037 52.037c-8.76 8.76-13.682 20.642-13.682 33.032 0 25.799 20.914 46.714 46.714 46.714 42.612 0 77.155-34.544 77.155-77.155v-54.628z" fill="#e6646e"/><path d="m148.653 344.484v21.596c0 42.611-34.543 77.155-77.155 77.155-11.456 0-21.935-4.139-30.061-10.983 1.406 24.536 21.689 44.014 46.577 44.014 42.612 0 77.155-34.544 77.155-77.155v-54.628z" fill="#dc4655"/><path d="m315.143 80.01c-102.922 3.659-183.006 91.373-183.006 194.361v80.907c19.232 6.809 33.032 25.103 33.032 46.667v90.837c0 9.121 7.394 16.516 16.516 16.516h313.801c9.121 0 16.516-7.394 16.516-16.516v-222.964c-.001-107.195-88.805-193.65-196.859-189.808z" fill="#edebed"/><path d="m371.616 86.457c-20.882-5.629-43.16-7.855-66.252-5.841-98.862 8.622-173.228 94.376-173.228 193.614v81.048c19.232 6.809 33.032 25.103 33.032 46.667v90.837c0 9.121 7.394 16.516 16.516 16.516h49.547v-239.48c.001-87.749 59.525-161.561 140.385-183.361z" fill="#dbd9dc"/><path d="m169.947 238.413c-3.603-5.785-10.972-9.884-16.064-9.38-35.993 3.564-146.656 18.309-153.536 113.863l11.026 9.502h104.248c12.655 0 24.187 4.75 32.932 12.562 5.061 4.521 12.892 4.361 17.522-.6 50.3-53.903 9.597-116.756 3.872-125.947z" fill="#ffc850"/><path d="m155.878 319.882c-95.743 0-134.507 16.981-148.644 26.4l3.458 6.116h104.929c12.655 0 24.187 4.75 32.932 12.562 5.061 4.521 12.892 4.361 17.522-.6 12.594-13.496 19.48-27.552 22.642-41.187-12.141-1.75-25.038-3.291-32.839-3.291z" fill="#ebaf4b"/><path d="m251.877 269.819c-15.897 0-28.903-13.006-28.903-28.903v-16.516c0-15.896 13.006-28.903 28.903-28.903 15.896 0 28.903 13.006 28.903 28.903v16.516c-.001 15.896-13.007 28.903-28.903 28.903z" fill="#4b3f4e"/><path d="m251.877 195.497c-1.413 0-2.769.221-4.129.419v40.87c0 9.121 7.395 16.516 16.516 16.516 9.122 0 16.516-7.395 16.516-16.516v-12.387c-.001-15.895-13.007-28.902-28.903-28.902z" fill="#5d5360"/><circle cx="251.881" cy="216.141" fill="#fff" r="12.387"/><path d="m155.878 311.624c-101.006 0-140.834 18.637-155.305 29.199l-.171.572c-2.268 7.602 5.49 14.327 12.693 11.003 13.429-8.368 50.999-24.258 142.783-24.258 4.56 0 8.258-3.698 8.258-8.258s-3.697-8.258-8.258-8.258z" fill="#e1a546"/></svg>