<svg enable-background="new 0 0 512 512" viewBox="0 0 512 512" xmlns="http://www.w3.org/2000/svg"><circle cx="421.16" cy="90.84" fill="#c0bcc1" r="90.84"/><circle cx="421.16" cy="90.84" fill="#9c969e" r="57.806"/><circle cx="90.84" cy="90.84" fill="#c0bcc1" r="90.84"/><circle cx="90.84" cy="90.84" fill="#9c969e" r="57.806"/><path d="m256 49.548c-132.263 0-239.484 99.826-239.484 222.968 0 70.75 35.394 133.804 90.596 174.651 40.901 30.265 91.242 45.011 142.122 45.061l13.039.013c50.935.05 101.356-14.634 142.344-44.873 55.357-40.841 90.867-103.985 90.867-174.851 0-123.143-107.221-222.969-239.484-222.969z" fill="#c9c6ca"/><path d="m173.176 453.743c-55.202-42.37-90.596-107.776-90.596-181.166 0-106.453 74.493-196.049 175.863-222.971-.818-.008-1.624-.057-2.444-.057-132.263 0-239.484 99.826-239.484 222.968 0 70.75 35.394 133.804 90.596 174.651 40.901 30.265 91.242 45.011 142.122 45.061l3.344.003c-28.482-7.531-55.567-20.195-79.401-38.489z" fill="#c0bcc1"/><path d="m256 512c-27.692 0-50.458-21.837-51.611-49.505l-3.789-90.932c-1.313-31.501 23.871-57.756 55.4-57.756 31.529 0 56.712 26.255 55.4 57.756l-3.789 90.932c-1.153 27.668-23.919 49.505-51.611 49.505z" fill="#dbd9dc"/><path d="m256 313.806c-31.529 0-56.713 26.255-55.4 57.756l3.06 73.447c13.838 5.681 32.143 9.184 52.339 9.184s38.502-3.503 52.339-9.184l3.06-73.447c1.315-31.501-23.869-57.756-55.398-57.756z" fill="#5d5360"/><path d="m144.516 313.806c-15.897 0-28.903-13.006-28.903-28.903v-16.516c0-15.897 13.006-28.903 28.903-28.903 15.897 0 28.903 13.006 28.903 28.903v16.516c0 15.897-13.006 28.903-28.903 28.903z" fill="#4b3f4e"/><path d="m144.516 239.484c-1.413 0-2.769.221-4.129.419v40.871c0 9.121 7.395 16.516 16.516 16.516 9.122 0 16.516-7.395 16.516-16.516v-12.387c0-15.897-13.006-28.903-28.903-28.903z" fill="#5d5360"/><circle cx="144.52" cy="260.13" fill="#fff" r="12.387"/><path d="m367.484 313.806c-15.897 0-28.903-13.006-28.903-28.903v-16.516c0-15.897 13.006-28.903 28.903-28.903 15.897 0 28.903 13.006 28.903 28.903v16.516c0 15.897-13.006 28.903-28.903 28.903z" fill="#4b3f4e"/><path d="m367.484 239.484c-1.413 0-2.769.221-4.129.419v40.871c0 9.121 7.395 16.516 16.516 16.516 9.122 0 16.516-7.395 16.516-16.516v-12.387c0-15.897-13.006-28.903-28.903-28.903z" fill="#5d5360"/><circle cx="367.48" cy="260.13" fill="#fff" r="12.387"/><path d="m328.774 432.863c-2.661-3.71-7.822-4.552-11.524-1.895-12.863 9.234-36.331 14.968-61.25 14.968-4.993 0-9.907-.256-14.697-.715-4.039-.387-7.118-3.805-7.287-7.859l-2.742-65.799c-1.091-26.172 16.131-48.666 40.062-55.548-9-2.588-18.873-3.149-29.295-.344-25.746 6.929-42.439 31.962-41.329 58.601l2.563 61.521c-3.149-1.487-6.081-3.07-8.527-4.826-3.71-2.669-8.867-1.819-11.524 1.895-2.657 3.706-1.81 8.863 1.895 11.524 15.758 11.31 42.254 18.065 70.879 18.065 28.629 0 55.121-6.754 70.879-18.065 3.712-2.66 4.558-7.817 1.897-11.523z" fill="#4b3f4e"/></svg>