<svg enable-background="new 0 0 512 512" viewBox="0 0 512 512" xmlns="http://www.w3.org/2000/svg"><ellipse cx="408.033" cy="117.906" fill="#c0bcc1" rx="113.108" ry="92.168" transform="matrix(-.4095 .9123 -.9123 -.4095 682.6902 -206.0628)"/><ellipse cx="418.037" cy="122.577" fill="#aea8af" rx="88.858" ry="65.549" transform="matrix(-.4095 .9123 -.9123 -.4095 701.0529 -208.6055)"/><ellipse cx="104.02" cy="117.908" fill="#c0bcc1" rx="113.108" ry="92.168" transform="matrix(-.4095 -.9123 .9123 -.4095 39.049 261.0897)"/><ellipse cx="94.021" cy="122.587" fill="#aea8af" rx="88.858" ry="65.549" transform="matrix(-.4095 -.9123 .9123 -.4095 20.6857 258.563)"/><path d="m455.998 334.154c0-123.076-95.999-246.151-199.998-246.151s-199.998 123.075-199.998 246.151c0 66.779 54.79 128.318 141.65 147.595 15.539 13.799 35.932 22.25 58.347 22.25s42.808-8.45 58.347-22.25c86.862-19.278 141.652-80.817 141.652-147.595z" fill="#c9c6ca"/><path d="m120.002 338.556c0-99.278 43.188-198.519 100.922-245.873-89.53 23.424-164.921 132.41-164.921 241.471 0 65.935 53.475 126.683 138.433 146.765-46.634-31.619-74.434-85.228-74.434-142.363z" fill="#c0bcc1"/><path d="m288 475.248h-64l-32-9.387c0 6.937 2.868 13.693 8.223 18.103 15.177 12.498 34.58 20.035 55.776 20.035 21.197 0 40.6-7.537 55.776-20.035 5.355-4.41 8.223-11.166 8.223-18.103z" fill="#c0bcc1"/><path d="m256 383.999c22.091 0 40 14.327 40 32 0 17.044-16.811 26.018-28.943 32.654-7.033 3.846-15.08 3.846-22.113 0-12.133-6.636-28.943-15.61-28.943-32.654-.001-17.673 17.907-32 39.999-32z" fill="#f5dcb4"/><path d="m284 487.998c-8.383 0-16.539-2.414-23.598-6.984-2.758-1.781-6.047-1.781-8.805 0-7.059 4.57-15.215 6.984-23.598 6.984-14.637 0-28.258-7.309-36.434-19.555-2.453-3.672-1.465-8.641 2.211-11.094 3.66-2.461 8.637-1.477 11.094 2.211 5.203 7.789 13.848 12.438 23.129 12.438 5.289 0 10.441-1.527 14.902-4.414 8.078-5.227 18.117-5.234 26.195 0 4.461 2.887 9.613 4.414 14.902 4.414 9.285 0 17.93-4.648 23.125-12.438 2.449-3.68 7.406-4.676 11.098-2.219 3.672 2.453 4.664 7.422 2.215 11.094-8.172 12.25-21.793 19.563-36.436 19.563z" fill="#aea8af"/><g fill="#9c969e"><path d="m471.993 472.002c-1.09 0-2.191-.227-3.25-.695-56.804-25.293-133.396-39.297-134.166-39.438-4.348-.785-7.234-4.945-6.449-9.293.781-4.344 4.926-7.266 9.293-6.449 3.207.578 79.233 14.469 137.83 40.563 4.035 1.797 5.852 6.527 4.055 10.563-1.329 2.979-4.251 4.749-7.313 4.749z"/><path d="m504.005 415.999c-.594 0-1.199-.066-1.801-.203-52.628-12.113-148.865-7.848-149.838-7.805-4.367.027-8.156-3.211-8.359-7.625s3.211-8.156 7.625-8.359c4.031-.184 99.421-4.398 154.158 8.195 4.309.992 6.996 5.285 6.004 9.59-.852 3.703-4.149 6.207-7.789 6.207z"/><path d="m40.006 472.002c-3.063 0-5.984-1.77-7.313-4.75-1.797-4.035.02-8.766 4.055-10.563 58.597-26.094 134.623-39.984 137.83-40.563 4.375-.82 8.512 2.102 9.293 6.449.785 4.348-2.102 8.508-6.449 9.293-.77.141-77.362 14.145-134.166 39.438-1.059.469-2.164.696-3.25.696z"/><path d="m7.995 415.999c-3.645.004-6.938-2.504-7.789-6.207-.992-4.305 1.695-8.598 6.004-9.59 54.733-12.598 150.115-8.379 154.158-8.195 4.414.203 7.828 3.945 7.625 8.359-.203 4.418-3.875 7.766-8.359 7.625-.969-.051-97.233-4.301-149.838 7.805-.602.136-1.207.203-1.801.203z"/></g><path d="m172.001 352c-15.4 0-28-12.6-28-28v-16c0-15.4 12.6-28 28-28 15.4 0 28 12.6 28 28v16c0 15.4-12.6 28-28 28z" fill="#4b3f4e"/><path d="m172.001 280.001c-1.369 0-2.682.214-4 .406v39.593c0 8.836 7.164 16 16 16 8.837 0 16-7.164 16-16v-12c0-15.4-12.6-27.999-28-27.999z" fill="#5d5360"/><circle cx="171.998" cy="299.997" fill="#fff" r="12"/><path d="m339.999 352c-15.4 0-28-12.6-28-28v-16c0-15.4 12.6-28 28-28 15.4 0 28 12.6 28 28v16c0 15.4-12.6 28-28 28z" fill="#4b3f4e"/><path d="m339.999 280.001c-1.369 0-2.682.214-4 .406v39.593c0 8.836 7.164 16 16 16 8.837 0 16-7.164 16-16v-12c0-15.4-12.6-27.999-28-27.999z" fill="#5d5360"/><circle cx="339.996" cy="299.997" fill="#fff" r="12"/><path d="m240 407.579c0-8.507 2.769-16.34 7.384-22.793-17.94 3.158-31.384 15.911-31.384 31.212 0 17.043 16.811 26.018 28.943 32.654 7.033 3.846 15.081 3.846 22.113 0 .512-.28 1.069-.592 1.597-.881-12.109-8.188-28.653-19.272-28.653-40.192z" fill="#ebc9a0"/></svg>