<svg enable-background="new 0 0 512.002 512.002" viewBox="0 0 512.002 512.002" xmlns="http://www.w3.org/2000/svg"><path d="m199.113 446.981c-4.492 0-8.127 3.639-8.127 8.127v1.298c0 4.194-3.27 7.75-7.452 8.099l-71.936 5.996c-9.73.81-18.016 7.321-21.103 16.583l-4.738 14.214c-1.421 4.258.881 8.861 5.135 10.282.857.286 1.722.421 2.571.421 3.405 0 6.571-2.155 7.706-5.559l4.738-14.214c1.032-3.087 3.794-5.258 7.04-5.528l4.897-.408v17.579c0 4.488 3.635 8.127 8.127 8.127s8.127-3.639 8.127-8.127v-18.933l9.249-.771 7.425 22.276c1.135 3.405 4.302 5.559 7.706 5.559.849 0 1.714-.135 2.571-.421 4.254-1.421 6.556-6.024 5.135-10.282l-6.174-18.522 24.872-2.073c12.54-1.044 22.357-11.718 22.357-24.297v-1.298c0-4.489-3.634-8.128-8.126-8.128z" fill="#ebaf4b"/><path d="m312.889 446.981c4.492 0 8.127 3.639 8.127 8.127v1.298c0 4.194 3.27 7.75 7.452 8.099l71.936 5.996c9.73.81 18.016 7.321 21.103 16.583l4.738 14.214c1.421 4.258-.881 8.861-5.135 10.282-.857.286-1.722.421-2.571.421-3.405 0-6.571-2.155-7.706-5.559l-4.738-14.214c-1.032-3.087-3.794-5.258-7.04-5.528l-4.897-.408v17.579c0 4.488-3.635 8.127-8.127 8.127s-8.127-3.639-8.127-8.127v-18.933l-9.249-.771-7.425 22.276c-1.135 3.405-4.302 5.559-7.706 5.559-.849 0-1.714-.135-2.571-.421-4.254-1.421-6.556-6.024-5.135-10.282l6.174-18.522-24.872-2.073c-12.54-1.044-22.357-11.718-22.357-24.297v-1.298c0-4.489 3.634-8.128 8.126-8.128z" fill="#ebaf4b"/><ellipse cx="256.001" cy="280.38" fill="#824d51" rx="195.05" ry="199.11"/><ellipse cx="256.001" cy="288.51" fill="#c0826c" rx="130.03" ry="174.73"/><path d="m475.428 138.158-25.858 25.858c.938-5.816 1.477-11.725 1.477-17.731 0-80.791-87.325-146.285-195.046-146.285s-195.046 65.494-195.046 146.285c0 6.006.539 11.915 1.477 17.731l-25.858-25.858s-29.395 73.487-32.28 122.629c-.236 4.011 2.925 7.401 6.943 7.401h17.21v17.974c0 3.666 2.844 6.696 6.502 6.94 18.976 1.268 76.662 3.09 135.306-15.415-3.65-1.373 85.746-42.008 85.746-42.008s81.269 40.635 85.746 42.008c58.644 18.504 116.33 16.682 135.306 15.415 3.658-.244 6.502-3.275 6.502-6.94v-17.974h17.21c4.018 0 7.179-3.391 6.943-7.401-2.885-49.142-32.28-122.629-32.28-122.629z" fill="#965a50"/><path d="m448.873 62.685c27.642-15.503 37.435-37.153 40.905-50.528 1.328-5.121-3.629-9.484-8.621-7.732-62.354 21.888-163.89-9.678-214.844 76.628-4.677 7.921-15.946 7.921-20.622 0-50.956-86.306-152.492-54.74-214.845-76.627-4.992-1.752-9.95 2.611-8.621 7.732 3.47 13.374 13.264 35.025 40.905 50.528 4.778 2.68 5.73 9.085 1.821 12.924-25.612 25.15-40.186 61.496-35.696 101.142 6.268 55.355 50.802 100.207 106.119 106.798 51.342 6.117 97.277-19.731 120.628-60.241 23.352 40.51 69.287 66.358 120.628 60.241 55.317-6.591 99.851-51.443 106.119-106.798 4.489-39.646-10.084-75.992-35.696-101.142-3.91-3.84-2.959-10.245 1.82-12.925z" fill="#af6e5a"/><circle cx="150.351" cy="162.54" fill="#ebaf4b" r="81.27"/><circle cx="150.351" cy="162.54" fill="#ffc850" r="56.888"/><path d="m261.328 286.492 16.15-43.066c1.769-4.717.617-10.032-2.945-13.594l-7.039-7.039c-6.348-6.348-16.639-6.348-22.986 0l-7.039 7.039c-3.562 3.562-4.713 8.877-2.945 13.594l16.15 43.066c1.846 4.922 8.808 4.922 10.654 0z" fill="#ebaf4b"/><path d="m150.351 203.173c-17.954 0-32.508-14.554-32.508-32.508v-16.254c0-17.953 14.554-32.508 32.508-32.508 17.953 0 32.508 14.554 32.508 32.508v16.254c0 17.954-14.554 32.508-32.508 32.508z" fill="#4b3f4e"/><circle cx="154.411" cy="150.35" fill="#fff" r="12.19"/><circle cx="361.651" cy="162.54" fill="#ebaf4b" r="81.27"/><circle cx="361.651" cy="162.54" fill="#ffc850" r="56.888"/><path d="m361.651 203.173c-17.954 0-32.508-14.554-32.508-32.508v-16.254c0-17.953 14.554-32.508 32.508-32.508 17.953 0 32.508 14.554 32.508 32.508v16.254c0 17.954-14.555 32.508-32.508 32.508z" fill="#4b3f4e"/><circle cx="365.711" cy="150.35" fill="#fff" r="12.19"/></svg>