<?xml version="1.0" encoding="iso-8859-1"?>
<!-- Generator: Adobe Illustrator 19.0.0, SVG Export Plug-In . SVG Version: 6.00 Build 0)  -->
<svg version="1.1" id="Capa_1" xmlns="http://www.w3.org/2000/svg" xmlns:xlink="http://www.w3.org/1999/xlink" x="0px" y="0px"
	 viewBox="0 0 512 512" style="enable-background:new 0 0 512 512;" xml:space="preserve">
<g>
	<path style="fill:#8B534F;" d="M238.229,206.893c-1.265-1.52-24.558-28.916-80.305-59.51l-7.013-6.603
		c-7.242-9.633-13.655-18.196-18.684-26.526c7.956-4.698,21.924-14.851,34.531-33.764c2.452-3.675,1.461-8.642-2.218-11.09
		c-3.694-2.46-8.654-1.457-11.09,2.218c-10.529,15.797-21.91,24.292-28.401,28.269C120.3,87.509,119.402,74.6,124.42,58.43
		c1.312-4.218-1.047-8.701-5.264-10.009c-4.272-1.316-8.708,1.054-10.013,5.268c-9.906,31.928-1.01,53.843,14.354,76.549
		c-10.105-4.6-20.843-9.183-32.497-13.665c-10.532-4.05-19.56-8.65-27.355-13.576C79.899,76.44,80.127,14.734,80.127,12.072
		c0-4.417-3.577-7.998-7.998-7.998c-4.413,0-7.998,3.581-7.998,7.998c-0.007,16.547-2.497,62.184-13.482,81.51
		c-37.851-31.522-34.752-70.519-34.543-72.7c0.445-4.382-2.734-8.306-7.123-8.767c-4.342-0.433-8.326,2.722-8.786,7.119
		c-0.086,0.801-1.953,19.889,7.795,43.292c8.872,21.326,29.484,50.602,77.259,68.98c100.4,38.61,140.31,85.174,140.685,85.627
		c1.585,1.898,3.858,2.878,6.154,2.878c1.804,0,3.616-0.609,5.116-1.855C240.595,215.328,241.056,210.287,238.229,206.893z"/>
	<path style="fill:#8B534F;" d="M273.771,206.893c1.265-1.52,24.558-28.916,80.305-59.51l7.013-6.603
		c7.242-9.633,13.655-18.196,18.684-26.526c-7.956-4.698-21.924-14.851-34.531-33.764c-2.452-3.675-1.461-8.642,2.218-11.09
		c3.694-2.46,8.654-1.457,11.09,2.218c10.529,15.797,21.91,24.292,28.401,28.269c4.749-12.378,5.647-25.287,0.629-41.457
		c-1.312-4.218,1.047-8.701,5.264-10.009c4.272-1.316,8.708,1.054,10.013,5.268c9.906,31.928,1.01,53.843-14.354,76.549
		c10.105-4.6,20.843-9.183,32.497-13.665c10.532-4.05,19.56-8.65,27.355-13.576C432.1,76.44,431.872,14.734,431.872,12.072
		c0-4.417,3.577-7.998,7.998-7.998c4.413,0,7.998,3.581,7.998,7.998c0.007,16.547,2.497,62.184,13.482,81.51
		c37.851-31.522,34.752-70.519,34.543-72.7c-0.445-4.382,2.734-8.306,7.123-8.767c4.342-0.433,8.326,2.722,8.786,7.119
		c0.086,0.801,1.953,19.889-7.795,43.292c-8.872,21.326-29.484,50.602-77.259,68.98c-100.4,38.61-140.31,85.174-140.685,85.627
		c-1.585,1.898-3.858,2.878-6.154,2.878c-1.804,0-3.616-0.609-5.116-1.855C271.405,215.328,270.944,210.287,273.771,206.893z"/>
</g>
<path style="fill:#AF6E5A;" d="M57.701,181.854c4.79,22.291,23.579,74.997,94.405,78.145l39.988-39.988
	c0,0-65.828-38.3-126.033-46.851C60.977,172.437,56.622,176.833,57.701,181.854z"/>
<path style="fill:#C0826C;" d="M66.061,173.159c-1.82-0.259-3.535,0.159-4.952,1.007c15.596,6.963,65.041,31.047,104.575,72.255
	l26.41-26.41C192.094,220.011,126.266,181.71,66.061,173.159z"/>
<path style="fill:#AF6E5A;" d="M454.451,181.854c-4.79,22.291-23.579,74.997-94.405,78.145l-39.988-39.988
	c0,0,65.828-38.3,126.033-46.851C451.174,172.437,455.529,176.833,454.451,181.854z"/>
<path style="fill:#C0826C;" d="M446.089,173.159c1.82-0.259,3.535,0.159,4.952,1.007c-15.596,6.963-65.041,31.047-104.575,72.255
	l-26.41-26.41C320.056,220.011,385.884,181.71,446.089,173.159z"/>
<path style="fill:#8B534F;" d="M208.089,459.94c0,26.502,11.546,47.986,47.986,47.986s47.986-21.484,47.986-47.986H208.089z"/>
<path style="fill:#C0826C;" d="M256.076,196.018c-92.756,0-119.965,53.71-119.965,119.965c0,55.984,15.995,55.984,55.984,111.967
	h127.962c39.988-55.984,55.984-55.984,55.984-111.967C376.04,249.727,348.832,196.018,256.076,196.018z"/>
<path style="fill:#AF6E5A;" d="M220.086,316.482c0-52.651,9.597-98.143,38.063-120.387c-0.715-0.006-1.351-0.077-2.074-0.077
	c-92.756,0-119.965,53.71-119.965,119.965c0,55.984,15.995,55.984,55.984,111.967h60.512
	C229.522,379.155,220.086,374.165,220.086,316.482z"/>
<g>
	<path style="fill:#4B3F4E;" d="M184.096,339.975L184.096,339.975c8.834,0,15.995-7.161,15.995-15.995v-7.998
		c0-8.834-7.161-15.995-15.995-15.995l0,0c-8.834,0-15.995,7.161-15.995,15.995v7.998
		C168.101,332.814,175.262,339.975,184.096,339.975z"/>
	<path style="fill:#4B3F4E;" d="M328.054,339.975L328.054,339.975c-8.834,0-15.995-7.161-15.995-15.995v-7.998
		c0-8.834,7.161-15.995,15.995-15.995l0,0c8.834,0,15.995,7.161,15.995,15.995v7.998
		C344.049,332.814,336.888,339.975,328.054,339.975z"/>
</g>
<path style="fill:#D29B78;" d="M256.076,371.966c36.992,0,66.98,23.274,66.98,51.985s-16.116,51.985-66.98,51.985
	s-66.98-23.274-66.98-51.985S219.083,371.966,256.076,371.966z"/>
<g>
	<circle style="fill:#FFFFFF;" cx="184.1" cy="315.98" r="7.998"/>
	<circle style="fill:#FFFFFF;" cx="328.05" cy="315.98" r="7.998"/>
</g>
<path style="fill:#C0826C;" d="M283.067,467.938c-50.864,0-66.98-26.855-66.98-59.982c0-10.987,3.354-21.252,9.113-30.108
	c-21.441,8.668-36.105,26.043-36.105,46.104c0,28.71,16.116,51.985,66.98,51.985c19.379,0,33.686-3.395,44.008-9.165
	C294.895,467.526,289.248,467.938,283.067,467.938z"/>
<path style="fill:#5D5360;" d="M288.066,429.092c0,9.465-14.323,22.85-31.991,22.85s-31.991-13.385-31.991-22.85
	s14.323-17.138,31.991-17.138S288.066,419.627,288.066,429.092z"/>
<path style="fill:#4B3F4E;" d="M266.538,450.248c-15.243-5.3-26.458-22.241-26.458-34.867c0-0.374,0.125-0.722,0.144-1.092
	c-9.601,2.958-16.14,8.444-16.14,14.803c0,7.977,10.219,18.644,23.993,21.832V475.7c2.578,0.137,5.214,0.235,7.998,0.235
	c2.783,0,5.419-0.099,7.998-0.235v-24.858C264.895,450.641,265.74,450.492,266.538,450.248z"/>
<g>
</g>
<g>
</g>
<g>
</g>
<g>
</g>
<g>
</g>
<g>
</g>
<g>
</g>
<g>
</g>
<g>
</g>
<g>
</g>
<g>
</g>
<g>
</g>
<g>
</g>
<g>
</g>
<g>
</g>
</svg>
