<?xml version="1.0" encoding="iso-8859-1"?>
<!-- Generator: Adobe Illustrator 19.0.0, SVG Export Plug-In . SVG Version: 6.00 Build 0)  -->
<svg version="1.1" id="Capa_1" xmlns="http://www.w3.org/2000/svg" xmlns:xlink="http://www.w3.org/1999/xlink" x="0px" y="0px"
	 viewBox="0 0 512 512" style="enable-background:new 0 0 512 512;" xml:space="preserve">
<path style="fill:#DCFD92;" d="M0,228.999C0,299.84,140.387,435.45,256,435.45s256-135.61,256-206.451L0,228.999L0,228.999z"/>
<path style="fill:#BEE86E;" d="M0,228.999c0,58.282,95.024,160.337,193.096,194.715c-23.94-32.714-61.291-88.333-77.483-136.909
	c-6.088-18.263-1.668-38.022,8.775-57.806H0z"/>
<path style="fill:#4B3F4E;" d="M0,228.998c0,37.436,173.419,140.387,256,140.387s256-102.951,256-140.387L0,228.998L0,228.998z"/>
<path style="fill:#BEE86E;" d="M256,286.804c127.312,0,256-41.29,256-57.806s-28.903-55.054-28.903-55.054
	c-19.957-28.903-7.57-61.935-31.155-81.427c-23.12-19.107-66.091-21.871-88.587-3.907C326.482,118.054,295.914,129.9,256,129.9
	s-70.482-11.846-107.355-41.29c-22.496-17.964-65.467-15.2-88.587,3.907c-23.585,19.491-11.198,52.524-31.155,81.427
	c0,0-28.903,38.537-28.903,55.054S128.688,286.804,256,286.804z"/>
<path style="fill:#AFD755;" d="M148.645,88.611c-22.496-17.964-65.467-15.2-88.587,3.907
	c-23.585,19.491-11.198,52.524-31.155,81.427c0,0-28.903,38.537-28.903,55.053c0,10.012,47.327,29.118,112.933,42.621
	c-1.911-49.965,60.464-107.517,106.623-145.823C195.599,120.188,173.534,108.485,148.645,88.611z"/>
<circle style="fill:#FFDC64;" cx="82.58" cy="154.68" r="66.06"/>
<path style="fill:#FFC850;" d="M107.355,195.966c-36.486,0-66.065-29.578-66.065-66.065c0-11.878,3.177-22.995,8.663-32.627
	C30,108.643,16.516,130.067,16.516,154.676c0,36.486,29.579,66.065,66.065,66.065c24.609,0,46.032-13.483,57.401-33.438
	C130.35,192.789,119.232,195.966,107.355,195.966z"/>
<circle style="fill:#FFDC64;" cx="429.42" cy="154.68" r="66.06"/>
<path style="fill:#FFC850;" d="M454.194,195.966c-36.486,0-66.065-29.578-66.065-66.065c0-11.878,3.177-22.995,8.663-32.627
	c-19.954,11.368-33.438,32.792-33.438,57.401c0,36.486,29.579,66.065,66.065,66.065c24.609,0,46.032-13.483,57.401-33.438
	C477.189,192.789,466.071,195.966,454.194,195.966z"/>
<path style="fill:#4B3F4E;" d="M66.065,187.708L66.065,187.708c-13.626,0-24.774-11.148-24.774-24.774V138.16
	c0-13.626,11.148-24.774,24.774-24.774l0,0c13.626,0,24.774,11.148,24.774,24.774v24.774
	C90.839,176.56,79.69,187.708,66.065,187.708z"/>
<g>
	<path style="fill:#7DAA55;" d="M222.968,237.256c-2.113,0-4.226-0.806-5.839-2.419c-3.226-3.226-3.226-8.452,0-11.677l8.258-8.258
		c3.226-3.226,8.452-3.226,11.677,0c3.226,3.226,3.226,8.452,0,11.677l-8.258,8.258C227.194,236.45,225.081,237.256,222.968,237.256
		z"/>
	<path style="fill:#7DAA55;" d="M289.032,237.256c-2.113,0-4.226-0.806-5.839-2.419l-8.258-8.258c-3.226-3.226-3.226-8.452,0-11.677
		s8.452-3.226,11.677,0l8.258,8.258c3.226,3.226,3.226,8.452,0,11.677C293.258,236.45,291.145,237.256,289.032,237.256z"/>
</g>
<path style="fill:#5D5360;" d="M66.799,113.46c-0.445,1.277-0.735,2.627-0.735,4.054v33.032c0,6.841,5.546,12.387,12.387,12.387
	s12.387-5.546,12.387-12.387v-12.387C90.839,124.785,80.081,113.861,66.799,113.46z"/>
<circle style="fill:#FFFFFF;" cx="66.06" cy="138.16" r="8.258"/>
<path style="fill:#4B3F4E;" d="M445.936,187.708L445.936,187.708c-13.626,0-24.774-11.148-24.774-24.774V138.16
	c0-13.626,11.148-24.774,24.774-24.774l0,0c13.626,0,24.774,11.148,24.774,24.774v24.774
	C470.71,176.56,459.561,187.708,445.936,187.708z"/>
<path style="fill:#5D5360;" d="M446.67,113.46c-0.445,1.277-0.735,2.627-0.735,4.054v33.032c0,6.841,5.546,12.387,12.387,12.387
	s12.387-5.546,12.387-12.387v-12.387C470.71,124.785,459.952,113.861,446.67,113.46z"/>
<circle style="fill:#FFFFFF;" cx="445.94" cy="138.16" r="8.258"/>
<path style="fill:#E6646E;" d="M352.154,344.284c-22.712-14.908-57.332-24.447-96.154-24.447s-73.443,9.539-96.154,24.447
	c35.548,15.01,70.302,25.101,96.154,25.101S316.606,359.294,352.154,344.284z"/>
<path style="fill:#FF8087;" d="M225.223,365.71c11.136,2.34,21.543,3.675,30.777,3.675c25.852,0,60.606-10.092,96.154-25.101
	c-16.154-10.604-38.4-18.409-63.832-22.08C264.235,327.826,242.506,343.339,225.223,365.71z"/>
<g>
</g>
<g>
</g>
<g>
</g>
<g>
</g>
<g>
</g>
<g>
</g>
<g>
</g>
<g>
</g>
<g>
</g>
<g>
</g>
<g>
</g>
<g>
</g>
<g>
</g>
<g>
</g>
<g>
</g>
</svg>
