<svg enable-background="new 0 0 330 330" viewBox="0 0 330 330" xmlns="http://www.w3.org/2000/svg"><path d="m315 0h-300c-8.284 0-15 6.716-15 15v300c0 8.284 6.716 15 15 15h300c8.284 0 15-6.716 15-15v-300c0-8.284-6.716-15-15-15zm-15 300h-270v-270h270z"/><path d="m108.773 243.417c2.813 2.813 6.629 4.393 10.607 4.393s7.794-1.581 10.606-4.393l135.62-135.621c5.858-5.858 5.858-15.355 0-21.213-5.857-5.858-15.355-5.858-21.213 0l-125.013 125.014-33.773-33.774c-5.858-5.858-15.355-5.857-21.213 0-5.858 5.858-5.858 15.355 0 21.213z"/></svg>