<svg height="448" viewBox="0 0 512.06635 448" width="512.06635" xmlns="http://www.w3.org/2000/svg"><g transform="translate(-2.103111 -62.372886)"><path d="m258.16948 62.372886c-141.4 0-256.0000012 93.100004-256.0000012 208.000004 0 47.6 19.9000002 91.2 52.9000002 126.3-14.9 39.4-45.9000002 72.8-46.4000002 73.2-6.6 7-8.39999999 17.2-4.6 26 3.8 8.8 12.5000002 14.5 22.1000002 14.5 61.5 0 110.000001-25.7 139.100001-46.3 28.9 9.1 60.1 14.3 92.9 14.3 141.4 0 256-93.1 256-208s-114.6-208.000004-256-208.000004z"/><path d="m260.33898 448.73012c-30.04185 0-59.74616-4.61317-88.21278-13.61447l-25.5412-8.10117-21.94068 15.52724c-16.08983 11.36415-38.14302 24.07849-64.696866 32.62973 8.21369-13.61447 16.202335-28.91669 22.390743-45.23155l11.926728-31.61708-23.178369-24.52855c-20.365438-21.71565-44.781475-57.60835-44.781475-105.09022 0-99.23938 104.977709-180.026078 234.033899-180.026078s234.0339 80.786698 234.0339 180.026078c0 99.23937-104.97771 180.02607-234.0339 180.02607z" fill="#fff" stroke-width="1.125163"/><text font-family="sans-serif" font-size="74.666664" letter-spacing="0" word-spacing="0" x="-158.74913" xml:space="preserve" y="261.31601"><tspan x="50.849815" y="261.31601"><tspan x="50.849815" y="261.31601">This seems </tspan></tspan><tspan x="133.90189" y="354.64932"><tspan x="133.90189" y="354.64932">empty.</tspan></tspan></text></g></svg>