<svg enable-background="new 0 0 380.65 380.65" viewBox="0 0 380.65 380.65" xmlns="http://www.w3.org/2000/svg"><path d="m310.805 268.65h-44.84c-9.267-.006-18.377 2.392-26.44 6.96-6.863 3.893-12.8 9.229-17.4 15.64-3.064-.535-6.169-.802-9.28-.8h-44.88c-3.111-.003-6.216.265-9.28.8-4.599-6.412-10.536-11.748-17.4-15.64-8.063-4.568-17.173-6.966-26.44-6.96h-44.84c-29.796.066-53.934 24.204-54 54v30.44c.022 3.188 2.612 5.76 5.8 5.76h92v16c0 3.203 2.597 5.8 5.8 5.8h141.44c3.203 0 5.8-2.597 5.8-5.8v-16h92c3.203 0 5.8-2.597 5.8-5.8v-30.4c-.066-29.734-24.107-53.846-53.84-54zm-196.4 70.6v1.24 1.64 2.32 2.8h-86.8v-24.6c.066-23.39 19.01-42.334 42.4-42.4h44.84c7.261-.008 14.4 1.866 20.72 5.44 4.237 2.396 8.038 5.494 11.24 9.16-18.049 7.834-30.445 24.822-32.4 44.4zm140.72 5.2v24.64h-129.56v-25.08c0-.453 0-.893 0-1.32 0-.693 0-1.387 0-2.08v-1.04c0-.4 0-.8 0-1.2v-1.28-.4-.44-.88l.24-.96.4-1.44.28-.96c5.746-17.415 21.982-29.206 40.32-29.28l1.16-.64h44.88c21.297.078 39.258 15.885 42.04 37 0 .88 0 1.76.24 2.64zm98.08 2.84h-86.4v-3.48c0-.44 0-.88 0-1.32 0-.453 0-.907 0-1.36 0-.64 0-1.32 0-1.96v-.6-.68-1.24-.2-.48-.44-.28-.52-.56-.28-.36-.36-.36-.88-.4-.52-.52l-.28-1v-.4-.36-.28-.4-.52l-.56-1.56c-5.212-13.855-15.842-24.99-29.44-30.84 2.406-3.562 5.332-6.744 8.68-9.44 6.32-3.574 13.459-5.448 20.72-5.44h44.88c23.389.066 42.334 19.01 42.4 42.4z"/><circle cx="190.645" cy="77.85" r="6.56"/><path d="m121.285 189.17c-7.643-7.688-18.039-12.008-28.88-12-22.555-.02-40.856 18.248-40.876 40.804-.02 22.555 18.248 40.856 40.804 40.876s40.856-18.248 40.876-40.804c.009-10.825-4.279-21.211-11.924-28.876zm-8.2 49.48c-11.417 11.421-29.93 11.425-41.352.008-11.421-11.417-11.425-29.93-.008-41.352 11.417-11.421 29.93-11.425 41.352-.008 5.484 5.482 8.566 12.918 8.568 20.672.011 7.758-3.069 15.2-8.56 20.68z"/><circle cx="233.045" cy="77.85" r="6.56"/><path d="m258.725 22.73c-19.566-15.048-43.638-23.053-68.32-22.72-24.682-.333-48.753 7.672-68.32 22.72-17.92 14.32-29 34.24-29 56.28.022 11.194 2.87 22.201 8.28 32 5.148 9.257 12.066 17.412 20.36 24l-4.6 30.6c-.479 3.145 1.683 6.082 4.828 6.561 1.303.198 2.634-.056 3.772-.721l31.28-18.24c4.957 1.474 10.009 2.61 15.12 3.4 6.062.934 12.187 1.402 18.32 1.4 24.682.333 48.754-7.672 68.32-22.72 17.88-14.36 28.96-34.24 28.96-56.28s-11.08-41.96-29-56.28zm-7.2 103.6c-17.545 13.349-39.077 20.395-61.12 20-5.53.008-11.053-.406-16.52-1.24-5.424-.811-10.774-2.055-16-3.72-1.551-.489-3.236-.301-4.64.52l-22.84 13.48 3.32-22c.317-2.149-.594-4.295-2.36-5.56-8.204-5.937-15.027-13.578-20-22.4-4.448-8.089-6.786-17.169-6.8-26.4 0-18.4 9.4-35.12 24.6-47.28 17.545-13.349 39.077-20.395 61.12-20 22.043-.395 43.575 6.651 61.12 20 15.2 12 24.6 28.88 24.6 47.28s-9.28 35.12-24.48 47.32z"/><path d="m288.438 177.13c-22.555-.02-40.856 18.248-40.876 40.804-.01 10.825 4.279 21.212 11.924 28.876 7.643 7.688 18.039 12.008 28.88 12 22.555.02 40.856-18.248 40.876-40.804s-18.249-40.856-40.804-40.876zm20.647 61.503c-11.417 11.421-29.93 11.425-41.352.008-5.484-5.482-8.566-12.918-8.568-20.672-.011-7.758 3.069-15.2 8.56-20.68 11.417-11.421 29.93-11.425 41.352-.008 11.421 11.417 11.425 29.931.008 41.352z"/><circle cx="148.245" cy="77.85" r="6.56"/><path d="m219.225 210.83c-7.652-7.626-18.017-11.905-28.82-11.9-10.841-.008-21.237 4.312-28.88 12-15.906 15.961-15.861 41.794.1 57.7s41.794 15.861 57.7-.1 15.861-41.794-.1-57.7zm-28.828 58.212c-16.149-.005-29.236-13.1-29.232-29.248s13.1-29.236 29.248-29.232c7.754.002 15.19 3.084 20.672 8.568 5.491 5.48 8.571 12.922 8.56 20.68-.005 16.149-13.1 29.236-29.248 29.232z"/></svg>