<svg viewBox="0 0 318.68848 433.15696" xmlns="http://www.w3.org/2000/svg" xmlns:xlink="http://www.w3.org/1999/xlink"><linearGradient id="a"><stop offset="0" stop-color="#fefefc"/><stop offset=".75734" stop-color="#fefefc"/><stop offset="1" stop-color="#d4d4d4"/></linearGradient><radialGradient cx="223.2" cy="137.66" gradientTransform="matrix(1.0858 -.034312 .039438 1.248 -154.54 -26.543)" gradientUnits="userSpaceOnUse" r="14.572" xlink:href="#a"/><radialGradient cx="223.2" cy="137.66" gradientTransform="matrix(.81524 -.034312 .029611 1.248 -129.44 -26.543)" gradientUnits="userSpaceOnUse" r="14.572" xlink:href="#a"/><linearGradient id="b"><stop offset="0" stop-color="#3e2a06"/><stop offset="1" stop-color="#ad780a"/></linearGradient><linearGradient gradientTransform="matrix(.87491 0 0 .81149 60.367 62.587)" gradientUnits="userSpaceOnUse" x1="442.04" x2="490.12" xlink:href="#b" y1="371.54" y2="293.59"/><linearGradient gradientUnits="userSpaceOnUse" x1="442.040004" x2="490.120004" xlink:href="#b" y1="371.54001" y2="293.59001"/><clipPath id="c"><path d="m137.58 281.02c1.5993-.66295 3.3982-.78361 5.1007-.46963s3.3114 1.0495 4.7434 2.0224c2.864 1.9458 4.9882 4.7777 7.0226 7.5795 4.6719 6.4341 9.1687 13.002 13.245 19.829 3.3064 5.5377 6.3435 11.257 10.164 16.453 2.494 3.3919 5.3066 6.5395 7.813 9.9222s4.7279 7.0559 5.8393 11.117c1.4441 5.2765.88463 11.093-1.6267 15.953-1.7666 3.419-4.4765 6.3523-7.7724 8.339-3.296 1.9867-7.1706 3.0144-11.016 2.8702-6.1141-.2293-11.699-3.2852-17.384-5.5491-11.581-4.6125-24.16-6.0594-36.097-9.6517-3.6686-1.104-7.2758-2.4107-10.97-3.4263-1.6412-.45122-3.3087-.8482-4.8588-1.5514-1.5501-.70325-2.9995-1.7491-3.8617-3.2168-.66639-1.1344-.94839-2.47-.93019-3.7855s.32589-2.6145.77382-3.8516c.89585-2.4741 2.3433-4.7137 3.3202-7.157 1.5951-3.9894 1.8817-8.3884 1.6666-12.679-.21511-4.291-.91078-8.5448-1.2045-12.831-.13118-1.9141-.18066-3.8526.18479-5.736s1.1758-3.7246 2.5577-5.0554c1.2741-1.2269 2.9649-1.9553 4.6964-2.3165s3.5153-.37747 5.2837-.33762c1.7683.0399 3.5407.13425 5.3035-.0106 1.7628-.14488 3.5335-.54055 5.0691-1.4183 1.46-.83447 2.6543-2.0745 3.6437-3.4342s1.7891-2.8457 2.6089-4.314c.81983-1.4682 1.6683-2.9315 2.7416-4.2261 1.0732-1.2946 2.3892-2.423 3.9427-3.067"/></clipPath><filter id="d" color-interpolation-filters="sRGB" height="1.217" width="1.215" x="-.10751" y="-.1085"><feGaussianBlur stdDeviation="3.9237191"/></filter><filter id="e" color-interpolation-filters="sRGB"><feGaussianBlur stdDeviation="2.4365744"/></filter><filter id="f" color-interpolation-filters="sRGB"><feGaussianBlur stdDeviation=".3702557"/></filter><clipPath id="g"><path d="m248.06 184.61s-5.1063 6.3453-7.897 10.247-5.7365 6.6488-8.5873 10.751c-2.8508 4.1026-7.3648 9.4316-9.4491 13.93-2.0843 4.4988-2.3205 9.0356-4.265 13.849-1.9445 4.8137-3.7013 10.642-5.9707 15.336-2.2694 4.6943-5.3709 9.6847-6.9389 13.536-1.568 3.8508-3.8112 5.7238-4.1078 10.221-.29663 4.4969-.57747 8.3175 3.7715 16.772s17.236 22.007 24.242 27.925c7.0055 5.9175 9.3913 7.2249 14.602 8.526 5.2111 1.301 13.856 2.9981 16.729-1.2702 2.8725-4.2683 2.2719-5.9648-.74863-10.666-3.0206-4.7013-4.8247-5.3021-9.7964-9.5734s-18.637-14.873-22.682-19.24c-4.0452-4.3673-7.1073-3.4116-5.5302-6.2841s-2.2074-4.0086-2.6578-7.6925c-.76361-6.2451.9436-18.71 1.4596-22.133.51598-3.423 1.2237-2.9245 3.5182-8.0396s4.1242-8.6244 7.0493-13.467c2.9251-4.8429 8.6249-10.128 11.151-15.278 2.5265-5.1502 3.5039-10.721 4.3618-15.318s1.7461-12.13 1.7461-12.13z"/></clipPath><filter id="h" color-interpolation-filters="sRGB" height="1.0853" width="1.2021" x="-.10104" y="-.04267"><feGaussianBlur stdDeviation="1.1322032"/></filter><linearGradient id="i"><stop offset="0" stop-color="#7c7c7c"/><stop offset="1" stop-color="#7c7c7c" stop-opacity=".32941"/></linearGradient><clipPath id="j"><path d="m386.19 285.33c-.40516-1.1037-1.1184-2.0816-1.9907-2.8699-.87226-.78832-1.9005-1.3923-2.9828-1.8516-2.1646-.91852-4.5205-1.2615-6.8315-1.6956-2.1792-.40931-4.3418-.90631-6.5278-1.2773-2.2714-.38551-4.6179-.63213-6.8653-.1253-1.9658.44333-3.7845 1.4588-5.2717 2.8186s-2.6491 3.0564-3.485 4.8901c-1.4722 3.2295-1.9345 6.865-1.6539 10.403.20882 2.6332.87532 5.3459 2.6088 7.3391 1.4006 1.6105 3.3873 2.6153 5.434 3.2209 3.525 1.0432 7.3666.98822 10.86-.1553 5.7669-1.9311 10.876-5.7739 14.33-10.779 1.1386-1.6496 2.1122-3.4481 2.5532-5.4034.33597-1.4896.34831-3.0811-.1779-4.5146"/></clipPath><filter id="k" color-interpolation-filters="sRGB" height="1.3012" width="1.1409" x="-.070456" y="-.1506"><feGaussianBlur stdDeviation="1.0252435"/></filter><clipPath id="l"><path d="m386.19 285.33c-.40516-1.1037-1.1184-2.0816-1.9907-2.8699-.87226-.78832-1.9005-1.3923-2.9828-1.8516-2.1646-.91852-4.5205-1.2615-6.8315-1.6956-2.1792-.40931-4.3418-.90631-6.5278-1.2773-2.2714-.38551-4.6179-.63213-6.8653-.1253-1.9658.44333-3.7845 1.4588-5.2717 2.8186s-2.6491 3.0564-3.485 4.8901c-1.4722 3.2295-1.9345 6.865-1.6539 10.403.20882 2.6332.87532 5.3459 2.6088 7.3391 1.4006 1.6105 3.3873 2.6153 5.434 3.2209 3.525 1.0432 7.3666.98822 10.86-.1553 5.7669-1.9311 10.876-5.7739 14.33-10.779 1.1386-1.6496 2.1122-3.4481 2.5532-5.4034.33597-1.4896.34831-3.0811-.1779-4.5146"/></clipPath><filter id="m" color-interpolation-filters="sRGB" height="1.4682" width="1.401" x="-.20051" y="-.23409"><feGaussianBlur stdDeviation="2.8444356"/></filter><filter id="n" color-interpolation-filters="sRGB" height="1.2134" width="1.1828" x="-.091411" y="-.10672"><feGaussianBlur stdDeviation="1.2967831"/></filter><filter id="o" color-interpolation-filters="sRGB" height="1.5474" width="1.9387" x="-.46933" y="-.27372"><feGaussianBlur stdDeviation=".85991809"/></filter><filter id="p" color-interpolation-filters="sRGB" height="1.9645" width="2.2078" x="-.6039" y="-.48226"><feGaussianBlur stdDeviation="2.6400036"/></filter><filter id="q" color-interpolation-filters="sRGB"><feGaussianBlur stdDeviation="2.2091576"/></filter><clipPath id="r"><path d="m516.01 331.88c.90859 1.5969-1.5702 3.3877-2.8158 4.7383-2.7421 2.973-6.451 4.9018-9.8965 7.0198-5.9137 3.6354-12.619 5.903-18.42 9.7165-3.8832 2.553-7.3281 5.7222-10.86 8.7424-3.0221 2.5841-5.482 5.8764-8.8325 8.0177-3.3519 2.1422-7.0437 4.1541-10.991 4.6502-4.783.60114-9.8722-.25577-14.299-2.1642-3.0947-1.3341-6.1611-3.3814-7.963-6.2293-1.8129-2.8652-2.0609-6.5375-2.2327-9.9238-.30734-6.0603 1.3625-12.06 2.1785-18.073.67882-5.0024 1.8531-9.9432 2.2601-14.975.73946-9.1418-.7797-18.408.3199-27.513.35468-2.937-.181-6.6588 2.0124-8.644 2.0384-1.8449 5.4306-1.1212 8.1793-1.0625 3.3449.0714 6.6322.95108 9.8892 1.7166 2.0561.48325 3.9982 1.4114 6.0722 1.8108 3.4403.66255 6.9657 1.0662 10.467.95192 3.7852-.12356 7.4366-1.7964 11.224-1.7647 1.5518.013 3.1236.28186 4.5865.79985 1.4827.52499 2.9879 1.2062 4.1228 2.2951.86547.83038 1.4293 1.9568 1.8787 3.0688.67163 1.662.8942 3.4778 1.167 5.2494.24238 1.5739-.1531 3.2714.41433 4.7593 1.8302 4.7992 5.5767 8.7271 9.2249 12.343 1.7428 1.9346 4.0304 3.534 6.1671 4.8284 2.2689 1.3744 4.3675 2.4499 5.4628 4.816.65901 1.4852-.54371 3.761.68307 4.8264z"/></clipPath><clipPath id="s"><path d="m516.01 331.88c.90859 1.5969-1.5702 3.3877-2.8158 4.7383-2.7421 2.973-6.451 4.9018-9.8965 7.0198-5.9137 3.6354-12.619 5.903-18.42 9.7165-3.8832 2.553-7.3281 5.7222-10.86 8.7424-3.0221 2.5841-5.482 5.8764-8.8325 8.0177-3.3519 2.1422-7.0437 4.1541-10.991 4.6502-4.783.60114-9.8722-.25577-14.299-2.1642-3.0947-1.3341-6.1611-3.3814-7.963-6.2293-1.8129-2.8652-2.0609-6.5375-2.2327-9.9238-.30734-6.0603 1.3625-12.06 2.1785-18.073.67882-5.0024 1.8531-9.9432 2.2601-14.975.73946-9.1418-.7797-18.408.3199-27.513.35468-2.937-.181-6.6588 2.0124-8.644 2.0384-1.8449 5.4306-1.1212 8.1793-1.0625 3.3449.0714 6.6322.95108 9.8892 1.7166 2.0561.48325 3.9982 1.4114 6.0722 1.8108 3.4403.66255 6.9657 1.0662 10.467.95192 3.7852-.12356 7.4366-1.7964 11.224-1.7647 1.5518.013 3.1236.28186 4.5865.79985 1.4827.52499 2.9879 1.2062 4.1228 2.2951.86547.83038 1.4293 1.9568 1.8787 3.0688.67163 1.662.8942 3.4778 1.167 5.2494.24238 1.5739-.1531 3.2714.41433 4.7593 1.8302 4.7992 5.5767 8.7271 9.2249 12.343 1.7428 1.9346 4.0304 3.534 6.1671 4.8284 2.2689 1.3744 4.3675 2.4499 5.4628 4.816.65901 1.4852-.54371 3.761.68307 4.8264z"/></clipPath><filter id="t" color-interpolation-filters="sRGB" height="1.286" width="1.29" x="-.14502" y="-.143"><feGaussianBlur stdDeviation="4.7787162"/></filter><clipPath id="u"><path d="m511.83 331.9c.79493 1.2958-1.3738 2.7491-2.4636 3.845-2.3991 2.4126-5.644 3.9777-8.6586 5.6965-5.174 2.9501-11.041 4.7902-16.116 7.8848-3.3974 2.0717-6.4114 4.6435-9.5017 7.0943-2.6441 2.097-4.7963 4.7686-7.7276 6.5063-2.9326 1.7384-6.1626 3.371-9.6158 3.7736-4.1847.48781-8.6373-.20756-12.51-1.7562-2.7076-1.0826-5.3904-2.744-6.9669-5.055-1.5861-2.3251-1.8031-5.3051-1.9534-8.053-.2689-4.9179 1.1921-9.7869 1.906-14.666.59391-4.0594 1.6213-8.0688 1.9774-12.152.64696-7.4185-.68217-14.938.27989-22.327.31031-2.3834-.15836-5.4035 1.7606-7.0145 1.7834-1.4972 4.7513-.90984 7.1562-.86223 2.9265.0579 5.8026.77179 8.6522 1.393 1.7989.39215 3.498 1.1453 5.3126 1.4694 3.01.53765 6.0944.86523 9.158.77247 3.3117-.10027 6.5064-1.4577 9.8197-1.4321 1.3577.0105 2.7329.22873 4.0128.64907 1.2972.42602 2.6141.9788 3.6071 1.8625.75721.67384 1.2505 1.5879 1.6437 2.4903.58762 1.3487.78235 2.8222 1.021 4.2599.21206 1.2772-.13395 2.6547.36251 3.8621 1.6013 3.8945 4.8791 7.082 8.071 10.016 1.5248 1.5699 3.5263 2.8678 5.3956 3.9182 1.9851 1.1153 3.8212 1.9881 4.7795 3.9081.57658 1.2052-.47569 3.052.59763 3.9165z"/></clipPath><filter id="v" color-interpolation-filters="sRGB" height="1.2499" width="1.2306" x="-.11529" y="-.12495"><feGaussianBlur stdDeviation="3.1725155"/></filter><filter id="w" color-interpolation-filters="sRGB" height="1.2585" width="1.0418" x="-.020912" y="-.12927"><feGaussianBlur stdDeviation=".47946431"/></filter><filter id="x" color-interpolation-filters="sRGB" height="1.3189" width="1.3551" x="-.17755" y="-.15943"><feGaussianBlur stdDeviation=".90083196"/></filter><filter id="y" color-interpolation-filters="sRGB" height="1.1156" width="2.6332" x="-.8166" y="-.057824"><feGaussianBlur stdDeviation="1.4463082"/></filter><linearGradient id="z"><stop offset="0"/><stop offset="1" stop-opacity=".24887"/></linearGradient><filter id="A" color-interpolation-filters="sRGB"><feGaussianBlur stdDeviation=".7854602"/></filter><filter id="B" color-interpolation-filters="sRGB"><feGaussianBlur stdDeviation="1.1383167"/></filter><filter id="C" color-interpolation-filters="sRGB"><feGaussianBlur stdDeviation=".6434074"/></filter><clipPath id="D"><path d="m304.85 225.45c6.0163 4.9234 9.7771 12.317 10.943 20.003 1.8254 12.031-2.3464 24.075-6.4459 35.533-.81749 2.2848-1.6398 4.5903-1.9647 6.9951s-.11897 4.9482 1.0295 7.0859c1.3028 2.425 3.7323 4.1247 6.3668 4.9229 2.5888.78438 5.3936.76103 8.0147.0922 2.621-.66882 5.061-1.9677 7.1872-3.64 5.48-4.31 8.758-10.986 10.01-17.844 1.2524-6.8584.63908-13.929-.551-20.798-1.6231-9.3692-4.309-18.54-7.74-27.408-2.5177-6.5073-5.4679-12.911-9.6175-18.52-4.0461-5.4695-9.1621-10.09-13.103-15.635-2.7321-3.8441-4.8998-8.131-8.1917-11.508-1.6459-1.6886-3.5765-3.1353-5.7698-4.0014s-4.6636-1.1245-6.9325-.48249c-1.5047.42573-2.8919 1.2374-4.0379 2.3014s-2.0527 2.3764-2.6928 3.8031c-1.2802 2.8535-1.4772 6.1124-.96512 9.1977.66114 3.9834 2.4441 7.6933 4.4657 11.189 2.274 3.9317 4.918 7.7193 8.3844 10.654 3.5985 3.0466 7.9616 5.0741 11.611 8.0602"/></clipPath><filter id="E" color-interpolation-filters="sRGB" height="1.0801" width="1.2351" x="-.11753" y="-.040046"><feGaussianBlur stdDeviation="1.352085"/></filter><clipPath id="F"><path d="m54.232 122.36c-3.792 4.7895-8.5176 11.691-8.1927 17.25s3.8602 13.935 8.3754 16 5.7544.0125 8.329-2.5c2.5747-2.5125 3.8587-7.3476 4.0058-12.25.14713-4.9024-3.0353-11.919-5.4386-15.25s-3.287-8.0395-7.079-3.25z"/></clipPath><filter id="G" color-interpolation-filters="sRGB" height="1.4299" width="1.3097" x="-.15483" y="-.21494"><feGaussianBlur stdDeviation=".89858666"/></filter><filter id="H" color-interpolation-filters="sRGB"><feGaussianBlur stdDeviation=".75821369"/></filter><filter id="I" color-interpolation-filters="sRGB" height="1.2606" width="1.3219" x="-.16096" y="-.13028"><feGaussianBlur stdDeviation=".84878819"/></filter><linearGradient id="J"><stop offset="0" stop-color="#3a2903"/><stop offset=".55473" stop-color="#735208"/><stop offset="1" stop-color="#ac8c04"/></linearGradient><filter id="K" color-interpolation-filters="sRGB"><feGaussianBlur stdDeviation=".11039302"/></filter><filter id="L" color-interpolation-filters="sRGB" height="1.2115" width="1.2329" x="-.11645" y="-.10573"><feGaussianBlur stdDeviation=".11039302"/></filter><filter id="M" color-interpolation-filters="sRGB" height="1.2722" width="1.2146" x="-.1073" y="-.13611"><feGaussianBlur stdDeviation=".2640625"/></filter><filter id="N" color-interpolation-filters="sRGB" height="1.2921" width="1.4689" x="-.23447" y="-.14607"><feGaussianBlur stdDeviation=".51262416"/></filter><linearGradient id="O"><stop offset="0" stop-color="#646464" stop-opacity="0"/><stop offset=".30628" stop-color="#646464" stop-opacity=".58252"/><stop offset=".47" stop-color="#646464"/><stop offset=".72834" stop-color="#646464" stop-opacity=".25728"/><stop offset="1" stop-color="#646464" stop-opacity="0"/></linearGradient><filter id="P" color-interpolation-filters="sRGB"><feGaussianBlur stdDeviation=".13475369"/></filter><filter id="Q" color-interpolation-filters="sRGB"><feGaussianBlur stdDeviation=".1475"/></filter><clipPath id="R"><path d="m85.75 122.36c-2.5474 2.1272-5.2081 4.5991-6.25 7.75-1.3091 3.9592-1.6334 8.917.5 12.5 3.919 6.5819 12.384 13.851 19.75 11.75 4.8745-1.3905 6.1075-8.5102 7-13.5.59149-3.3068.59578-7.1932-1.25-10-3.6123-5.493-10.426-9.8936-17-10-1.044-.0169-1.9485.83074-2.75 1.5z"/></clipPath><filter id="S" color-interpolation-filters="sRGB" height="1.4184" width="1.3159" x="-.15795" y="-.2092"><feGaussianBlur stdDeviation=".24891089"/></filter><filter id="T" color-interpolation-filters="sRGB" height="1.3627" width="1.3574" x="-.17868" y="-.18134"><feGaussianBlur stdDeviation=".51947927"/></filter><filter id="U" color-interpolation-filters="sRGB" height="1.6165" width="1.5844" x="-.29218" y="-.30825"><feGaussianBlur stdDeviation="1.7403319"/></filter><filter id="V" color-interpolation-filters="sRGB" height="1.2148" width="1.1083" x="-.054157" y="-.10738"><feGaussianBlur stdDeviation="1.3605322"/></filter><filter id="W" color-interpolation-filters="sRGB"><feGaussianBlur stdDeviation=".93152507"/></filter><filter id="X" color-interpolation-filters="sRGB" height="1.2584" width="1.1528" x="-.076378" y="-.12919"><feGaussianBlur stdDeviation="2.0355046"/></filter><radialGradient id="Y" cx="223.2" cy="137.66" gradientTransform="matrix(.81524 -.034312 .029611 1.248 -208.44 -35.543)" gradientUnits="userSpaceOnUse" r="14.572" xlink:href="#a"/><radialGradient id="Z" cx="223.2" cy="137.66" gradientTransform="matrix(1.0858 -.034312 .039438 1.248 -233.54 -35.543)" gradientUnits="userSpaceOnUse" r="14.572" xlink:href="#a"/><radialGradient id="aa" cx="275.54" cy="150.65" gradientTransform="matrix(.69785 -.50717 .46034 .63341 -271.1 183.03)" gradientUnits="userSpaceOnUse" r="15.382"><stop offset="0" stop-color="#020204"/><stop offset=".73448" stop-color="#020204"/><stop offset="1" stop-color="#5c5c5c"/></radialGradient><linearGradient id="ab" gradientUnits="userSpaceOnUse" x1="303.02" x2="309.73" y1="132.77" y2="140.72"><stop offset="0" stop-color="#949494" stop-opacity=".39216"/><stop offset=".5" stop-color="#949494"/><stop offset="1" stop-color="#949494" stop-opacity=".39216"/></linearGradient><linearGradient id="ac" gradientUnits="userSpaceOnUse" x1="87.25" x2="108.62" y1="119.99" y2="132.49"><stop offset="0" stop-color="#747474"/><stop offset=".125" stop-color="#8c8c8c"/><stop offset=".25" stop-color="#a4a4a4"/><stop offset=".5" stop-color="#d4d4d4"/><stop offset=".61919" stop-color="#d4d4d4"/><stop offset="1" stop-color="#7c7c7c"/></linearGradient><linearGradient id="ad" gradientUnits="userSpaceOnUse" x1="15.51" x2="29.74" xlink:href="#O" y1="105.56" y2="119"/><linearGradient id="ae" gradientUnits="userSpaceOnUse" x1="-25.77" x2="-12.37" xlink:href="#O" y1="106.67" y2="119.57"/><linearGradient id="af" gradientUnits="userSpaceOnUse" x1="164.05" x2="169.88" y1="132.06" y2="142.49"><stop offset="0" stop-color="#757574" stop-opacity="0"/><stop offset=".26291" stop-color="#757574"/><stop offset=".5" stop-color="#757574"/><stop offset="1" stop-color="#757574" stop-opacity="0"/></linearGradient><radialGradient id="ag" cx="294.48" cy="193.1" gradientTransform="matrix(.93619 -.3864 .27133 .65739 -244.48 146.72)" gradientUnits="userSpaceOnUse" r="31.111"><stop offset="0" stop-color="#d2940a"/><stop offset=".75144" stop-color="#d89c08"/><stop offset=".86579" stop-color="#b67e07"/><stop offset="1" stop-color="#946106"/></radialGradient><linearGradient id="ah" gradientUnits="userSpaceOnUse" x1="46.86" x2="103.34" y1="158.31" y2="157.87"><stop offset="0" stop-color="#ad780a"/><stop offset=".11973" stop-color="#d89e08"/><stop offset=".25514" stop-color="#edb80b"/><stop offset=".39194" stop-color="#ebc80d"/><stop offset=".52741" stop-color="#f5d838"/><stop offset=".76907" stop-color="#f6d811"/><stop offset="1" stop-color="#f5cd31"/></linearGradient><radialGradient id="ai" cx="77.672" cy="147.09" gradientTransform="matrix(1 0 0 .58333 -.000035 61.416)" gradientUnits="userSpaceOnUse" r="3.2301" xlink:href="#J"/><radialGradient id="aj" cx="63.125" cy="147.44" gradientTransform="matrix(1 0 0 1.0751 0 -11.094)" gradientUnits="userSpaceOnUse" r="1.535" xlink:href="#J"/><linearGradient id="ak" gradientUnits="userSpaceOnUse" x1="243.03" x2="243.47" y1="157.02" y2="159.77"><stop offset="0" stop-color="#f5ce2d"/><stop offset="1" stop-color="#d79b08"/></linearGradient><radialGradient id="al" cx="268.07" cy="126.53" gradientTransform="matrix(.20141 -.033161 .03065 .18616 -3.1264 114.04)" gradientUnits="userSpaceOnUse" r="35.511"><stop offset="0" stop-color="#c8c8c8"/><stop offset="1" stop-color="#797978"/></radialGradient><radialGradient id="am" cx="336.22" cy="220.54" gradientTransform="matrix(-.69844 0 0 .76336 166.31 50.22)" gradientUnits="userSpaceOnUse" r="27.391" xlink:href="#z"/><radialGradient id="an" cx="312.15" cy="236.37" gradientTransform="matrix(1 0 0 .76336 -289 41.22)" gradientUnits="userSpaceOnUse" r="27.391" xlink:href="#z"/><radialGradient id="ao" cx="275.55" cy="225.13" gradientTransform="matrix(1 0 0 1.0692 -289 -23.86)" gradientUnits="userSpaceOnUse" r="10.845" xlink:href="#z"/><linearGradient id="ap" gradientUnits="userSpaceOnUse" x1="28.29" x2="31.98" y1="323.9" y2="351.49"><stop offset="0"/><stop offset="1" stop-opacity="0"/></linearGradient><linearGradient id="aq" gradientUnits="userSpaceOnUse" x1="442.04" x2="490.12" xlink:href="#b" y1="371.54" y2="293.59"/><linearGradient id="ar" gradientUnits="userSpaceOnUse" x1="45.16" x2="43.75" y1="289.59" y2="302.32"><stop offset="0" stop-color="#f3cd0c"/><stop offset="1" stop-color="#f3cd0c" stop-opacity="0"/></linearGradient><radialGradient id="as" cx="363.34" cy="303.42" gradientTransform="matrix(1.3082 .35053 -.36795 1.3732 -310.51 -240.35)" gradientUnits="userSpaceOnUse" r="16.846"><stop offset="0" stop-color="#110800"/><stop offset=".59067" stop-color="#a65a00" stop-opacity=".8"/><stop offset="1" stop-color="#ff921e" stop-opacity="0"/></radialGradient><radialGradient id="at" cx="382.23" cy="246.86" gradientTransform="matrix(.36025 .1568 -.072468 .16649 260.62 181.94)" gradientUnits="userSpaceOnUse" r="20.538" xlink:href="#i"/><linearGradient id="au" gradientUnits="userSpaceOnUse" x1="358.5" x2="361.5" xlink:href="#i" y1="279.36" y2="279.24"/><linearGradient id="av" gradientUnits="userSpaceOnUse" x1="123.13" x2="170.86" y1="301.54" y2="381.62"><stop offset="0" stop-color="#b98309"/><stop offset="1" stop-color="#382605"/></linearGradient><linearGradient id="aw" gradientUnits="userSpaceOnUse" x1="171.03967" x2="186.06967" y1="322.2222" y2="350.5122"><stop offset="0" stop-color="#ebc40c"/><stop offset="1" stop-color="#ebc40c" stop-opacity="0"/></linearGradient><g transform="translate(122.01 60.032)"><g fill="#020204"><path d="m61.524 172.73c3.2564 7.0907 6.8911 14.003 10.121 21.106 6.2163 13.669 10.937 28.103 12.898 42.991 1.9615 14.888 1.105 30.258-3.5537 44.533-5.2584 16.113-15.239 30.448-27.47 42.181-14.468 13.88-33.04 24.581-53.074 25.37-13.054.51389-26.05-3.2184-37.611-9.303-9.7152-5.1133-18.584-11.927-25.66-20.321-7.0766-8.3936-12.33-18.387-14.763-29.093-2.996-13.183-1.6411-27.178 2.8938-39.914 3.2431-9.1082 8.0495-17.588 11.472-26.63 3.7398-9.8807 5.8284-20.43 10.783-29.761 4.4915-8.4585 11.226-15.686 14.804-24.57 2.137-5.3062 3.0636-11.005 4.4435-16.557 1.3799-5.5514 3.3119-11.144 7.0701-15.457 4.5286-5.1967 11.343-8.0144 18.191-8.8046 6.8476-.7902 13.778.27687 20.498 1.8085 5.3506 1.2194 10.635 2.7353 15.805 4.5743 4.4134 1.5697 8.7857 3.3976 12.602 6.1139 5.1989 3.7003 9.1603 8.9106 12.315 14.458 3.1549 5.5469 5.5705 11.475 8.2337 17.274z"/><path d="m4.0355 349.04c5.5008.31997 10.991.85447 16.439 1.6773 4.792.72368 9.5497 1.6701 14.26 2.8116 7.3771 1.7879 14.728 4.0679 22.316 4.2841 1.9973.0569 4.0103-.0321 5.9606-.46634 1.9503-.43428 3.8424-1.2255 5.4046-2.4713 2.3292-1.8575 3.81-4.6585 4.3571-7.587.54712-2.9285.20831-5.9759-.64929-8.8289-1.7152-5.7061-5.3897-10.575-8.4365-15.696-1.7447-2.9322-3.2995-5.9799-5.1891-8.8208-1.8896-2.841-4.1514-5.5011-7.0191-7.3498-3.9677-2.5578-8.8878-3.3919-13.585-2.9236-4.6974.46831-9.2004 2.1651-13.392 4.3356-5.8762 3.0425-11.407 7.2195-14.611 13.009-1.1152 2.0149-1.9253 4.1811-2.8725 6.2802s-2.0557 4.1657-3.6603 5.8176c-1.789 1.8417-4.112 3.084-5.9629 4.8634-.92547.8897-1.7355 1.9254-2.2099 3.1183s-.59165 2.5559-.15879 3.7645c.29684.8288.84108 1.5585 1.5109 2.1298.6698.57131 1.4622.98862 2.2928 1.2804 1.6612.58361 3.449.66943 5.2067.77167z"/><path d="m-12.313 348.69c-4.5839.10576-9.1201.92594-13.61 1.8541-4.2924.88724-8.5642 1.8755-12.804 2.9884-7.1539 1.878-14.317 4.1269-21.712 4.2841-1.9461.0414-3.9062-.065-5.8026-.50379-1.8965-.43874-3.733-1.2204-5.255-2.4338-2.3251-1.8537-3.8027-4.6494-4.3504-7.5721-.54765-2.9227-.2131-5.964.63533-8.814 1.6968-5.6999 5.3364-10.579 8.3158-15.726 1.693-2.9247 3.1872-5.9664 5.018-8.8069s4.0364-5.507 6.8599-7.3638c3.8484-2.5306 8.6468-3.3874 13.23-2.9356 4.5836.45184 8.9751 2.1398 13.017 4.3476 5.7065 3.1168 10.917 7.4063 14.216 13.009 2.3149 3.9308 3.6509 8.4246 6.356 12.098 1.4566 1.9779 3.2893 3.6862 4.5012 5.8227.60594 1.0683 1.0497 2.2454 1.1532 3.4692s-.15138 2.498-.84005 3.5149c-.45548.67259-1.0873 1.2166-1.7933 1.6184-.70601.40173-1.4853.66469-2.2804.83072-1.5903.33207-3.2313.28113-4.8555.3186z"/><path d="m-37.927 157.8c-.64417-7.7505-.48999-15.543-.7792-23.315-.27808-7.4728-.96642-14.942-.71488-22.416.25615-7.6107 1.5304-15.309 4.9139-22.131 3.385-6.8252 8.8788-12.608 15.585-16.222 6.3104-3.4007 13.566-4.8529 20.734-4.7749 9.7188.10569 19.464 3.0416 27.334 8.7441 4.9329 3.574 9.0847 8.1784 12.358 13.316 2.7934 4.3846 4.9634 9.1741 6.3252 14.191 2.7929 10.29 2.1306 21.148 2.6738 31.796.51481 10.092 2.1306 20.16 1.5813 30.25-.11929 2.1912-.35636 4.4338-1.333 6.399-.95178 1.9151-2.5681 3.4552-4.4247 4.5167s-3.9472 1.6657-6.0608 1.9918c-4.2271.65229-8.5486.2219-12.808.61684-6.1799.57309-12.075 2.8652-18.208 3.8135-7.3095 1.1302-14.757.32867-22.148.0336-2.9599-.11818-5.929-.15508-8.8683-.52354s-5.8695-1.081-8.4839-2.474c-1.6111-.85842-3.0934-1.975-4.2954-3.349s-2.119-3.0094-2.5769-4.7766c-.68734-2.6529-.32485-5.4462-.31523-8.1866.0088-2.5064-.28182-5.0027-.48942-7.5005z"/></g><path d="m-26.296 154.81c-1.0464 1.3114-1.7277 2.8873-2.1393 4.5137-.41153 1.6264-.56229 3.308-.62653 4.9845-.12849 3.3529.07646 6.7702-.81096 10.006-.94874 3.4595-3.076 6.4565-5.1576 9.378-3.6049 5.0592-7.2486 10.25-9.0271 16.202-1.0771 3.6047-1.4356 7.4226-1.0484 11.165-4.0353 5.9262-7.5289 12.221-10.423 18.781-4.3862 9.9416-7.3961 20.526-8.4546 31.341-1.2961 13.242.39758 26.862 5.6275 39.097 3.7813 8.8459 9.4177 16.944 16.686 23.247 3.6954 3.2047 7.7997 5.9394 12.19 8.0971 15.213 7.4771 34.013 7.491 48.973-.48031 7.8184-4.1661 14.418-10.258 20.781-16.422 3.8318-3.7121 7.6435-7.5125 10.567-11.976 5.6275-8.5924 7.5875-19.036 8.8054-29.234 2.1297-17.833 2.1984-36.67-5.6214-52.838-2.6922-5.5664-6.279-10.699-10.581-15.141-1.1455-7.7809-3.4064-15.397-6.6921-22.542-2.3705-5.155-5.2683-10.062-7.4708-15.291-.90422-2.1467-1.6899-4.3449-2.6935-6.447-1.0035-2.1021-2.2414-4.125-3.9245-5.7354-1.7234-1.6491-3.871-2.8182-6.1359-3.5663-2.265-.74806-4.6492-1.087-7.0315-1.2068-4.7646-.23966-9.5387.38348-14.306.19423-3.7948-.15066-7.5778-.81566-11.369-.59186-1.8956.1119-3.7909.45058-5.5503 1.1649s-3.3817 1.8171-4.5661 3.3014z" fill="#fdfdfb"/><path d="m-28.632 172.6c1.7029 4.9378 5.1304 9.152 9.1858 12.444 1.3487 1.0946 2.7822 2.1044 4.3662 2.817 1.5841.71257 3.3316 1.1194 5.0624.97245 1.695-.14396 3.3075-.80936 4.7887-1.6458 1.4813-.8364 2.856-1.8469 4.293-2.7572 2.4626-1.5602 5.0998-2.8214 7.6572-4.2209 3.0825-1.6869 6.0696-3.5901 8.6647-5.9593 1.1879-1.0845 2.2957-2.268 3.6075-3.1989 1.3118-.93094 2.883-1.6057 4.4878-1.4965 1.2039.0819 2.3329.59386 3.5125.84794.58979.12704 1.2008.18932 1.7972.0984.59643-.0909 1.1797-.34439 1.5979-.77928.51237-.53286.73641-1.2998.70961-2.0386-.0268-.73874-.28445-1.453-.62885-2.1071-.68881-1.3082-1.7345-2.4351-2.2002-3.8383-.4144-1.2487-.33045-2.5989-.29393-3.914s.0075-2.689-.5986-3.8567c-.46159-.88922-1.2361-1.5952-2.1216-2.0639-.88551-.46867-1.8786-.71001-2.8761-.80365-1.995-.18727-3.9939.19997-5.9945.31349-2.6558.1507-5.322-.18176-7.9772-.0221-3.3113.1991-6.557 1.1605-9.8743 1.1664-3.786.007-7.5681-1.2319-11.308-.63996-1.6046.25401-3.1348.8376-4.6757 1.3522s-3.1327.96724-4.7571.94371c-1.8442-.0267-3.6293-.66537-5.469-.79666-.91986-.0656-1.8625-.00018-2.7261.32326-.86362.32344-1.6445.92357-2.0683 1.7426-.24287.46932-.36319.99683-.38586 1.5248-.02266.52795.05026 1.057.17783 1.5698.25513 1.0256.72423 1.9828 1.1098 2.9669 1.3925 3.5537 1.6924 7.4481 2.9368 11.056z" fill-opacity=".25882" filter="url(#X)"/><path d="m-54.381 165.47c3.3085 2.2189 6.2767 4.9441 8.7695 8.0515 2.3132 2.8836 4.2811 6.1543 7.2993 8.2889 2.1326 1.5082 4.6949 2.3578 7.2941 2.6161 3.0515.3032 6.1398-.18685 9.0817-1.052 2.7266-.80188 5.3632-1.9293 7.7822-3.4214 4.5982-2.8364 8.4392-6.9928 13.51-8.8571 1.107-.407 2.2592-.69817 3.3265-1.2002 1.0673-.50208 2.0714-1.254 2.5811-2.3177.48998-1.0224.47096-2.2025.63053-3.325.17071-1.2008.55376-2.3618.76387-3.5564s.23517-2.4723-.2814-3.5698c-.42777-.90876-1.2054-1.6278-2.0999-2.0847-.89449-.45686-1.9011-.6644-2.9043-.71362-2.0064-.0985-3.9875.41519-5.9881.59766-2.6496.24167-5.3179-.0991-7.9772-.019-3.3083.0996-6.5682.84884-9.8743 1.005-3.7717.17818-7.5341-.41751-11.308-.55139-1.6323-.0579-3.2754-.0286-4.8843.25254-1.6089.28112-3.1882.82168-4.5485 1.7256-1.32.87714-2.3967 2.0673-3.6066 3.091-.60492.51187-1.2478.98508-1.9537 1.345s-1.4788.60451-2.2703.64257c-.40728.0196-.81834-.0152-1.2213.0472-.67617.10463-1.3037.49355-1.6983 1.0525-.39458.55899-.5509 1.2805-.42305 1.9527z" filter="url(#W)" opacity=".3" transform="matrix(1 0 0 .92111 21 6.1075)"/><path d="m-24.768 113.36c-1.781.097-3.4846.91899-4.7879 2.1367-1.3032 1.2177-2.2214 2.8118-2.7862 4.5036-1.1296 3.3836-.87548 7.0518-.6187 10.61.23251 3.2216.4704 6.5053 1.6768 9.5016.60319 1.4981 1.4502 2.9102 2.5803 4.064s2.5517 2.0419 4.1183 2.4345c1.4688.36809 3.0382.29183 4.4828-.16209s2.7639-1.2789 3.8462-2.3379c1.579-1.5451 2.6433-3.5662 3.2534-5.6895.61019-2.1233.78416-4.3516.7524-6.5605-.03974-2.7644-.40091-5.5385-1.2658-8.1644s-2.2457-5.1033-4.1728-7.0856c-.93331-.96009-1.9978-1.8051-3.1986-2.3975-1.2008-.59233-2.5434-.92535-3.8804-.85253z" fill="url(#Y)"/><path d="m6.75 113.36c-2.7804 1.9102-5.1106 4.5749-6.25 7.75-1.436 4.0016-.88584 8.4807.5 12.5 1.4195 4.1169 3.7938 8.041 7.3793 10.512 1.7928 1.2357 3.8681 2.083 6.0304 2.3386s4.4093-.0949 6.3403-1.1009c2.3531-1.226 4.1478-3.3728 5.2622-5.7808s1.5888-5.0701 1.7378-7.7192c.18989-3.3755-.14047-6.8065-1.25-10-1.2053-3.4691-3.3901-6.6706-6.4728-8.6666-1.5414-.99803-3.2919-1.6836-5.1109-1.9352-1.8189-.25158-3.7048-.0633-5.4164.60175-.97547.37901-1.8874.9074-2.75 1.5z" fill="url(#Z)"/><path d="m-25.361 142.15c-1.7865 1.4774-3.5012 3.0416-5.136 4.6852-.90382.90868-1.8091 1.8836-2.2146 3.0994-.36055 1.0811-.29199 2.2532-.46883 3.379-.06057.38562-.15043.76936-.15205 1.1597-.000812.19517.02083.39147.0782.57802.05736.18656.15133.36338.28464.50594.2218.23719.53823.36582.85643.43063.3182.0648.64487.0725.96773.10746 1.456.15747 2.7982.86338 4.0038 1.6949 1.2056.83149 2.3147 1.8001 3.551 2.5852 2.7311 1.7344 5.993 2.5048 9.2259 2.6281s6.458-.37064 9.6304-1.005c2.5207-.50408 5.0338-1.1009 7.4254-2.0436 3.6626-1.4436 6.9635-3.6669 10.118-6.0219 1.433-1.0698 2.846-2.1732 4.1325-3.4152.43668-.42159.85916-.85947 1.3276-1.2455.4684-.38604.98816-.72177 1.566-.90767.88077-.28336 1.8356-.20203 2.7482-.0495.68732.11488 1.376.26902 2.0723.24128.34815-.0139.69661-.0742 1.0201-.2037.32345-.12954.62155-.33028.8433-.59903.29139-.35317.43996-.81445.4416-1.2723.0016-.45786-.13871-.91095-.37106-1.3055-.4647-.78905-1.2682-1.3231-2.105-1.695-1.1461-.50941-2.3863-.76136-3.6055-1.0557-3.7453-.90427-7.3848-2.2406-10.836-3.9538-1.7156-.85173-3.3836-1.7956-5.0717-2.7004-1.7356-.93021-3.5046-1.8242-5.389-2.3954-4.2133-1.2771-8.8185-.85829-12.977.58609-4.6199 1.6045-8.7974 4.4631-11.966 8.1883z" filter="url(#V)" opacity=".3"/><path d="m-16.399 136.86c1.7674-1.9866 2.9762-4.4105 4.6741-6.4568.84898-1.0231 1.8284-1.9553 2.9817-2.6168 1.1533-.66147 2.492-1.0411 3.8165-.9264 1.4745.12769 2.8545.86228 3.9341 1.8747 1.0795 1.0124 1.8798 2.2903 2.5186 3.6253.61174 1.2783 1.0978 2.6403 1.9791 3.75.94033 1.184 2.2595 1.9922 3.4511 2.9229.59578.46535 1.1675.96911 1.6384 1.5605.47092.59139.83961 1.276.99099 2.0166.15372.75214.077153 1.5451-.18518 2.2665-.26233.72148-.7067 1.3717-1.2596 1.9043-1.1059 1.0651-2.6136 1.6396-4.1338 1.8547-3.0405.43016-6.1147-.47583-9.1842-.39142-3.1069.0854-6.1416 1.1837-9.2475 1.0701-1.553-.0568-3.1281-.43624-4.4043-1.323-.63809-.44339-1.194-1.0106-1.5958-1.6756-.40182-.66505-.64669-1.4289-.67286-2.2055-.02497-.74092.14804-1.4809.44408-2.1606.29603-.67967.71268-1.3018 1.1821-1.8755.93888-1.1475 2.087-2.1062 3.0725-3.2139z" fill="url(#aa)"/><path d="m277.96 90.857c-2.2249 1.57-1.2529 3.5305-.29604 5.4979s-2.1043 7.6397-2.1365 7.8843c-.0322.24465 6.0253-2.8754 7.6761-4.902 1.9496-2.3934 6.877 3.2379 6.6085 2.3812.002-1.5331-9.6272-12.431-11.852-10.861z" fill="#7c7c7c" filter="url(#U)" transform="matrix(1.1522 0 0 1.1522 -302.03 -22.837)"/><g transform="translate(-289 -9)"><path d="m302.16 130.76c-1.0455.0749-2.0644.4318-2.9514.99028-.88699.55848-1.6433 1.3152-2.237 2.179-1.1875 1.7276-1.7089 3.8468-1.793 5.9414-.0631 1.5723.11098 3.1651.63245 4.6498s1.4009 2.8588 2.6128 3.8625c1.2401 1.0271 2.8165 1.6436 4.4248 1.7209s3.2395-.38665 4.561-1.3066c1.0529-.73292 1.9021-1.7417 2.5067-2.8732.60455-1.1315.96879-2.3835 1.1353-3.6555.29411-2.2468-.0385-4.593-1.0769-6.607s-2.8005-3.6727-4.9267-4.4561c-.92093-.3393-1.9091-.51576-2.888-.44563z" fill="#020204"/><path d="m304.66 137.61c-.86591.34162-2.2366.12677-2.6162.9767-.22493.50357.0927 1.3325.60343 1.5406 1.0324.42063 2.6319-.34111 3.0488-1.3751.18104-.4491-.0934-1.161-.53974-1.3486-.16515-.0694-.32958.14069-.49623.20644z" fill="#141413" filter="url(#S)"/><path d="m308.62 139.86c1.1611-1.1611-.82613-4.2395-2.375-5.5-1.1218-.91296-4.3906-1.8685-4.25-.875s1.6099 2.2665 2.5947 3.2374c1.2124 1.1953 3.4789 3.689 4.0303 3.1376z" fill="url(#ab)" filter="url(#T)"/></g><path clip-path="url(#R)" d="m75.25 132.49c2.3837-1.9801 5.1609-3.4847 8.1215-4.4001 6.0856-1.8815 13-1.1371 18.378 2.2751 1.8571 1.1781 3.5124 2.6419 5.2394 4.0037 1.7269 1.3618 3.5612 2.6412 5.6356 3.3713 1.1209.39448 2.3182.62345 3.5.5 1.0677-.11153 2.0993-.5118 2.9844-1.1192.88515-.60736 1.6248-1.4185 2.1806-2.3369 1.1118-1.8367 1.47-4.0646 1.2784-6.203-.38324-4.2768-2.7956-8.0534-4.8185-11.841-.63342-1.186-1.2364-2.3933-2-3.5-2.3433-3.3962-6.0731-5.6356-9.985-6.9479-3.9118-1.3123-8.0463-1.7864-12.14-2.3021-1.8257-.22998-3.673-.46998-5.5-.25-2.0998.25283-4.076 1.101-6.125 1.625-.97265.24874-1.9637.42478-2.928.70391-.96437.27912-1.913.669-2.697 1.2961-1.1448.91567-1.8651 2.2909-2.1765 3.7234-.31145 1.4325-.24052 2.9244-.01161 4.3724.45781 2.896 1.5409 5.7241 1.4381 8.6542-.07058 2.0123-.70229 3.988-.625 6 .02266.58987.10659 1.1774.25 1.75" fill="url(#ac)" transform="translate(-79 -9)"/><path d="m16.406 105.12c-.47695.59985-.90798 1.2523-1.25 1.9688 2.1464.46247 4.1991 1.3458 6.0312 2.5625 3.5451 2.3543 6.237 5.7965 8.125 9.625.44076-.48807.84202-1.0118 1.1875-1.5938-1.8975-3.9878-4.6438-7.5949-8.3125-10.031-1.7623-1.1704-3.7246-2.0537-5.7812-2.5312z" fill="url(#ad)" filter="url(#Q)"/><path d="m-24.969 107.08c-.24181-.005-.47678.0166-.71875.0284-.15551.007-.31416.0138-.46875.0284 1.4131.12839 2.8175.50809 4.0938 1.0814 1.7386.78095 3.2737 1.8929 4.625 3.1587 2.5037 2.3453 4.365 5.2397 5.625 8.3094-.31131-2.3649-1.0262-4.604-2.0625-6.6589-.49356-.57132-1.0056-1.1288-1.5625-1.6505-1.3513-1.2658-2.8864-2.3778-4.625-3.1587-1.5213-.68334-3.2136-1.1079-4.9062-1.1383z" fill="url(#ae)" filter="url(#P)"/><g transform="translate(-189 -9)"><path d="m159.94 137.11c-.37211 2.2457-.38563 4.602.3864 6.7434.50979 1.414 1.3504 2.6969 2.3722 3.7994.66903.72184 1.4282 1.3778 2.3158 1.8032s1.9158.60638 2.8704.36671c.88113-.22123 1.6516-.78859 2.2201-1.4972.56856-.70857.9476-1.553 1.2177-2.4203.7974-2.5608.66926-5.3616-.12241-7.9242-.5768-1.867-1.5321-3.6679-3.0266-4.9268-.71307-.60061-1.5477-1.0712-2.4548-1.2866-.90707-.2155-1.8887-.16505-2.7375.22063-.9423.42817-1.6716 1.243-2.1491 2.1613-.47749.91829-.72288 1.9394-.89207 2.9605z" fill="#020204"/><path d="m164.69 135.49c.24185.6337 1.0542.86381 1.5 1.375.43302.49651.88735 1.0106 1.125 1.625.4549 1.1762-.4488 2.9193.5 3.75.29782.26075.89472.26639 1.1875 0 1.1454-1.0422.89094-3.1443.4375-4.625-.4115-1.3437-1.4275-2.6164-2.6792-3.2551-.57882-.29536-1.4508-.54089-1.9458-.11988-.31898.2713-.27431.85878-.125 1.25z" fill="url(#af)" filter="url(#N)"/></g><g transform="translate(-79 -9)"><path d="m45.752 165.03c.06146.29539.17251.58039.32709.8395.26568.44533.65394.80631 1.0733 1.1114s.8728.55947 1.3118.83545c2.3336 1.467 4.2354 3.529 5.9247 5.7071 2.2665 2.9222 4.2719 6.1649 7.2993 8.2889 2.1378 1.4998 4.6957 2.355 7.2941 2.6161 3.0513.30656 6.1399-.18595 9.0817-1.052 2.7264-.80267 5.3631-1.9296 7.7822-3.4214 4.5985-2.8359 8.4392-6.9927 13.51-8.8571 1.107-.40702 2.2592-.69819 3.3265-1.2003 1.0673-.50207 2.0714-1.254 2.5811-2.3177.48998-1.0224.47097-2.2025.63053-3.325.1707-1.2008.55374-2.3618.76385-3.5564.2101-1.1946.23517-2.4723-.28138-3.5698-.42775-.90878-1.2054-1.6279-2.0998-2.0848-.89448-.4569-1.9011-.66447-2.9043-.71372-2.0064-.0985-3.9876.41519-5.9881.59785-2.6495.24193-5.3179-.0982-7.9772-.019-3.3083.0986-6.5684.84468-9.8743 1.005-3.7715.18294-7.5347-.39851-11.308-.55139-1.6341-.0662-3.28-.0512-4.8918.22531-1.6119.27654-3.1952.82363-4.541 1.7529-1.3114.90553-2.3559 2.1402-3.5602 3.184-.60214.52192-1.2495.99929-1.9663 1.3474-.71678.34812-1.5075.564-2.3042.54708-.4096-.009-.83086-.0769-1.2213.0472-.24392.0775-.46048.22705-.64353.40593s-.33479.38705-.4778.59931c-.33254.49356-.62307 1.0154-.86742 1.5581z" fill="url(#ag)"/><path d="m60.557 169.1c-.38646 1.596-.15199 3.3341.64359 4.7707s2.1444 2.5575 3.7023 3.0768c1.9778.65919 4.2066.33635 6.0548-.62813 1.0714-.55909 2.0512-1.3459 2.6694-2.3842.3091-.51918.52398-1.0971.60452-1.6959.08054-.59884.02471-1.2185-.18489-1.7852-.22972-.62112-.64026-1.1685-1.1461-1.596-.50579-.42748-1.1047-.7378-1.7334-.94568-1.2575-.41575-2.6109-.42405-3.9339-.36051-2.0052.0963-4.0029.34837-5.9692.75318" fill="#d9b30d" filter="url(#G)"/><path d="m54.066 156.68c-1.339.79147-2.6286 1.6637-3.8975 2.5632-.6567.46551-1.3342.96895-1.6806 1.6956-.2455.51498-.30177 1.099-.30959 1.6695-.0078.57045.02884 1.144-.04618 1.7095-.05124.38625-.15433.76619-.17154 1.1554-.0086.19463.0047.39145.05602.57938.05134.18793.1419.36704.27548.50885.17256.18318.40793.29591.64865.36931s.49064.1112.73562.16878c1.1747.27611 2.1969.99676 3.0941 1.8037s1.7029 1.7149 2.6389 2.4764c2.5373 2.0645 5.8905 2.9187 9.1611 2.9725s6.5042-.63066 9.6953-1.3495c2.5063-.56456 5.015-1.1547 7.4254-2.0436 3.7028-1.3654 7.1407-3.4317 10.118-6.0219 1.35-1.1744 2.6172-2.4636 4.1325-3.4152 1.3409-.84211 2.8426-1.398 4.2063-2.2026.12193-.072.24321-.14621.35213-.23665.10893-.0905.20574-.1981.26892-.3248.10917-.21894.10937-.48123.0389-.71552-.0704-.23429-.20633-.44389-.36-.63425-.16999-.21058-.36336-.40158-.56895-.57756-1.4244-1.2192-3.3568-1.6624-5.2258-1.8107-1.8691-.14822-3.7607-.0434-5.61-.35238-1.7386-.29048-3.3933-.93881-5.0718-1.4773-1.7619-.56527-3.5628-1.0125-5.389-1.3104-4.2948-.70063-8.7173-.56641-12.977.32063-4.0577.84488-7.9713 2.3706-11.539 4.4796z" fill="#604405" filter="url(#H)"/><path d="m53.639 152.15c-1.9294 1.2986-3.6661 2.8829-5.136 4.6852-.8407 1.0308-1.6037 2.1508-2.0271 3.4118-.333.99185-.44648 2.0415-.65633 3.0665-.07861.38398-.17139.76923-.16974 1.1612.000822.19597.02568.39281.08646.57912.06079.18631.15831.36204.29407.50337.22468.23391.54041.36101.8581.42632.31769.0653.6438.0751.96606.11177 1.4546.16535 2.7945.87199 4.0003 1.7022 1.2059.83017 2.3171 1.7954 3.5544 2.578 2.7339 1.729 5.9946 2.4983 9.2269 2.6228 3.2323.12456 6.4574-.36641 9.6295-.99977 2.5209-.50334 5.0339-1.1007 7.4254-2.0436 3.6624-1.4439 6.9635-3.6669 10.118-6.0219 1.433-1.0698 2.846-2.1732 4.1325-3.4152.43668-.42159.85916-.85947 1.3276-1.2455.4684-.38603.98816-.72177 1.566-.90766.88077-.28336 1.8356-.20203 2.7482-.0495.68732.11488 1.376.26902 2.0723.24128.34815-.0139.69661-.0742 1.0201-.2037.32345-.12954.62155-.33028.8433-.59903.29139-.35317.43996-.81445.4416-1.2723.002-.45786-.1387-.91095-.37105-1.3055-.4647-.78905-1.2682-1.3231-2.105-1.695-1.1461-.50941-2.3863-.76136-3.6055-1.0557-3.7453-.90427-7.3848-2.2406-10.836-3.9538-1.7156-.85173-3.3836-1.7956-5.0718-2.7004-1.7356-.93021-3.5046-1.8242-5.389-2.3954-4.2133-1.2771-8.8185-.85829-12.977.58609-4.6199 1.6045-8.7974 4.4631-11.966 8.1883z" fill="url(#ah)"/><path d="m83.239 153.08c-.2265-.28623-.55114-.48799-.90129-.59103s-.72467-.1104-1.0844-.0488c-.71953.12322-1.3645.51049-1.9657.9245-1.7086 1.1765-3.2189 2.6282-4.5373 4.2298-1.7452 2.12-3.185 4.5717-3.6676 7.2749-.08131.45547-.13511.92132-.07821 1.3805.0569.45916.23279.91479.55871 1.2432.28617.28835.67573.46425 1.0778.52203.40212.0578.8159.002 1.2008-.12836.76971-.26019 1.409-.79942 2.0144-1.3413 3.336-2.9855 6.3525-6.5678 7.5596-10.879.12113-.43261.22401-.87566.22123-1.3249-.0028-.44924-.11924-.90947-.39801-1.2618z" fill="#f6da4a" filter="url(#I)"/><path d="m75.251 146.89c.23129.7424 1.4278.61935 2.1191.97542.60659.31244 1.0945.99723 1.7765 1.0169.65093.0188 1.664-.22542 1.7487-.87109.11187-.85303-1.1338-1.3951-1.9354-1.7076-1.0315-.40216-2.353-.6062-3.3206-.0682-.22173.12328-.46373.41238-.38827.65458z" fill="url(#ai)" filter="url(#K)" opacity=".8"/><path d="m63.827 146.47c-.88816-.28854-2.3575 1.2775-1.8781 2.0789.13167.22009.53491.49916.80641.34992.40925-.22497.74404-1.0296 1.1875-1.345.29608-.21058.22974-.97156-.11581-1.0838z" fill="url(#aj)" filter="url(#L)" opacity=".8"/><ellipse cx="243.3" cy="158.28" fill="url(#ak)" filter="url(#M)" rx="2.6081" ry="2.3281" transform="matrix(1.0956 0 -.17018 1.5181 -136.24 -82.117)"/></g><path clip-path="url(#F)" d="m50.392 129.53c2.6854-1.5993 5.9551-1.9703 9.0667-1.6756 3.1116.29468 6.1254 1.2085 9.1413 2.0292 2.2116.60188 4.4516 1.1615 6.5253 2.1378 2.0737.97627 3.9999 2.4157 5.1419 4.403.18319.31877.34526.6497.53925.96201.194.31232.42311.60867.71646.83031s.65699.3643 1.0241.34424c.18356-.01.36561-.0609.52418-.15388.15856-.093.29294-.22871.37799-.39169.09778-.18739.12808-.40446.11714-.61554s-.06122-.41805-.11714-.62189c-.7552-2.753-2.535-5.0883-3.8891-7.6014-.8126-1.5081-1.477-3.0927-2.2981-4.5962-2.8183-5.1602-7.4436-9.2156-12.701-11.847-5.2578-2.6317-11.127-3.8961-16.997-4.2393-6.8012-.39768-13.62.40945-20.329 1.591-2.9086.5122-5.8608 1.1151-8.4357 2.5616-1.2874.72322-2.4675 1.6566-3.3885 2.8109s-1.5765 2.5352-1.7876 3.9967c-.20352 1.4086.0088 2.8606.5013 4.1958.49248 1.3352 1.2582 2.5585 2.1565 3.6624 1.7966 2.2077 4.1007 3.9336 6.2224 5.8309 2.1213 1.8969 4.09 3.992 6.4629 5.5628 1.1865.78539 2.4727 1.435 3.8434 1.8167 1.3707.38166 2.8299.48917 4.2238.20358 1.445-.29606 2.7827-1.005 3.9536-1.902 1.1709-.89697 2.1861-1.9801 3.1484-3.0979 1.9246-2.2358 3.7225-4.6865 6.2571-6.196z" fill="url(#al)" transform="translate(-79 -9)"/><path d="m66.102 216.45c6.0848 4.8946 9.9456 12.286 11.141 20.003.93229 6.0186.32634 12.195-1.0307 18.132-1.357 5.9373-3.4522 11.676-5.5317 17.401-.82924 2.2827-1.6622 4.5871-1.9917 6.9933s-.12085 4.9543 1.0395 7.0878c1.3302 2.4458 3.813 4.1302 6.4818 4.9229 2.6349.78263 5.481.76618 8.1482.10153 2.6671-.66466 5.1574-1.9634 7.3284-3.6493 5.5156-4.2831 8.8436-10.949 10.132-17.812 1.2883-6.8634.69637-13.95-.50149-20.83-1.6334-9.3814-4.3817-18.551-7.8799-27.408-2.5731-6.5147-5.5841-12.92-9.7914-18.52-4.1171-5.4801-9.3069-10.093-13.34-15.635-2.8026-3.8509-5.0477-8.1495-8.4064-11.526-1.6793-1.6885-3.6404-3.1323-5.8602-3.9946s-4.7127-1.1162-7.005-.47108c-3.0214.85034-5.4898 3.2311-6.8029 6.0821s-1.5428 6.1231-1.0319 9.2201c.6591 3.9954 2.4863 7.7026 4.5464 11.189 2.3267 3.9372 5.022 7.7271 8.536 10.654 3.6671 3.0546 8.1015 5.0688 11.82 8.0602z" fill="#020204"/><path clip-path="url(#D)" d="m290.78 216.02c.48482.46774.98091.94261 1.5 1.375 3.6672 3.0546 5.6188 6.4853 9.3376 9.4767 6.0848 4.8946 12.259 13.344 13.454 21.061.93229 6.0186-.30093 9.2895-1.8047 16.388-1.5037 7.0983-5.7694 17.148-8.0738 23.992-.9189 2.7291 1.8612 1.6031 1.4961 4.4798-.17944 1.4138-.19766 2.8424-.0346 4.2592.0227-.27104.0388-.5525.0693-.82194.44281-3.9227 1.6233-7.6948 2.9088-11.395 2.4742-7.1221 5.3143-14.101 7.272-21.408 1.9576-7.3068 1.7403-12.564.71875-18.844-1.2846-7.8964-5.797-15.187-12.188-20-4.5185-3.4031-9.8469-5.5846-14.656-8.5625z" fill="#838384" filter="url(#E)" transform="matrix(1.0181 0 0 1 -244.26 -9)"/><path d="m-61.003 211.59c.88005 1.5239-.54737 6.7783 19.964 3.4153 0 0-3.602.4573-7.1528 1.4042-5.5213 2.1334-10.33 4.5171-14.04 7.6752-3.6755 3.1217-6.3671 7.1969-9.7397 10.697 0 0 5.4617-11.519 6.8233-14.987 1.3616-3.4687-.22795-3.31.84893-8.4136 1.0769-5.1036 3.7135-10.007 3.7135-10.007s-2.1524 7.2109-.41678 10.216z" fill="url(#am)" filter="url(#C)" opacity=".25" transform="matrix(1.1543 0 0 1 27.332 -9)"/><path d="m33.05 201.22c-4.8251 3.3614-7.6524 2.9634-13.507 3.6209s-21.698.41943-21.698.41943 2.2937-.0427 7.3776.90419c5.0839.94693 15.453 1.8523 21.292 4.0747s7.9685 2.8566 11.517 5.1006c5.0511 3.1939 8.7582 8.1969 13.587 11.697 0 0 .23377-4.6437-1.7157-8.1124s-7.1904-8.935-8.7322-14.039c-1.5418-5.1036-2.2743-15.132-2.2743-15.132s-1.0211 8.1048-5.8462 11.466z" fill="url(#an)" filter="url(#B)" opacity=".42"/><path d="m-12.33 194.04c-.17937 1.4559-.41189 2.9053-.69695 4.3443-.14052.70936-.2949 1.4199-.55905 2.0931s-.64419 1.3121-1.1813 1.7964c-.47071.42443-1.0444.71595-1.6207.97975-2.2483 1.0292-4.6544 1.7126-7.108 2.019.97992.0719 1.9586.16127 2.9353.2682.61534.0674 1.2321.14208 1.8317.29586.59961.15377 1.1847.38955 1.6842.75518.54781.40099.97799.94833 1.2993 1.5464.64023 1.1916.85435 2.5628.97272 3.9103.15139 1.7234.16244 3.459.033 5.1842.11585-1.1543.35775-2.2959.72-3.398.65284-1.9861 1.7042-3.8479 3.1197-5.3864.56172-.6105 1.1804-1.1704 1.8588-1.6479 2.0782-1.4629 4.718-2.1055 7.2361-1.7613-2.559.11302-5.149-.69089-7.1942-2.233-1.0416-.78539-1.9487-1.7629-2.5798-2.9046-.97579-1.7656-1.2501-3.9068-.75098-5.8613z" fill="url(#ao)" filter="url(#A)" opacity=".2"/><path d="m-18.5 228.08c-1.2295 4.6793-2.0752 9.4595-2.5257 14.277-.63702 6.8122-.48368 13.672-.84934 20.505-.31029 5.7975-.99107 11.656.0159 17.374.48017 2.7266 1.3427 5.3855 2.5546 7.8747.19249-.95006.33356-1.9105.42239-2.8758.42661-4.636-.3541-9.2869-.61781-13.935-.46225-8.1474.66569-16.29 1.125-24.438.3526-6.2548.31082-12.532-.125-18.781z" filter="url(#y)" opacity=".11"/><path d="m37.688 157.86c-2.1622 1.9694 1.0136 4.9277 2.5197 8.4043.93626 2.1613 3.5268 5.2051 6.0324 4.7175 1.8848-.36677 3.0543-3.0794 2.8759-4.9912-.34416-3.6885-3.4567-4.5526-5.7172-5.8195-1.7914-1.004-4.1926-3.6939-5.7108-2.3111z" fill="#838384" filter="url(#x)"/><g transform="translate(21 -9)"><path d="m86.056 328.13c-.45671 1.5492-1.1522 3.0458-2.0496 4.4109-1.9805 3.0124-4.8545 5.2794-7.7268 7.3702-4.8989 3.5659-10.003 6.8378-14.563 10.89-3.0555 2.7151-5.8411 5.7594-8.4228 8.9649-2.2079 2.7415-4.2839 5.6193-6.8009 8.0573-2.5396 2.4599-5.5305 4.4468-8.7519 5.5293-3.918 1.3167-8.058 1.2533-11.832.25938-2.6448-.69647-5.2236-1.907-6.8622-4.0969-1.6448-2.1983-2.1777-5.1522-2.368-8.0519-.33651-5.1288.25967-10.37.8034-15.575.45167-4.3257.86825-8.6548 1.0386-12.972.30984-7.852-.19668-15.636-1.2319-23.273-.17336-1.2791-.36202-2.5682-.25656-3.8856.10519-1.3174.5354-2.6883 1.4362-3.7053.83202-.93937 1.9928-1.4957 3.1507-1.7689 1.1579-.27325 2.3298-.2898 3.4927-.3215 2.7402-.0747 5.4965-.24039 8.1952.006 1.7028.15559 3.3726.47459 5.0731.6427 2.8376.28052 5.7813.13286 8.6274-.72369 3.064-.92215 5.9863-2.6516 9.0994-3.1274 1.2773-.19521 2.559-.17251 3.801.006 1.2675.18218 2.5284.54175 3.5024 1.336.74019.60362 1.2819 1.4328 1.7058 2.3166.63144 1.3165 1.0192 2.7703 1.2412 4.2613.19663 1.3208.26639 2.6802.59789 3.9574.54536 2.1012 1.7809 3.8865 3.2674 5.3396 1.4865 1.4532 3.225 2.6024 4.9606 3.7341 1.7291 1.1274 3.4679 2.2468 5.3147 3.1763.86675.43621 1.7575.83074 2.5861 1.3331.8286.50234 1.6007 1.1211 2.1509 1.9355.74634 1.1047 1.0457 2.5527.82168 3.9747l.00002-.00001" fill="url(#ap)" filter="url(#q)" opacity=".2" transform="matrix(1.0269 0 0 1 -2.3134 0)"/><path clip-path="url(#r)" d="m516.01 331.88c-.6714 1.719-1.6268 3.3268-2.8158 4.7383-2.6238 3.1148-6.268 5.1704-9.8965 7.0198-6.1886 3.1544-12.602 5.9218-18.42 9.7165-3.898 2.5425-7.4959 5.5267-10.86 8.7424-2.8772 2.7501-5.6058 5.6874-8.8325 8.0177-3.2557 2.3512-7.0192 4.0543-10.991 4.6502-4.8303.72481-9.8213-.21289-14.299-2.1642-3.1375-1.3673-6.1557-3.3229-7.963-6.2293-1.8142-2.9175-2.2281-6.4881-2.2327-9.9238-.008-6.0767 1.1182-12.09 2.1785-18.073.88097-4.9718 1.7195-9.9548 2.2601-14.975.98337-9.1312.9763-18.353.3199-27.513-.10993-1.5342-.23754-3.0832-.008-4.6041.22922-1.5209.85475-3.0367 2.0207-4.0399 1.077-.9266 2.5209-1.336 3.9395-1.4145 1.4185-.0785 2.834.14655 4.2398.35197 3.3125.48405 6.6516.8649 9.8892 1.7166 2.0428.53738 4.0332 1.2592 6.0722 1.8108 3.4026.92039 6.9664 1.3614 10.467.95192 3.7692-.44089 7.4299-1.8568 11.224-1.7647 1.5566.0378 3.1015.33171 4.5865.79985 1.5154.47772 3.0091 1.1618 4.1228 2.2951.84639.8613 1.4358 1.9454 1.8787 3.0688.65982 1.6735 1.0149 3.457 1.167 5.2494.13475 1.5879.11343 3.1944.41433 4.7593.49503 2.5746 1.8475 4.923 3.5285 6.9349s3.6898 3.7205 5.6964 5.4078c1.9991 1.681 4.0106 3.3547 6.1671 4.8284 1.0121.69165 2.0564 1.3395 3.0174 2.1006s1.8447 1.6468 2.4454 2.7154c.81492 1.4494 1.0638 3.2077.68307 4.8264z" fill="url(#aq)" transform="translate(-410)"/><path clip-path="url(#s)" d="m512.89 328.72c-.61724 1.5474-1.4897 2.9928-2.5715 4.2598-2.4025 2.814-5.7292 4.6544-9.0377 6.311-5.653 2.8304-11.503 5.3176-16.821 8.7354-3.5536 2.2836-6.8408 4.9656-9.9178 7.8596-2.6292 2.4727-5.125 5.116-8.0661 7.2081-2.9809 2.1204-6.4179 3.6468-10.037 4.1806-4.4093.65041-8.9602-.19314-13.058-1.9456-2.8572-1.2218-5.6173-2.97-7.272-5.6003-1.6463-2.6169-2.0313-5.83-2.0389-8.9217-.0135-5.4647 1.0183-10.871 1.9894-16.248.80703-4.4688 1.5753-8.9482 2.064-13.463.88853-8.2082.8481-16.498.29214-24.735-.0931-1.3802-.20023-2.7738.0118-4.1408.21204-1.367.77803-2.7274 1.826-3.6304.9828-.84687 2.303-1.218 3.5986-1.2859 1.2956-.068 2.5874.14181 3.871.3307 3.0232.4449 6.0724.77918 9.0311 1.5432 1.8654.48173 3.6837 1.1316 5.5453 1.628 3.1095.82898 6.3623 1.2249 9.5591.8558 3.4413-.39728 6.7866-1.6715 10.25-1.5865 1.4206.0348 2.8305.30037 4.1885.71908 1.3818.42605 2.7491 1.0345 3.7651 2.0634.76566.7754 1.2954 1.7535 1.7157 2.7589.62574 1.4967 1.0326 3.0974 1.0658 4.7194.0347 1.6937-.33552 3.3949-.10594 5.0734.18638 1.3626.7635 2.648 1.5006 3.8091.73713 1.1611 1.634 2.2109 2.5225 3.2607 1.7173 2.029 3.4393 4.0967 5.5931 5.6546 2.4522 1.7736 5.3619 2.8114 7.8951 4.4673.75511.49359 1.486 1.0522 2.0181 1.7806.8972 1.2281 1.1387 2.9079.62379 4.339z" fill="#cd8907" filter="url(#t)" transform="translate(-410)"/><path clip-path="url(#u)" d="m508.79 327.93c-.60151 1.2646-1.3822 2.4437-2.3113 3.4913-2.1534 2.4278-5.061 4.0992-8.1235 5.1725-5.0417 1.767-10.546 2.0044-15.495 4.0162-3.0162 1.2261-5.7306 3.0734-8.4791 4.8187-2.2217 1.4108-4.4925 2.7689-6.9321 3.7562-2.7555 1.1152-5.6857 1.7405-8.6258 2.1786-1.8708.27876-3.7626.48423-5.6516.38704-1.889-.0972-3.7842-.50735-5.4513-1.4009-1.264-.6775-2.4013-1.6529-3.076-2.9184-.74956-1.4059-.87959-3.056-.86243-4.6492.0457-4.2459 1.0256-8.4458.99617-12.692-.0256-3.6961-.81525-7.345-1.0423-11.034-.43665-7.0946 1.2047-14.313-.23989-21.273-.23125-1.1141-.54212-2.2269-.52701-3.3646.008-.56889.0988-1.141.31541-1.6671.21661-.52609.56289-1.0051 1.0246-1.3375.38878-.27992.85044-.45024 1.3234-.52677.47292-.0765.95748-.0616 1.4317.007.94836.13656 1.8519.48215 2.7755.73718 2.6419.72952 5.4325.71432 8.1175 1.2648 1.6853.34555 3.3168.91149 4.9844 1.3343 2.8003.70996 5.7201 1.0133 8.5921.70142 3.0885-.33539 6.1071-1.3753 9.2129-1.3003 1.273.0307 2.5374.25005 3.7648.58936 1.2277.3394 2.4554.81951 3.3842 1.6911.6693.62809 1.1514 1.4307 1.5421 2.2612.5703 1.212.96726 2.5285.95796 3.868-.005.6968-.11899 1.3876-.18672 2.0811-.0677.69352-.0878 1.4037.0914 2.077.18009.67656.55415 1.2867.98269 1.8403.42854.55364.91471 1.06 1.3582 1.6018 1.242 1.5171 2.1296 3.2854 3.0972 4.9907.96764 1.7052 2.0523 3.3927 3.5804 4.6212 2.0797 1.672 4.778 2.3402 7.0964 3.6614.67877.38682 1.3368.84082 1.814 1.4594.38231.49552.63762 1.0882.73509 1.7064.0975.61822.0369 1.2607-.1744 1.8498z" fill="#f5c021" filter="url(#v)" transform="matrix(1.143 0 0 1.2323 -479 -77.126)"/><path d="m27.309 290.65c3.2761-.88704 6.0662 1.5972 8.4423 3.4723 1.5353 1.3093 3.7535.97992 5.6366 1.0421 3.1207-.11321 6.2254.52281 9.3471.13577 6.1446-.51932 12.168-2.0297 18.342-2.2898 2.9495-.18579 6.2599-.35725 8.8081 1.3652 1.033.7155 2.547 3.7414 3.5665 2.6049-.42031-3.1782-2.7775-6.2559-5.9391-7.1022-2.4749-.38942-4.9898.29134-7.4895.0711-7.4229-.17706-14.793-1.5554-22.234-1.1602-5.1764.0448-10.347-.19501-15.515-.39662-2.0306-.41489-2.7467 1.389-3.8489 2.0808" fill="url(#ar)" filter="url(#w)"/></g><path d="m361.75 209.34c.002-1.5331-7.5647-10.056-9.7896-8.4864-2.2249 1.57-.49172 3.7842-.29604 5.4979s-.94537 6.6093.23849 7.2593 3.3661-2.5198 5.3011-4.277c1.5582-1.4149 4.544 1.5393 4.546.006z" fill="#7c7c7c" filter="url(#p)" opacity=".75" transform="matrix(-.095961 -.95701 -.77476 .11853 259.9 542.61)"/><path d="m351.96 200.86c-1.4516.38883-1.2301 3.9942-.29604 5.4979.78886 1.27 3.0724 2.2711 3.7585 1.005 1.1141-2.0556-1.4719-7.0361-3.4625-6.5029z" fill="#7c7c7c" filter="url(#o)" opacity=".25" transform="matrix(-.069919 .95701 -.56451 -.11853 97.568 -131.02)"/><g transform="translate(21 -9)"><g fill="url(#as)"><path d="m71.484 295.64c-.56258-1.102-1.5869-1.9258-2.7287-2.4025-1.1418-.47667-2.3969-.6289-3.6342-.61936-2.4745.0191-4.9346.66357-7.4.45028-2.0826-.18018-4.0587-.96301-6.0898-1.4574-2.0973-.51049-4.3219-.70969-6.4046-.14297-2.226.60568-4.1894 2.0936-5.4192 4.0454-1.0843 1.7209-1.5991 3.7527-1.7611 5.7803-.16202 2.0275.01297 4.0658.21815 6.0894.1484 1.4636.31354 2.9308.66764 4.3587s.90422 2.8228 1.7661 4.0151c1.2407 1.7163 3.0834 2.9395 5.0694 3.675 3.2418 1.2005 6.9338 1.136 10.132-.17718 5.6589-2.457 10.449-6.8639 13.369-12.299 1.0454-1.946 1.8574-4.0193 2.3819-6.1651.20845-.85283.37215-1.7224.37978-2.6003.0076-.8779-.14656-1.7688-.54574-2.5507z" filter="url(#m)" opacity=".35"/><path d="m71.484 295.64c-.56258-1.102-1.5869-1.9258-2.7287-2.4025-1.1418-.47667-2.3969-.6289-3.6342-.61936-2.4745.0191-4.9346.66357-7.4.45028-2.0826-.18018-4.0587-.96301-6.0898-1.4574-2.0973-.51049-4.3219-.70969-6.4046-.14297-2.226.60568-4.1894 2.0936-5.4192 4.0454-1.0843 1.7209-1.5991 3.7527-1.7611 5.7803-.16202 2.0275.01297 4.0658.21815 6.0894.1484 1.4636.31354 2.9308.66764 4.3587s.90422 2.8228 1.7661 4.0151c1.2407 1.7163 3.0834 2.9395 5.0694 3.675 3.2418 1.2005 6.9338 1.136 10.132-.17718 5.6589-2.457 10.449-6.8639 13.369-12.299 1.0454-1.946 1.8574-4.0193 2.3819-6.1651.20845-.85283.37215-1.7224.37978-2.6003.0076-.8779-.14656-1.7688-.54574-2.5507z" filter="url(#n)" opacity=".35" transform="matrix(1 0 0 .72293 0 80.758)"/></g><g><path d="m76.188 285.33c-.40516-1.1037-1.1184-2.0816-1.9907-2.8699-.87226-.78832-1.9005-1.3923-2.9828-1.8516-2.1646-.91852-4.5205-1.2615-6.8315-1.6956-2.1792-.40931-4.3418-.90631-6.5278-1.2773-2.2714-.38551-4.6179-.63213-6.8653-.1253-1.9658.44333-3.7845 1.4588-5.2717 2.8186s-2.6491 3.0564-3.485 4.8901c-1.4722 3.2295-1.9345 6.865-1.6539 10.403.20882 2.6332.87532 5.3459 2.6088 7.3391 1.4007 1.6105 3.3873 2.6153 5.434 3.2209 3.525 1.0432 7.3666.98822 10.86-.1553 5.7669-1.9311 10.876-5.7739 14.33-10.779 1.1386-1.6496 2.1122-3.4481 2.5532-5.4034.33597-1.4896.34831-3.0811-.1779-4.5146z" fill="#020204"/><path clip-path="url(#j)" d="m362.22 276.46c-.54933.0306-1.0814.0909-1.625.1875-3.4695.61686-6.647 2.8086-8.4375 5.8438-1.264 2.1427-1.8398 4.6763-1.6562 7.1562.0732-1.7416.52946-3.4468 1.375-4.9688 1.4344-2.5818 4.0324-4.5298 6.9375-5.0625 1.7898-.32819 3.6318-.13095 5.4375.0937 1.7326.2156 3.4812.44287 5.1875.8125 2.641.57209 5.2543 1.4514 7.4688 3 .51646.36118.99955.76857 1.4062 1.25.40669.48143.72188 1.0379.84375 1.6562.17824.90428-.0794 1.853-.53125 2.6562-.45189.8033-1.0649 1.5066-1.7188 2.1562-.52923.5258-1.0948 1.0342-1.6562 1.5312 2.559-.49571 5.152-1.1977 7.2812-2.6875.89975-.62955 1.7152-1.3846 2.25-2.3438.53477-.95912.76245-2.1212.5-3.1875-.17714-.71971-.57137-1.3824-1.0625-1.9375-.49114-.55511-1.0805-1.0122-1.6875-1.4375-2.6788-1.877-5.8149-3.0785-9.0625-3.4688-2.0815-.38286-4.1812-.70597-6.2812-.96875-1.6434-.20564-3.3208-.37313-4.9688-.28125z" fill="url(#at)" filter="url(#k)" transform="translate(-310)"/><path clip-path="url(#l)" d="m362.22 276.46c-.54933.0306-1.0814.0909-1.625.1875-3.4695.61686-6.647 2.8086-8.4375 5.8438-1.264 2.1427-1.8398 4.6763-1.6562 7.1562.0732-1.7416.52946-3.4468 1.375-4.9688 1.4344-2.5818 4.0324-4.5298 6.9375-5.0625 1.7898-.32819 3.6318-.13095 5.4375.0937 1.7326.2156 3.4812.44287 5.1875.8125 2.641.57209 5.2543 1.4514 7.4688 3 .51646.36118.99955.76857 1.4062 1.25.40669.48143.72188 1.0379.84375 1.6562.17824.90428-.0794 1.853-.53125 2.6562-.45189.8033-1.0649 1.5066-1.7188 2.1562-.52923.5258-1.0948 1.0342-1.6562 1.5312 2.559-.49571 5.152-1.1977 7.2812-2.6875.89975-.62955 1.7152-1.3846 2.25-2.3438.53477-.95912.76245-2.1212.5-3.1875-.17714-.71971-.57137-1.3824-1.0625-1.9375-.49114-.55511-1.0805-1.0122-1.6875-1.4375-2.6788-1.877-5.8149-3.0785-9.0625-3.4688-2.0815-.38286-4.1812-.70597-6.2812-.96875-1.6434-.20564-3.3208-.37313-4.9688-.28125z" fill="url(#au)" filter="url(#k)" transform="translate(-310 .000003)"/></g><g><path d="m-61.502 184.42c-2.7836 3.4738-5.5617 6.952-8.3344 10.434-2.8569 3.5882-5.7081 7.181-8.5873 10.751-3.5327 4.3807-7.1491 8.7942-9.4491 13.93-1.9762 4.4133-2.9108 9.2072-4.265 13.849-1.5379 5.2718-3.6261 10.37-5.9707 15.336-2.165 4.5853-4.5498 9.0629-6.9389 13.536-1.7382 3.2541-3.5051 6.581-4.1078 10.221-.47628 2.8763-.1985 5.8442.53375 8.6663.73225 2.822 1.9096 5.5106 3.2378 8.106 5.6672 11.075 14.17 20.622 24.242 27.925 4.5706 3.3142 9.4667 6.1811 14.602 8.526 2.7825 1.2704 5.7136 2.4044 8.7719 2.4574 1.5292.0265 3.0741-.22544 4.4743-.84055 1.4002-.6151 2.6507-1.6037 3.4825-2.8871 1.0228-1.5779 1.3699-3.5383 1.1646-5.4074s-.93484-3.6529-1.9132-5.2587c-2.39-3.9225-6.1652-6.7606-9.7964-9.5734-7.8405-6.0736-15.425-12.48-22.682-19.24-2.0491-1.9085-4.0984-3.8776-5.5302-6.2841-1.3943-2.3435-2.1476-5.0138-2.6578-7.6925-1.3997-7.3487-1.0409-15.083 1.4596-22.133.97822-2.7583 2.2712-5.392 3.5182-8.0396 2.1613-4.5891 4.2072-9.2656 7.0493-13.467 3.538-5.2304 8.2675-9.6605 11.151-15.278 2.4342-4.7415 3.4199-10.072 4.3618-15.318.73693-4.1043 1.4648-8.2103 2.1836-12.318z" fill="#020204"/><path clip-path="url(#g)" d="m232.33 224.27c-2.3213 2.1375-4.3331 4.6105-5.9534 7.3182-2.668 4.4585-4.239 9.4684-6.1781 14.289-1.4436 3.5889-3.1252 7.1931-3.3266 11.056-.10346 1.9842.19056 3.9659.25671 5.9516.0662 1.9858-.11756 4.0511-1.0897 5.7839-.81338 1.4499-2.1659 2.589-3.733 3.144 2.1155.70686 4.0045 2.0755 5.3353 3.8654 1.1145 1.499 1.8276 3.2537 2.7961 4.8509.78716 1.2982 1.7534 2.5012 2.9428 3.4446s2.6114 1.6197 4.1173 1.8129c2.0662.26508 4.2357-.42815 5.7654-1.8422-1.9254-18.036-.16195-36.457 5.1501-53.8.33544-1.0952.68725-2.1983.77034-3.3406.0831-1.1424-.12896-2.3479-.82414-3.2582-.37014-.48467-.86838-.87059-1.4302-1.1078-.56182-.2372-1.1859-.32512-1.7914-.25236-.60549.0727-1.191.306-1.6806.66954-.48964.36355-.88227.85651-1.1271 1.4151z" fill="#7c7c7c" filter="url(#h)" opacity=".95" transform="translate(-310)"/></g></g><g clip-path="url(#c)" transform="translate(-219 -9)"><path d="m137.58 281.02c1.5993-.66295 3.3982-.78361 5.1007-.46963s3.3114 1.0495 4.7434 2.0224c2.864 1.9458 4.9882 4.7777 7.0226 7.5795 4.6719 6.4341 9.1687 13.002 13.245 19.829 3.3064 5.5377 6.3435 11.257 10.164 16.453 2.494 3.3919 5.3066 6.5395 7.813 9.9222s4.7279 7.0559 5.8393 11.117c1.4441 5.2765.88463 11.093-1.6267 15.953-1.7666 3.419-4.4765 6.3523-7.7724 8.339-3.296 1.9867-7.1706 3.0144-11.016 2.8702-6.1141-.2293-11.699-3.2852-17.384-5.5491-11.581-4.6125-24.16-6.0594-36.097-9.6517-3.6686-1.104-7.2758-2.4107-10.97-3.4263-1.6412-.45122-3.3087-.8482-4.8588-1.5514-1.5501-.70325-2.9995-1.7491-3.8617-3.2168-.66639-1.1344-.94839-2.47-.93019-3.7855s.32589-2.6145.77382-3.8516c.89585-2.4741 2.3433-4.7137 3.3202-7.157 1.5951-3.9894 1.8817-8.3884 1.6666-12.679-.21511-4.291-.91078-8.5448-1.2045-12.831-.13118-1.9141-.18066-3.8526.18479-5.736s1.1758-3.7246 2.5577-5.0554c1.2741-1.2269 2.9649-1.9553 4.6964-2.3165s3.5153-.37747 5.2837-.33762c1.7683.0399 3.5407.13425 5.3035-.0106 1.7628-.14488 3.5335-.54055 5.0691-1.4183 1.46-.83447 2.6543-2.0745 3.6437-3.4342s1.7891-2.8457 2.6089-4.314c.81983-1.4682 1.6683-2.9315 2.7416-4.2261 1.0732-1.2946 2.3892-2.423 3.9427-3.067z" fill="url(#av)"/><path d="m140.11 283.78c1.4552-.58619 3.0942-.65064 4.6227-.30406 1.5285.34657 2.9496 1.0902 4.1884 2.047 2.4776 1.9137 4.1998 4.6138 5.8542 7.2686 3.9701 6.4331 7.8514 12.934 11.516 19.567 2.7769 4.9932 5.4247 10.093 8.8375 14.679 2.2638 3.0415 4.8474 5.8314 7.1579 8.8368s4.3713 6.2821 5.3928 9.9335c1.3163 4.7058.78265 9.91-1.4954 14.233-1.6376 3.1058-4.152 5.7464-7.1861 7.5126s-6.5792 2.6492-10.087 2.4879c-5.5983-.25772-10.711-3.0535-15.981-4.9507-10.103-3.6657-21.053-4.1575-31.416-7.02-3.7148-1.0083-7.3366-2.3528-11.07-3.294-1.6516-.41658-3.333-.75712-4.9022-1.4193-1.5691-.66219-3.0468-1.6887-3.8975-3.1647-.63282-1.0972-.88561-2.3884-.84651-3.6542s.35915-2.5104.80992-3.6939c.90155-2.367 2.3202-4.5103 3.2291-6.8746 1.3787-3.5742 1.5499-7.5041 1.294-11.326s-.9211-7.6095-1.1533-11.434c-.10374-1.709-.11933-3.439.22634-5.1158.34564-1.6768 1.0761-3.3097 2.2949-4.512 1.3209-1.309 3.1412-2.0241 4.9773-2.3043 1.8361-.28013 3.706-.15808 5.5548.007 1.8488.16495 3.705.37271 5.5611.26163 1.8561-.11109 3.7357-.56331 5.2689-1.6069 1.3974-.94461 2.4458-2.3241 3.2444-3.7984.79856-1.4744 1.3676-3.0554 1.9764-4.6166.60885-1.5611 1.2667-3.1219 2.2218-4.5097.95509-1.3878 2.2361-2.6047 3.8057-3.2347" fill="#d99a03" filter="url(#d)"/><path d="m138.75 281.24c1.4091-.7122 3.0706-.85812 4.6164-.53681 1.5458.3213 2.9782 1.0906 4.1957 2.0958 2.435 2.0104 3.9803 4.8747 5.4194 7.6854 3.3049 6.4547 6.3834 13.05 10.338 19.128 2.8688 4.4095 6.1796 8.517 9.0816 12.905 3.9356 5.9507 7.1358 12.496 8.4564 19.507.88822 4.7157.85899 9.8096-1.3724 14.058-1.4687 2.7961-3.85 5.0899-6.6634 6.5252s-6.0432 2.017-9.1889 1.7344c-4.9542-.44507-9.4537-2.9251-14.117-4.6548-8.2747-3.0688-17.218-3.8032-25.734-6.1187-3.592-.9766-7.11-2.2352-10.751-3.0096-1.6062-.34163-3.2436-.59125-4.7768-1.1794-1.5331-.58818-2.9862-1.5658-3.7696-3.0089-.55139-1.0157-.73656-2.2046-.65433-3.3574.0822-1.1528.42084-2.2749.86462-3.342.88755-2.1343 2.2009-4.0894 2.8904-6.2956 1.0132-3.2421.59672-6.7572-.1636-10.068-.76031-3.3106-1.8567-6.5613-2.1945-9.9412-.15046-1.5054-.14681-3.0399.19136-4.5146.33818-1.4746 1.0269-2.8918 2.1086-3.9496 1.3932-1.3624 3.3437-2.04 5.2832-2.2292 1.9394-.18927 3.8922.0689 5.8203.3512 1.9281.28227 3.8682.59003 5.8148.49986 1.9466-.0902 3.9285-.61081 5.4532-1.8243 1.5078-1.2001 2.4558-2.9871 2.9994-4.836.54362-1.8488.71997-3.7819.94267-5.6961s.50044-3.8462 1.2297-5.63c.72928-1.7838 1.9609-3.4281 3.6808-4.2974z" fill="#f5bd0c" filter="url(#e)" transform="matrix(1 0 0 .98205 0 3.959)"/><path d="m156.41 295.97c2.6062 4.7134 4.1958 10.122 6.7812 14.875 2.3781 4.3722 5.0845 8.8738 7.5 12.906 1.0754 1.7953 3.5833 4.5546 6.119 8.8373 2.2977 3.8808 4.6183 9.2972 5.9166 11.116-.74552-2.1288-2.2793-7.8466-4.1088-11.923-1.7096-3.8088-3.6998-5.9822-4.9268-8.0306-2.4155-4.0325-5.0169-7.6565-7.5-11.5-3.4252-5.3018-6.0356-11.235-9.7812-16.281z" fill="url(#aw)" filter="url(#f)"/></g></g><g transform="matrix(.31257 0 0 .31257 157.97 -19.496)"><path d="m258.17 62.373c-141.4 0-256 93.1-256 208 0 47.6 19.9 91.2 52.9 126.3-14.9 39.4-45.9 72.8-46.4 73.2-6.6 7-8.4 17.2-4.6 26s12.5 14.5 22.1 14.5c61.5 0 110-25.7 139.1-46.3 28.9 9.1 60.1 14.3 92.9 14.3 141.4 0 256-93.1 256-208s-114.6-208-256-208z"/><path d="m260.34 448.73c-30.042 0-59.746-4.6132-88.213-13.614l-25.541-8.1012-21.941 15.527c-16.09 11.364-38.143 24.078-64.697 32.63 8.2137-13.614 16.202-28.917 22.391-45.232l11.927-31.617-23.178-24.529c-20.365-21.716-44.781-57.608-44.781-105.09 0-99.239 104.98-180.03 234.03-180.03s234.03 80.787 234.03 180.03c0 99.239-104.98 180.03-234.03 180.03z" fill="#fff" stroke-width="1.1252"/><text font-size="74.667" letter-spacing="0" word-spacing="0" x="-158.74913" xml:space="preserve" y="261.31601"><tspan x="50.849815" y="261.31601"><tspan x="70.849815" y="261.31601">This seems </tspan></tspan><tspan x="133.90189" y="354.64932"><tspan x="133.90189" y="354.64932">empty.</tspan></tspan></text></g></svg>