<svg enable-background="new 0 0 512 512" viewBox="0 0 512 512" xmlns="http://www.w3.org/2000/svg"><path d="m488.727 0h-232.727-232.727c-12.853 0-23.273 10.418-23.273 23.273v465.455c0 12.852 10.42 23.272 23.273 23.272h232.727 232.727c12.853 0 23.273-10.42 23.273-23.273v-465.454c0-12.855-10.42-23.273-23.273-23.273z" fill="#ff3f62"/><path d="m116.364 279.273c-12.853 0-23.273-10.42-23.273-23.273 0-12.854 10.42-23.273 23.273-23.273h139.636v-232.727h-232.727c-12.853 0-23.273 10.418-23.273 23.273v465.455c0 12.852 10.42 23.272 23.273 23.272h232.727v-232.727z" fill="#ff0c38"/><path d="m395.636 232.727h-139.636-139.636c-12.853 0-23.273 10.418-23.273 23.273 0 12.853 10.42 23.273 23.273 23.273h139.636 139.636c12.853 0 23.273-10.42 23.273-23.273 0-12.854-10.42-23.273-23.273-23.273z" fill="#830018"/></svg>