<svg enable-background="new 0 0 512.001 512.001" viewBox="0 0 512.001 512.001" xmlns="http://www.w3.org/2000/svg"><path d="m201.01 401.558c-2.614-3.861-7.883-4.881-11.748-2.259l-57.953 39.261-39.683-22.285c-4.071-2.292-9.225-.838-11.517 3.233-2.288 4.071-.838 9.229 3.233 11.517l66.362 37.267c1.309.735 2.734 1.082 4.133 1.082 2.957 0 5.831-1.553 7.383-4.315 2.288-4.071.838-9.229-3.233-11.517l-10.185-5.72 50.95-34.516c3.864-2.622 4.875-7.879 2.258-11.748z" fill="#ebaf4b"/><path d="m307.343 484.33-9.563.001-9.836-68.852c-.657-4.625-4.93-7.808-9.568-7.173-4.621.661-7.833 4.943-7.173 9.568l9.494 66.458-41.009.003c-4.67 0-8.457 3.787-8.457 8.457s3.787 8.457 8.457 8.457l67.654-.004c4.67 0 8.457-3.787 8.457-8.457 0-4.672-3.786-8.458-8.456-8.458z" fill="#ebaf4b"/><path d="m442.932 276.74c-73.35-9.441-174.468-55.018-177.83-146.817-2.303-62.886-50.419-116.407-113.291-119.062-51.684-2.182-96.425 28.785-114.719 73.396-6.779 16.532-8.759 34.643-6.327 52.345l2.297 16.722c2.383 17.35 9.067 33.885 19.743 47.766.092.12.185.24.278.36 3.434 4.43 5.215 9.938 5.12 15.543-1.836 108.171 75.506 216.725 217.631 216.725 109.004 0 201.676-64.482 235.516-153.878 3.034-8.015-5.096-15.661-12.929-12.184-13.84 6.143-33.57 11.905-55.489 9.084z" fill="#ffdc64"/><path d="m335.031 423.148c-141.884 0-272.656-124.615-239.224-348.266 3.825-25.588 19.351-48.5 37.709-63.373-44.197 4.892-81.069 34.083-96.906 73.943-6.578 16.558-8.104 34.702-5.68 52.354l1.901 13.835c2.471 17.994 9.065 35.347 20.178 49.713.093.12.186.24.279.359 3.497 4.485 4.989 10.142 4.906 15.829-1.565 107.989 75.756 216.175 217.64 216.175 26.783 0 52.492-4.073 76.672-11.271-5.787.372-11.587.702-17.475.702z" fill="#ffc850"/><path d="m298.022 185.462c-29.739-23.499-71.661-21.593-100.601 2.883-110.138 93.147 93.021 279.838 252.417 72.882 4.633-6.016 1.399-14.807-6.012-16.455-31.633-7.033-103.457-25.848-145.804-59.31z" fill="#ffc850"/><path d="m25.882 126.482-23.487 19.958c-3.837 3.261-2.916 9.417 1.707 11.413l28.244 12.188c3.618 1.561 7.754-.26 9.104-3.962 3.247-8.907 6.45-25.239-6.048-38.974-2.474-2.721-6.718-3.005-9.52-.623z" fill="#eb914b"/><path d="m443.831 244.768c-7.653-1.703-17.657-4.095-29.022-7.214-67.473 101.387-199.174 123.442-243.908 40.644 27.128 77.121 164.339 131.84 278.951-16.99 4.629-6.01 1.385-14.792-6.021-16.44z" fill="#ebaf4b"/><path d="m104.397 146.059c-14.012 0-25.37-11.359-25.37-25.37v-8.457c0-14.012 11.359-25.37 25.37-25.37 14.012 0 25.37 11.359 25.37 25.37v8.457c0 14.011-11.359 25.37-25.37 25.37z" fill="#4b3f4e"/><path d="m104.397 86.861v29.599c0 7.006 5.679 12.685 12.685 12.685s12.685-5.679 12.685-12.685v-4.228c0-14.012-11.359-25.371-25.37-25.371z" fill="#5d5360"/><circle cx="104.4" cy="103.78" fill="#fff" r="8.457"/></svg>