<svg enable-background="new 0 0 512.001 512.001" viewBox="0 0 512.001 512.001" xmlns="http://www.w3.org/2000/svg"><path d="m322.427 16.516-33.032 1.367v41.34c0 4.381-1.74 8.581-4.838 11.679-6.45 6.45-16.907 6.45-23.357 0-3.098-3.098-4.838-7.298-4.838-11.679v-41.34l-33.032-1.367-20.33 114.727 139.904.886z" fill="#ffdc64"/><path d="m347.201 148.645 8.258 16.516c86.596-19.983 103.341-82.952 106.579-106.557.57-4.156-3.581-7.335-7.399-5.597-20.67 9.41-75.631 38.671-107.438 95.638z" fill="#ebaf4b"/><path d="m198.556 148.645-8.258 16.516c-86.596-19.983-103.341-82.952-106.579-106.557-.57-4.156 3.581-7.335 7.399-5.597 20.67 9.41 75.631 38.671 107.438 95.638z" fill="#ebaf4b"/><path d="m363.717 206.452-90.839 214.71v74.323c0 9.122 7.395 16.516 16.516 16.516h96.715c10.001 0 17.707-8.817 16.367-18.728z" fill="#e69641"/><path d="m347.201 272.516h-11.434l-62.888 148.645v74.323c0 9.121 7.395 16.516 16.516 16.516h33.858z" fill="#d27d38"/><path d="m223.965 363.679c3.805 32.591 24.256 57.482 48.913 57.482 24.739 0 45.244-25.056 48.951-57.806z" fill="#e69641"/><path d="m135.895 394.16c-7.902 11.854-11.226 25.084-10.231 36.842.316 3.736 4.072 6.24 7.642 5.095 11.236-3.604 22.171-11.76 30.073-23.614s11.226-25.084 10.231-36.842c-.316-3.736-4.072-6.24-7.642-5.095-11.236 3.604-22.171 11.761-30.073 23.614z" fill="#afd755"/><path d="m70.974 354.23c-10.317 5.199-17.461 14.13-20.614 24.243-.971 3.115.757 6.377 3.842 7.441 9.977 3.44 21.36 2.994 31.638-2.186 10.317-5.199 17.461-14.13 20.614-24.243.971-3.115-.757-6.377-3.842-7.441-9.978-3.439-21.36-2.994-31.638 2.186z" fill="#bee86e"/><path d="m115.084 324.788c3.345 13.848 10.808 25.267 20.119 32.515 2.959 2.303 7.347 1.243 8.928-2.156 4.977-10.699 6.406-24.265 3.062-38.113-3.345-13.848-10.808-25.267-20.119-32.515-2.959-2.303-7.347-1.243-8.928 2.156-4.977 10.698-6.406 24.265-3.062 38.113z" fill="#bee86e"/><path d="m229.197 380.435c-35.339 0-111.778-4.935-175.278-43.032-3.911-2.347-5.177-7.419-2.831-11.331 2.347-3.919 7.415-5.185 11.331-2.831 79.27 47.556 184.012 40.21 185.056 40.137 4.552-.435 8.512 3.056 8.863 7.605.347 4.548-3.056 8.516-7.601 8.863-1.088.081-8.201.589-19.54.589z" fill="#96be4b"/><path d="m272.878 99.097c-56.891 0-87.575 36.881-96.989 74.323l6.151 41.29s22.193 97.211 30.968 131.356c9.715 37.809 46.107 42.063 59.872 42.063 13.763 0 50.155-4.254 59.87-42.063 8.774-34.146 30.968-131.356 30.968-131.356l6.151-41.29c-9.414-37.443-40.097-74.323-96.991-74.323z" fill="#ffc850"/><path d="m247.391 346.066c-3.735-34.146-13.184-131.356-13.184-131.356l-1.427-22.496c-1.063-16.767.072-33.698 4.51-49.902 6.681-24.397 18.289-43.214 35.589-43.214h-.001c-56.892 0-87.576 36.881-96.989 74.323l6.151 41.29s22.193 97.211 30.968 131.356c9.715 37.808 46.107 42.063 59.871 42.063-5.861-.001-21.353-4.255-25.488-42.064z" fill="#ebaf4b"/><g fill="#4b3f4e"><path d="m248.104 338.581c-2.113 0-4.226-.806-5.839-2.419l-8.258-8.258c-3.226-3.226-3.226-8.452 0-11.677 3.226-3.226 8.452-3.226 11.677 0l8.258 8.258c3.226 3.226 3.226 8.452 0 11.677-1.612 1.612-3.725 2.419-5.838 2.419z"/><path d="m297.653 338.581c-2.113 0-4.226-.806-5.839-2.419-3.226-3.226-3.226-8.452 0-11.677l8.258-8.258c3.226-3.226 8.452-3.226 11.677 0s3.226 8.452 0 11.677l-8.258 8.258c-1.612 1.612-3.725 2.419-5.838 2.419z"/><path d="m363.717 222.968c-13.682 0-24.774-11.092-24.774-24.774v-8.258c0-13.682 11.092-24.774 24.774-24.774 13.682 0 24.774 11.092 24.774 24.774v8.258c0 13.682-11.091 24.774-24.774 24.774z"/></g><path d="m363.717 165.161v28.903c0 6.841 5.546 12.387 12.387 12.387s12.387-5.546 12.387-12.387v-4.129c0-13.682-11.091-24.774-24.774-24.774z" fill="#5d5360"/><circle cx="363.72" cy="181.68" fill="#fff" r="8.258"/><path d="m182.04 222.968c-13.682 0-24.774-11.092-24.774-24.774v-8.258c0-13.682 11.092-24.774 24.774-24.774 13.682 0 24.774 11.092 24.774 24.774v8.258c0 13.682-11.092 24.774-24.774 24.774z" fill="#4b3f4e"/><path d="m182.04 165.161v28.903c0 6.841 5.546 12.387 12.387 12.387s12.387-5.546 12.387-12.387v-4.129c0-13.682-11.092-24.774-24.774-24.774z" fill="#5d5360"/><circle cx="182.04" cy="181.68" fill="#fff" r="8.258"/><path d="m239.846 33.032c-9.122 0-16.516-7.395-16.516-16.516 0-9.121 7.395-16.516 16.516-16.516 9.122 0 16.516 7.395 16.516 16.516 0 9.122-7.394 16.516-16.516 16.516z" fill="#d27d38"/><path d="m305.911 33.032c-9.122 0-16.516-7.395-16.516-16.516 0-9.121 7.394-16.516 16.516-16.516 9.122 0 16.516 7.395 16.516 16.516 0 9.122-7.395 16.516-16.516 16.516z" fill="#d27d38"/></svg>