<svg enable-background="new 0 0 512 512" viewBox="0 0 512 512" xmlns="http://www.w3.org/2000/svg"><path d="m512 11.24s-8.25 143.994-107.348 168.768l-74.324-82.582c24.775-33.032 95.168-97.508 181.672-86.186z" fill="#ff96a0"/><path d="m404.652 180.009-39.494-43.882c14.719-46.958 80.785-113.024 145.413-111.335-4.895 36.431-25.471 135.105-105.919 155.217z" fill="#e6646e"/><path d="m0 11.24s8.25 143.994 107.348 168.768l74.324-82.582c-24.775-33.032-95.168-97.508-181.672-86.186z" fill="#ff96a0"/><path d="m107.348 180.009 39.494-43.882c-14.719-46.958-80.785-113.024-145.414-111.335 4.896 36.431 25.472 135.105 105.92 155.217z" fill="#e6646e"/><path d="m462.451 320.398c0 100.339-92.433 181.68-206.455 181.68s-206.455-81.34-206.455-181.68c0-115.615 92.433-247.746 206.455-247.746s206.455 132.131 206.455 247.746z" fill="#ffaab4"/><path d="m185.253 403.893c8.888 28.305 33.329 48.636 62.089 48.636h17.308c29.068 0 53.725-20.769 62.369-49.549z" fill="#dc4655"/><path d="m348.818 372.484c0 52.988-64.93 36.235-92.749 36.235-27.239 0-92.71 16.753-92.71-36.235 0-54.119 41.463-92.106 92.676-92.106s92.783 37.987 92.783 92.106z" fill="#e6646e"/><path d="m121.112 323.363c0-98.217 56.178-207.355 134.961-250.707-.026 0-.051-.003-.077-.003-114.022 0-206.455 132.131-206.455 247.746 0 94.685 82.321 172.416 187.409 180.881-68.59-32.19-115.838-99.753-115.838-177.917z" fill="#ff96a0"/><ellipse cx="221.864" cy="356.619" fill="#a5465a" rx="20.495" ry="16.703" transform="matrix(.4744 -.8803 .8803 .4744 -197.3232 382.7459)"/><ellipse cx="290.149" cy="356.62" fill="#a5465a" rx="20.495" ry="16.703" transform="matrix(.4744 .8803 -.8803 .4744 466.4368 -67.9822)"/><path d="m165.156 270.849c-13.683 0-24.775-11.092-24.775-24.775v-8.258c0-13.683 11.092-24.775 24.775-24.775 13.683 0 24.775 11.092 24.775 24.775v8.258c-.001 13.683-11.093 24.775-24.775 24.775z" fill="#4b3f4e"/><path d="m165.155 213.042v28.904c0 6.841 5.546 12.387 12.387 12.387s12.387-5.546 12.387-12.387v-4.129c.001-13.683-11.091-24.775-24.774-24.775z" fill="#5d5360"/><circle cx="165.16" cy="229.561" fill="#fff" r="8.258"/><path d="m346.836 270.849c-13.683 0-24.775-11.092-24.775-24.775v-8.258c0-13.683 11.092-24.775 24.775-24.775 13.683 0 24.775 11.092 24.775 24.775v8.258c0 13.683-11.092 24.775-24.775 24.775z" fill="#4b3f4e"/><path d="m346.836 213.042v28.904c0 6.841 5.546 12.387 12.387 12.387s12.387-5.546 12.387-12.387v-4.129c.001-13.683-11.091-24.775-24.774-24.775z" fill="#5d5360"/><circle cx="346.84" cy="229.561" fill="#fff" r="8.258"/></svg>