<svg enable-background="new 0 0 511.999 511.999" viewBox="0 0 511.999 511.999" xmlns="http://www.w3.org/2000/svg"><path d="m440.822 1.159c24.009-6.059 47.346 12.423 46.374 37.166-1.206 30.716-16.487 85.546-49.519 118.579l-107.354-90.839c41.29-41.291 84.901-58.445 110.499-64.906z" fill="#ebaf4b"/><path d="m356.444 88.167c37.96-37.616 80.591-64.159 94.891-67.004 14.681-2.92 25.772 14.679 21.982 35.341-4.421 24.106-23.178 66.993-44.861 92.596z" fill="#e19c46"/><path d="m71.178 1.159c-24.009-6.059-47.346 12.423-46.375 37.166 1.206 30.716 16.487 85.546 49.519 118.579l107.355-90.839c-41.29-41.291-84.901-58.445-110.499-64.906z" fill="#ebaf4b"/><path d="m155.556 88.167c-37.96-37.616-80.591-64.159-94.891-67.004-14.681-2.92-25.772 14.679-21.982 35.341 4.421 24.106 23.178 66.993 44.861 92.596z" fill="#e19c46"/><path d="m256 41.29c-272.516 0-239.484 313.806-239.484 313.806l31.312-11.527s1.72 58.323 26.494 118.882l23.742-27.871c17.548 33.032 50.581 60.903 50.581 60.903l24.774-33.032h165.161l24.774 33.032s33.032-27.871 50.581-60.903l23.742 27.871c24.774-60.559 26.494-118.882 26.494-118.882l31.312 11.527c.001.001 33.033-313.806-239.483-313.806z" fill="#ffc850"/><path d="m90.839 231.226c0-68.979 29.155-131.35 76.16-176.268-175.707 60.343-150.483 300.139-150.483 300.139l31.312-11.527s1.72 58.323 26.494 118.882l23.742-27.871c17.548 33.032 50.581 60.903 50.581 60.903l24.774-33.032h81.511c-95.964-35.749-164.091-125.762-164.091-231.226z" fill="#ebaf4b"/><path d="m350.893 478.868 12.462 16.615s8.731-7.386 19.587-19.016c-10.491 1.435-21.188 2.238-32.049 2.401z" fill="#ebaf4b"/><path d="m36.328 191.86c-28.419 80.507-19.812 163.237-19.812 163.237l31.312-11.527s1.72 58.323 26.494 118.882l23.742-27.871c17.548 33.032 50.581 60.903 50.581 60.903l24.774-33.032c-52.574-45.064-166.579-131.131-137.091-270.592z" fill="#f5dcb4"/><path d="m475.705 191.86c28.419 80.507 19.811 163.237 19.811 163.237l-31.312-11.527s-1.72 58.323-26.494 118.882l-23.742-27.871c-17.548 33.032-50.581 60.903-50.581 60.903l-24.774-33.032c52.575-45.064 166.579-131.131 137.092-270.592z" fill="#faebc8"/><path d="m256 437.677-81.719 18.952c5.111 31.401 32.358 55.37 65.203 55.37h33.032c32.709 0 59.867-23.772 65.139-54.981z" fill="#f5dcb4"/><g fill="#5d5360"><path d="m131.545 365.423c-1.455 0-2.941-.351-4.328-1.093-4.95-2.633-9.779-5.633-14.342-8.923-4.442-3.194-5.602-9.609-2.6-14.331 2.994-4.734 9.028-5.96 13.471-2.766 3.866 2.782 7.952 5.323 12.144 7.552 4.798 2.552 6.739 8.75 4.344 13.851-1.7 3.618-5.126 5.71-8.689 5.71z"/><path d="m92.748 334.742c-3.305 0-6.58-1.484-8.884-4.371-18.14-22.734-25.167-44.754-25.455-45.677-2.032-6.492 1.258-13.508 7.361-15.669 6.072-2.185 12.682 1.327 14.721 7.806.144.452 6.163 18.754 21.127 37.508 4.162 5.218 3.563 13.032-1.342 17.46-2.192 1.975-4.867 2.943-7.528 2.943z"/><path d="m372.197 365.423c-3.563 0-6.989-2.093-8.687-5.71-2.395-5.101-.455-11.298 4.344-13.851 4.192-2.23 8.278-4.77 12.144-7.552 4.435-3.194 10.469-1.968 13.471 2.766 3.002 4.722 1.842 11.137-2.6 14.331-4.563 3.29-9.392 6.29-14.342 8.923-1.389.739-2.875 1.093-4.33 1.093z"/><path d="m410.994 334.742c-2.661 0-5.337-.968-7.527-2.944-4.905-4.427-5.503-12.242-1.342-17.46 15.078-18.895 21.074-37.331 21.127-37.516 2.077-6.464 8.657-9.94 14.744-7.77 6.087 2.177 9.37 9.165 7.338 15.641-.288.923-7.315 22.944-25.455 45.677-2.305 2.888-5.58 4.372-8.885 4.372z"/><path d="m148.653 131.286c-3.403 0-6.742-1.681-8.71-4.766-3.065-4.806-1.661-11.19 3.145-14.258 5.581-3.56 11.452-6.883 17.468-9.883 5.089-2.54 11.306-.472 13.847 4.633 2.54 5.101.468 11.298-4.637 13.843-5.363 2.673-10.597 5.637-15.565 8.81-1.717 1.097-3.645 1.621-5.548 1.621z"/><path d="m313.798 153.887c-1.339 0-2.702-.262-4.016-.819-32.839-13.895-74.726-13.895-107.564 0-5.266 2.214-11.306-.234-13.532-5.488-2.218-5.25.234-11.306 5.484-13.528 37.903-16.024 85.758-16.024 123.661 0 5.25 2.222 7.702 8.278 5.484 13.528-1.67 3.94-5.492 6.307-9.517 6.307z"/><path d="m363.347 131.286c-1.903 0-3.823-.524-5.548-1.621-4.968-3.173-10.202-6.137-15.565-8.81-5.105-2.544-7.177-8.742-4.637-13.843 2.54-5.109 8.75-7.19 13.847-4.633 6.016 3 11.887 6.323 17.468 9.883 4.806 3.069 6.21 9.452 3.145 14.258-1.968 3.085-5.307 4.766-8.71 4.766z"/><path d="m314.742 111.488c-1.153 0-2.315-.161-3.476-.5-35.339-10.298-75.194-10.298-110.532 0-6.548 1.911-13.444-1.847-15.363-8.423-1.911-6.569 1.863-13.444 8.427-15.359 39.839-11.621 84.564-11.621 124.403 0 6.565 1.915 10.339 8.79 8.427 15.359-1.58 5.411-6.523 8.923-11.886 8.923z"/></g><path d="m152.774 305.548c-15.897 0-28.903-13.006-28.903-28.903v-16.516c0-15.897 13.006-28.903 28.903-28.903 15.897 0 28.903 13.006 28.903 28.903v16.516c0 15.897-13.006 28.903-28.903 28.903z" fill="#4b3f4e"/><path d="m152.774 231.226c-1.413 0-2.769.221-4.129.419v40.871c0 9.121 7.395 16.516 16.516 16.516 9.122 0 16.516-7.395 16.516-16.516v-12.387c0-15.897-13.006-28.903-28.903-28.903z" fill="#5d5360"/><circle cx="152.77" cy="251.87" fill="#fff" r="12.387"/><path d="m359.226 305.548c-15.897 0-28.903-13.006-28.903-28.903v-16.516c0-15.897 13.006-28.903 28.903-28.903 15.897 0 28.903 13.006 28.903 28.903v16.516c0 15.897-13.006 28.903-28.903 28.903z" fill="#4b3f4e"/><path d="m359.226 231.226c-1.413 0-2.769.221-4.129.419v40.871c0 9.121 7.395 16.516 16.516 16.516 9.122 0 16.516-7.395 16.516-16.516v-12.387c0-15.897-13.007-28.903-28.903-28.903z" fill="#5d5360"/><circle cx="359.23" cy="251.87" fill="#fff" r="12.387"/><path d="m309.677 363.355c-22.977 0-42.987 10.034-53.677 24.9-10.691-14.866-30.7-24.9-53.677-24.9-34.206 0-61.935 22.183-61.935 49.548s27.729 49.548 61.935 49.548c22.977 0 42.987-10.034 53.677-24.9 10.691 14.866 30.7 24.9 53.677 24.9 34.206 0 61.935-22.183 61.935-49.548.001-27.365-27.728-49.548-61.935-49.548z" fill="#faebc8"/><path d="m202.876 381.513 20.915 17.437c18.657 15.555 45.764 15.555 64.421 0l20.914-17.437c9.265-7.725 3.863-22.807-8.2-22.807-26.711 0-63.138 0-89.849-.001-12.065.001-17.467 15.083-8.201 22.808z" fill="#ff8087"/><path d="m256.823 405.483-20.915-25.41c-4.755-5.777-5.626-14.363-3.738-21.367-7.42 0-14.553 0-21.094 0-12.063 0-17.465 15.082-8.2 22.807l20.915 17.437c10.743 8.957 24.276 12.582 37.396 11.224-1.494-1.45-2.96-2.984-4.364-4.691z" fill="#e6646e"/><path d="m306.097 470.71c-16.831 0-32.694-5.581-45.855-16.133-2.5-2-5.992-2-8.476 0-13.169 10.552-29.032 16.133-45.863 16.133-40.677 0-73.774-33.343-73.774-74.323 0-4.56 3.694-8.258 8.258-8.258s8.258 3.698 8.258 8.258c0 31.875 25.685 57.806 57.258 57.806 13.04 0 25.323-4.323 35.532-12.504 8.565-6.879 20.556-6.879 29.137 0 10.202 8.181 22.484 12.504 35.524 12.504 31.573 0 57.258-25.931 57.258-57.806 0-4.56 3.694-8.258 8.258-8.258 4.565 0 8.258 3.698 8.258 8.258.001 40.98-33.096 74.323-73.773 74.323z" fill="#d4af91"/></svg>