<svg enable-background="new 0 0 512 512" viewBox="0 0 512 512" xmlns="http://www.w3.org/2000/svg"><path d="m456.409 4.169c11.115-4.246 23.06 4.141 22.543 16.028-4.168 95.801-33.016 174.947-33.016 174.947l-132.129-82.581c49.661-59.814 113.194-97.159 142.602-108.394z" fill="#6f6571"/><path d="m451.187 33.241c6.791-3.806 13.707 4.346 13.046 15.574-5.33 90.484-33.265 152.522-33.265 152.522l-68.503-68.302c31.55-55.612 70.754-89.724 88.722-99.794z" fill="#c0bcc1"/><path d="m55.591 4.169c-11.115-4.246-23.06 4.141-22.543 16.028 4.168 95.801 33.016 174.947 33.016 174.947l132.129-82.581c-49.661-59.814-113.195-97.159-142.602-108.394z" fill="#6f6571"/><path d="m60.813 33.241c-6.791-3.806-13.707 4.346-13.046 15.574 5.33 90.484 33.265 152.522 33.265 152.522l68.503-68.302c-31.55-55.612-70.754-89.724-88.722-99.794z" fill="#c0bcc1"/><ellipse cx="256" cy="475.92" fill="#5d5360" rx="49.548" ry="33.03"/><path d="m512 343.789c-31.474-159.217-135.151-247.742-256-247.742s-224.526 88.525-256 247.742c0 0 48.058 13.783 53.81 16.516l-7.881 32.897c-.734 3.063 1.02 6.171 4.025 7.118 18.951 5.972 84.246 27.329 128.014 51.354h156.063c43.768-24.025 109.063-45.382 128.014-51.354 3.004-.947 4.758-4.055 4.025-7.118l-7.881-32.897c5.753-2.733 53.811-16.516 53.811-16.516z" fill="#867e88"/><path d="m256 319.014c-27.094 0-51.5 16.345-61.855 41.382-10.345 25.011-20.725 49.89-20.725 74.231 0 23.889 30.595 59.064 77.323 39.916 3.391-1.39 7.124-1.39 10.515 0 46.728 19.149 77.323-16.026 77.323-39.916 0-24.342-10.38-49.22-20.725-74.231-10.356-25.037-34.762-41.382-61.856-41.382z" fill="#6f6571"/><path d="m45.93 393.201c-.734 3.063 1.02 6.171 4.025 7.118 18.951 5.972 84.246 27.329 128.014 51.354v-.001c-2.921-5.759-4.549-11.681-4.549-17.045 0-48.483 41.29-99.097 41.29-148.645 0-35.097-25.291-73.29-74.323-66.065-40.728 6.003-92.903 35.097-140.387 123.872 0 0 48.058 13.783 53.81 16.516z" fill="#c0bcc1"/><path d="m466.07 393.201c.734 3.063-1.02 6.171-4.025 7.118-18.951 5.972-84.246 27.329-128.014 51.354v-.001c2.921-5.759 4.549-11.681 4.549-17.045 0-48.483-41.29-99.097-41.29-148.645 0-35.097 25.29-73.29 74.323-66.065 40.728 6.002 92.903 35.097 140.387 123.871 0 0-48.058 13.783-53.81 16.516z" fill="#c0bcc1"/><path d="m152.774 327.272c-15.897 0-28.903-13.006-28.903-28.903v-16.516c0-15.897 13.006-28.903 28.903-28.903 15.897 0 28.903 13.006 28.903 28.903v16.516c0 15.897-13.006 28.903-28.903 28.903z" fill="#4b3f4e"/><path d="m152.774 252.95c-1.413 0-2.769.221-4.129.419v40.871c0 9.121 7.395 16.516 16.516 16.516 9.122 0 16.516-7.395 16.516-16.516v-12.387c0-15.897-13.006-28.903-28.903-28.903z" fill="#5d5360"/><circle cx="152.77" cy="273.6" fill="#fff" r="12.387"/><path d="m359.226 327.272c-15.897 0-28.903-13.006-28.903-28.903v-16.516c0-15.897 13.006-28.903 28.903-28.903 15.897 0 28.903 13.006 28.903 28.903v16.516c0 15.897-13.006 28.903-28.903 28.903z" fill="#4b3f4e"/><path d="m359.226 252.95c-1.413 0-2.769.221-4.129.419v40.871c0 9.121 7.395 16.516 16.516 16.516 9.122 0 16.516-7.395 16.516-16.516v-12.387c0-15.897-13.007-28.903-28.903-28.903z" fill="#5d5360"/><circle cx="359.23" cy="273.6" fill="#fff" r="12.387"/><path d="m297.29 420.726c0-15.127-18.7-27.389-41.768-27.389s-41.768 12.262-41.768 27.389c0 10.251 14.598 18.307 27.676 24.163 3.854 1.726 6.311 5.543 6.311 9.766v20.928c1.007-.368 1.978-.621 3.001-1.04 3.391-1.39 7.124-1.39 10.515 0 1.023.419 1.993.672 3 1.04v-21.022c0-4.189 2.421-7.982 6.229-9.727 12.767-5.852 26.804-13.89 26.804-24.108z" fill="#4b3f4e"/><path d="m256 96.047c-120.849 0-224.526 88.525-256 247.742 0 0 48.058 13.783 53.81 16.516l-7.881 32.897c-.734 3.063 1.021 6.171 4.025 7.118 9.015 2.842 28.515 9.165 51.191 17.597-39.017-244.621 124.422-321.87 154.855-321.87z" fill="#6f6571"/><path d="m101.146 417.917c-13.008-81.554-3.599-144.526 15.993-192.192-36.295 12.767-78.283 45.42-117.139 118.064 0 0 48.058 13.783 53.81 16.516l-7.881 32.897c-.734 3.063 1.021 6.171 4.025 7.118 9.015 2.842 28.515 9.166 51.192 17.597z" fill="#aea8af"/></svg>