<svg enable-background="new 0 0 512.001 512.001" viewBox="0 0 512.001 512.001" xmlns="http://www.w3.org/2000/svg"><path d="m239.468 112.936-36.239-57.983c-2.666-4.265-.958-10.008 3.674-11.969 117.552-49.758 222.348 8.77 299.67 104.413 3.546 4.386 5.427 9.905 5.427 15.545v156.458z" fill="#c0bcc1"/><path d="m390.186 159.734c-5.421-63.243-27.988-105.59-42.891-127.32-43.818-12.072-90.971-10.349-140.392 10.571-4.632 1.96-6.34 7.703-3.675 11.968l36.24 57.983 114.72 86.909c23.298-4.598 38.022-16.506 35.998-40.111z" fill="#4b3f4e"/><path d="m405.84 238.975 26.911 20.387c17.795-42.147 26.286-98.561 13.554-173.428-12.697-10.437-25.869-19.79-39.484-27.852 19.409 80.094 14.476 138.6-.981 180.893z" fill="#4b3f4e"/><path d="m471.543 108.689c5.764 68.364-5.928 120.869-25.257 160.928l26.484 20.064c18.816-36.577 32.551-83.545 33.195-143.017-10.936-13.477-22.432-26.185-34.422-37.975z" fill="#4b3f4e"/><path d="m322.05 87.167s-49.548-15.524-115.616 34.027c-36.988 27.741-168.633 144.422-200.94 173.441-4.612 4.143-6.541 10.487-4.939 16.476 5.145 19.239 21.298 61.637 51.866 64.724 2.866.289 7.692-1.319 13.524-4.031l28.374 19.195c4.337 3.05 9.835 3.874 14.842 2.127 35.121-12.253 130.265-50.58 194.52-74.71 17.803 39.407 48.221 108.354 70.588 167.588 3.233 8.561 12.776 12.828 21.313 9.53 24.148-9.329 71.309-30.737 106.886-66.695 6.124-6.19 9.533-14.584 9.533-23.291v-120.683c0-10.207-2.804-20.227-7.94-29.048-88.583-152.143-182.011-168.65-182.011-168.65z" fill="#dbd9dc"/><path d="m113.754 288.236c-37.101-10.415-47.279-38.442-49.366-45.879-25.936 22.854-48.035 42.525-58.894 52.278-4.612 4.143-6.541 10.487-4.939 16.476 5.145 19.239 21.298 61.637 51.866 64.724 2.866.289 7.692-1.319 13.524-4.031l28.374 19.195c4.337 3.05 9.835 3.874 14.842 2.127 18.19-6.346 52.507-19.697 90.267-34.436-1.85-11.734-13.409-50.168-85.674-70.454z" fill="#5d5360"/><path d="m33.004 337.981c-2.641 0-5.283-1.008-7.299-3.024-4.032-4.033-4.032-10.565 0-14.598l8.259-8.259c4.032-4.033 10.565-4.033 14.598 0s4.032 10.565 0 14.598l-8.259 8.259c-2.016 2.016-4.658 3.024-7.299 3.024z" fill="#4b3f4e"/><path d="m270.761 19.476c-10.547 37.066-3.612 73.076-.026 87.2.935 3.682 4.216 6.26 8.015 6.26h34.893c4.733 0 8.428-3.978 8.254-8.708-2.358-63.867-30.552-83.004-43.256-88.405-3.197-1.359-6.93.313-7.88 3.653z" fill="#c0bcc1"/><path d="m132.28 339.474c-2.657-3.71-7.819-4.573-11.521-1.919-18.81 13.433-41.105 27.52-54.754 34.289l15.5 10.486c17.675-9.553 37.922-23.527 48.852-31.338 3.713-2.647 4.572-7.808 1.923-11.518z" fill="#4b3f4e"/><path d="m196.799 239.567c-61.937-7.668-79.084-33.478-82.733-40.715-6.422 5.585-12.867 11.207-19.263 16.801 17.321 39.922 60.431 50.063 66.898 51.443 69.059 14.736 79.881 60.273 81.577 74.497 15.097-5.869 29.947-11.607 43.879-16.917-1.606-35.473-23.973-76.89-90.358-85.109z" fill="#5d5360"/><path d="m239.468 216.168c-13.683 0-24.776-11.092-24.776-24.776v-8.259c0-13.683 11.092-24.776 24.776-24.776 13.683 0 24.776 11.092 24.776 24.776v8.259c0 13.683-11.093 24.776-24.776 24.776z" fill="#4b3f4e"/><path d="m239.468 158.358v28.905c0 6.842 5.546 12.388 12.388 12.388s12.388-5.546 12.388-12.388v-4.129c0-13.684-11.093-24.776-24.776-24.776z" fill="#5d5360"/><circle cx="239.47" cy="174.87" fill="#fff" r="8.259"/><path d="m320.763 153.672c-3.714 2.637-4.585 7.799-1.944 11.509.464.661 46.374 66.076 31.022 112.934-6.101 18.614-21.63 32.171-46.16 40.301 2.087 4.619 4.375 9.713 6.775 15.08 28.85-9.952 47.425-26.829 55.095-50.275 17.916-54.794-31.175-124.661-33.276-127.612-2.645-3.712-7.79-4.583-11.512-1.937z" fill="#c9c6ca"/><g fill="#5d5360"><path d="m309.439 197.213c-3.162-3.061-8.193.257-6.84 4.444 15.831 49.023 6.177 91.021-6.261 119.532 2.461-.931 4.963-1.881 7.344-2.775.121-.04.243-.081.364-.121 20.323-6.805 34.403-25.955 35.344-47.366 1.603-36.532-16.936-61.116-29.951-73.714z"/><path d="m326.87 370.686c39.773-21.056 115.376-77.414 124.519-190.443-.483-.574-.966-1.14-1.448-1.707-1.968-2.315-3.932-4.59-5.883-6.792-.778-.877-1.552-1.731-2.327-2.59-1.879-2.085-3.752-4.132-5.612-6.114-.884-.941-1.762-1.857-2.641-2.775-1.724-1.802-3.44-3.573-5.145-5.288-.985-.991-1.965-1.956-2.943-2.919-1.6-1.575-3.193-3.124-4.774-4.624-.418-.396-.831-.776-1.248-1.167 3.222 121.893-53.699 178.626-101.397 204.137 2.86 6.468 5.832 13.24 8.899 20.282z"/><path d="m336.654 393.359c2.642 6.179 5.307 12.46 7.978 18.819 20.884-10.493 52.751-29.348 77.391-53.437 26.515-25.917 55.08-65.027 71.147-120.843-.11-.174-.219-.343-.329-.517-4.065-6.45-8.13-12.65-12.187-18.569-.02-.029-.04-.06-.06-.089-4.032-5.879-8.054-11.473-12.062-16.841-.146-.195-.29-.382-.436-.576-19.023 106.565-84.208 166.922-131.442 192.053z"/><path d="m511.536 278.058c-.1-.806-.249-1.603-.384-2.404-.236-1.418-.524-2.824-.865-4.22-.235-.953-.474-1.904-.757-2.844-.379-1.266-.833-2.506-1.298-3.744-.342-.91-.64-1.835-1.026-2.729-35.979 96.006-102.931 151.356-153.077 172.942 2.638 6.437 5.25 12.875 7.815 19.294 20.377-8.66 51.46-24.062 77.076-44.2 23.728-18.653 50.439-45.478 72.98-82.818v-42.472c0-2.283-.189-4.551-.464-6.805z"/><path d="m371.31 478.245c.995 2.594 1.978 5.174 2.947 7.737 3.24 8.574 12.768 12.857 21.318 9.554 24.146-9.327 71.312-30.736 106.893-66.697 6.124-6.19 9.533-14.584 9.533-23.291v-48.983c-32.479 56.987-85.693 98.646-140.691 121.68z"/></g></svg>