<svg height="522" viewBox="0 0 330 522" width="330" xmlns="http://www.w3.org/2000/svg"><path d="m128.158 82.881c-15.789-5.351-27.158-20.284-27.158-37.881 0-22.091 17.909-40 40-40h47.796c22.091 0 40 17.909 40 40 0 17.541-11.295 32.434-27.005 37.829 23.993 16.657 48.577 46.839 68.703 82.05l-120.565 120.564a6 6 0 0 0 0 8.485l14.142 14.142a6 6 0 0 0 8.485 0l113.344-113.344c17.758 38.297 29.371 79.443 29.371 114.273 0 53.786-22.897 75.788-58.446 86.033v57.968h-183.651v-57.97c-35.543-10.246-58.435-32.249-58.435-86.03 0-78.029 58.281-187.766 113.419-226.119zm196.842 422.119v-24c0-6.627-5.373-12-12-12h-296c-6.627 0-12 5.373-12 12v24c0 6.627 5.373 12 12 12h296c6.627 0 12-5.373 12-12z" fill="#fff" stroke="#000" stroke-width="10"/></svg>