<?xml version="1.0" encoding="UTF-8" standalone="no"?>
<svg
   xmlns:dc="http://purl.org/dc/elements/1.1/"
   xmlns:cc="http://creativecommons.org/ns#"
   xmlns:rdf="http://www.w3.org/1999/02/22-rdf-syntax-ns#"
   xmlns:svg="http://www.w3.org/2000/svg"
   xmlns="http://www.w3.org/2000/svg"
   xmlns:sodipodi="http://sodipodi.sourceforge.net/DTD/sodipodi-0.dtd"
   xmlns:inkscape="http://www.inkscape.org/namespaces/inkscape"
   aria-hidden="true"
   data-prefix="fas"
   data-icon="chess-knight"
   class="svg-inline--fa fa-chess-knight fa-w-12"
   role="img"
   viewBox="0 0 384 480"
   version="1.1"
   id="svg12"
   sodipodi:docname="chess-knight2.svg"
   width="384"
   height="480"
   inkscape:version="0.92.2 5c3e80d, 2017-08-06">
  <metadata
     id="metadata18">
    <rdf:RDF>
      <cc:Work
         rdf:about="">
        <dc:format>image/svg+xml</dc:format>
        <dc:type
           rdf:resource="http://purl.org/dc/dcmitype/StillImage" />
        <dc:title></dc:title>
      </cc:Work>
    </rdf:RDF>
  </metadata>
  <defs
     id="defs16" />
  <sodipodi:namedview
     pagecolor="#ffffff"
     bordercolor="#666666"
     borderopacity="1"
     objecttolerance="10"
     gridtolerance="10"
     guidetolerance="10"
     inkscape:pageopacity="0"
     inkscape:pageshadow="2"
     inkscape:window-width="1007"
     inkscape:window-height="712"
     id="namedview14"
     showgrid="false"
     fit-margin-top="0"
     fit-margin-left="0"
     fit-margin-right="0"
     fit-margin-bottom="0"
     inkscape:zoom="1.6757812"
     inkscape:cx="192"
     inkscape:cy="122.573"
     inkscape:window-x="0"
     inkscape:window-y="0"
     inkscape:window-maximized="0"
     inkscape:current-layer="svg12" />
  <path
     d="M 352,192 V 416 H 32 v -46.557 c 0,-30.302 17.12,-58.003 44.223,-71.554 l 57.243,-28.622 A 48,48 0 0 0 160,226.334 V 176 l -22.127,11.063 a 23.996,23.996 0 0 0 -12.55,15.645 l -11.835,47.338 a 12,12 0 0 1 -7.185,8.231 l -29.601,11.84 a 11.998,11.998 0 0 1 -9.33,-0.176 L 7.1260001,243.167 A 12,12 0 0 1 8.7007344e-8,232.201 V 73.941 C 8.7007344e-8,67.576 2.5290001,61.471 7.0300001,56.97 L 16,48 1.7890001,19.578 A 16.937,16.937 0 0 1 8.7007344e-8,12 C 8.7007344e-8,5.373 5.3730001,0 12,0 h 148 c 106.039,0 192,85.961 192,192 z m 20,240 H 12 C 5.3730001,432 8.7007344e-8,437.373 8.7007344e-8,444 v 24 C 8.7007344e-8,474.627 5.3730001,480 12,480 h 360 c 6.627,0 12,-5.373 12,-12 v -24 c 0,-6.627 -5.373,-12 -12,-12 z M 52,96 c -11.046,0 -20,8.954 -20,20 0,11.046 8.954,20 20,20 11.046,0 20,-8.954 20,-20 0,-11.046 -8.954,-20 -20,-20 z"
     id="path10"
     inkscape:connector-curvature="0"
     style="fill:currentColor" />
</svg>
