<svg xmlns:dc="http://purl.org/dc/elements/1.1/" xmlns:cc="http://creativecommons.org/ns#" xmlns:rdf="http://www.w3.org/1999/02/22-rdf-syntax-ns#" xmlns:svg="http://www.w3.org/2000/svg" xmlns="http://www.w3.org/2000/svg" aria-hidden="true" data-prefix="fas" data-icon="chess-knight" class="svg-inline--fa fa-chess-knight fa-w-12" role="img" viewBox="0 0 384 480" version="1.1" id="svg12" width="384" height="480"><metadata id="metadata18"><rdf:RDF><cc:Work><dc:format>image/svg+xml</dc:format><dc:type rdf:resource="http://purl.org/dc/dcmitype/StillImage"/><dc:title/></cc:Work></rdf:RDF></metadata><path d="M 352,192 V 416 H 32 v -46.557 c 0,-30.302 17.12,-58.003 44.223,-71.554 l 57.243,-28.622 A 48,48 0 0 0 160,226.334 V 176 l -22.127,11.063 a 23.996,23.996 0 0 0 -12.55,15.645 l -11.835,47.338 a 12,12 0 0 1 -7.185,8.231 l -29.601,11.84 a 11.998,11.998 0 0 1 -9.33,-0.176 L 7.1260001,243.167 A 12,12 0 0 1 8.7007344e-8,232.201 V 73.941 C 8.7007344e-8,67.576 2.5290001,61.471 7.0300001,56.97 L 16,48 1.7890001,19.578 A 16.937,16.937 0 0 1 8.7007344e-8,12 C 8.7007344e-8,5.373 5.3730001,0 12,0 h 148 c 106.039,0 192,85.961 192,192 z m 20,240 H 12 C 5.3730001,432 8.7007344e-8,437.373 8.7007344e-8,444 v 24 C 8.7007344e-8,474.627 5.3730001,480 12,480 h 360 c 6.627,0 12,-5.373 12,-12 v -24 c 0,-6.627 -5.373,-12 -12,-12 z M 52,96 c -11.046,0 -20,8.954 -20,20 0,11.046 8.954,20 20,20 11.046,0 20,-8.954 20,-20 0,-11.046 -8.954,-20 -20,-20 z" id="path10" fill="currentColor"/></svg>