<svg height="458" viewBox="0 0 298 458" width="298" xmlns="http://www.w3.org/2000/svg"><path d="m253 389h-208s60-42.743 60-176h-32c-6.627 0-12-5.373-12-12v-24c0-6.627 5.373-12 12-12h40.209c-28.488-13.44-48.209-42.412-48.209-76 0-46.392 37.608-84 84-84s84 37.608 84 84c0 33.588-19.721 62.56-48.209 76h40.209c6.627 0 12 5.373 12 12v24c0 6.627-5.373 12-12 12h-32c0 133.257 60 176 60 176zm28 16h-264c-6.627 0-12 5.373-12 12v24c0 6.627 5.373 12 12 12h264c6.627 0 12-5.373 12-12v-24c0-6.627-5.373-12-12-12z" fill="#fff" stroke="#000" stroke-width="10"/></svg>