<svg height="490" viewBox="0 0 394 490" width="394" xmlns="http://www.w3.org/2000/svg"><path d="m86.241 188.027c-.284 43.893-3.83 133.049-33.241 232.973h287.982c-29.4-99.604-32.936-188.912-33.221-232.975l45.418-42.312a11.998 11.998 0 0 0 3.82-8.78v-119.933c0-6.627-5.373-12-12-12h-40c-6.627 0-12 5.373-12 12v44h-48v-44c0-6.627-5.373-12-12-12h-72c-6.627 0-12 5.373-12 12v44h-47.999v-44c0-6.627-5.373-12-12-12h-40c-6.627 0-12 5.373-12 12v119.932c0 3.33 1.384 6.51 3.82 8.78zm78.759 40.973c0-17.673 14.327-32 32-32s32 14.327 32 32v64.004h-64zm224 220v24c0 6.627-5.373 12-12 12h-360c-6.627 0-12-5.373-12-12v-24c0-6.627 5.373-12 12-12h360c6.627 0 12 5.373 12 12z" fill="#fff" stroke="#000" stroke-width="10"/></svg>