<?xml version="1.0" encoding="UTF-8" standalone="no"?>
<svg
   xmlns:dc="http://purl.org/dc/elements/1.1/"
   xmlns:cc="http://creativecommons.org/ns#"
   xmlns:rdf="http://www.w3.org/1999/02/22-rdf-syntax-ns#"
   xmlns:svg="http://www.w3.org/2000/svg"
   xmlns="http://www.w3.org/2000/svg"
   xmlns:sodipodi="http://sodipodi.sourceforge.net/DTD/sodipodi-0.dtd"
   xmlns:inkscape="http://www.inkscape.org/namespaces/inkscape"
   aria-hidden="true"
   data-prefix="fas"
   data-icon="chess-rook"
   class="svg-inline--fa fa-chess-rook fa-w-12"
   role="img"
   viewBox="0 0 384 480"
   version="1.1"
   id="svg12"
   sodipodi:docname="chess-rook2.svg"
   width="384"
   height="480"
   inkscape:version="0.92.2 5c3e80d, 2017-08-06">
  <metadata
     id="metadata18">
    <rdf:RDF>
      <cc:Work
         rdf:about="">
        <dc:format>image/svg+xml</dc:format>
        <dc:type
           rdf:resource="http://purl.org/dc/dcmitype/StillImage" />
        <dc:title></dc:title>
      </cc:Work>
    </rdf:RDF>
  </metadata>
  <defs
     id="defs16" />
  <sodipodi:namedview
     pagecolor="#ffffff"
     bordercolor="#666666"
     borderopacity="1"
     objecttolerance="10"
     gridtolerance="10"
     guidetolerance="10"
     inkscape:pageopacity="0"
     inkscape:pageshadow="2"
     inkscape:window-width="1201"
     inkscape:window-height="798"
     id="namedview14"
     showgrid="false"
     fit-margin-top="0"
     fit-margin-left="0"
     fit-margin-right="0"
     fit-margin-bottom="0"
     inkscape:zoom="1.6757812"
     inkscape:cx="192"
     inkscape:cy="457.40834"
     inkscape:window-x="0"
     inkscape:window-y="0"
     inkscape:window-maximized="0"
     inkscape:current-layer="svg12" />
  <path
     d="M 81.241,183.027 C 80.957,226.92 77.411,316.076 48,416 h 287.982 c -29.4,-99.604 -32.936,-188.912 -33.221,-232.975 l 45.418,-42.312 a 11.998,11.998 0 0 0 3.82,-8.78 V 12 c 0,-6.627 -5.373,-12 -12,-12 h -40 c -6.627,0 -12,5.373 -12,12 v 44 h -48 V 12 c 0,-6.627 -5.373,-12 -12,-12 h -72 c -6.627,0 -12,5.373 -12,12 V 56 H 96 V 12 C 96,5.373 90.627,0 84,0 H 44 C 37.373,0 32,5.373 32,12 v 119.932 c 0,3.33 1.384,6.51 3.82,8.78 z M 160,224 c 0,-17.673 14.327,-32 32,-32 17.673,0 32,14.327 32,32 v 64.004 h -64 z m 224,220 v 24 c 0,6.627 -5.373,12 -12,12 H 12 C 5.373,480 0,474.627 0,468 v -24 c 0,-6.627 5.373,-12 12,-12 h 360 c 6.627,0 12,5.373 12,12 z"
     id="path10"
     inkscape:connector-curvature="0"
     style="fill:currentColor" />
</svg>
