<?xml version="1.0" standalone="no"?>
<!DOCTYPE svg PUBLIC "-//W3C//DTD SVG 20010904//EN"
 "http://www.w3.org/TR/2001/REC-SVG-20010904/DTD/svg10.dtd">
<svg version="1.0" xmlns="http://www.w3.org/2000/svg"
 width="1024.000000pt" height="1024.000000pt" viewBox="0 0 1024.000000 1024.000000"
 preserveAspectRatio="xMidYMid meet">
<metadata>
Created by potrace 1.11, written by Peter Selinger 2001-2013
</metadata>
<g transform="translate(0.000000,1024.000000) scale(0.100000,-0.100000)"
fill="#000000" stroke="none">
<path d="M4900 8944 c-116 -16 -142 -22 -224 -45 -39 -11 -75 -22 -81 -23 -67
-19 -250 -102 -337 -153 -128 -76 -346 -262 -434 -374 -48 -59 -104 -139 -103
-145 0 -4 -4 -10 -9 -13 -11 -7 -92 -149 -92 -162 0 -5 -4 -9 -10 -9 -5 0 -9
-3 -8 -7 1 -5 -6 -26 -16 -48 -26 -58 -57 -138 -62 -155 -2 -8 -13 -49 -24
-90 -30 -111 -50 -232 -56 -350 -4 -58 -6 -109 -5 -115 0 -5 2 -41 5 -80 16
-243 77 -460 189 -675 150 -288 399 -540 692 -700 79 -43 81 -45 34 -43 -22 0
-43 4 -46 7 -3 3 -13 1 -22 -4 -10 -5 -23 -5 -31 0 -8 5 -22 4 -32 -1 -12 -6
-18 -6 -18 0 0 6 -11 6 -30 1 -17 -5 -32 -5 -35 0 -3 5 -16 5 -30 0 -15 -6
-27 -6 -30 0 -3 5 -15 6 -29 0 -12 -4 -29 -4 -36 0 -8 5 -21 5 -30 0 -9 -5
-22 -5 -30 0 -8 5 -21 5 -30 0 -9 -5 -22 -5 -29 -1 -7 5 -29 5 -50 1 -21 -4
-47 -3 -59 1 -12 5 -24 4 -27 -1 -3 -6 -15 -6 -30 0 -15 6 -27 6 -30 -1 -4 -5
-10 -7 -15 -4 -4 3 -25 6 -47 6 -151 5 -258 -75 -279 -207 -3 -22 -8 -42 -10
-46 -2 -4 0 -9 5 -13 6 -3 8 -11 6 -18 -9 -23 -10 -137 -2 -137 5 0 5 -5 2
-10 -9 -14 -10 -108 -2 -116 3 -4 3 -14 -2 -23 -5 -9 -5 -25 -1 -36 4 -11 4
-34 -1 -52 -4 -18 -4 -33 0 -33 3 0 7 -22 7 -48 3 -118 97 -211 221 -218 29
-2 57 -5 61 -8 4 -2 14 -1 21 4 8 4 26 4 41 0 15 -4 33 -4 40 0 6 4 27 4 45 0
18 -4 38 -4 45 0 7 4 27 4 46 0 19 -4 36 -4 39 0 3 5 18 5 34 0 15 -4 34 -4
41 0 7 4 26 4 41 0 16 -5 31 -5 34 0 3 5 18 5 34 0 15 -4 34 -4 41 0 7 4 26 4
42 0 15 -5 32 -9 36 -9 13 -2 3 -459 -13 -626 -2 -22 -6 -71 -10 -110 -9 -111
-14 -153 -31 -280 -3 -22 -8 -56 -9 -75 -4 -38 -41 -245 -50 -282 -3 -13 -8
-36 -10 -53 -2 -16 -4 -30 -5 -30 -1 0 -3 -11 -6 -25 -11 -62 -40 -178 -81
-325 -25 -88 -46 -164 -47 -170 -1 -5 -7 -23 -13 -40 -23 -62 -26 -70 -29 -87
-3 -14 -35 -98 -69 -183 -4 -11 -9 -25 -10 -31 -2 -5 -14 -36 -29 -67 -14 -32
-26 -59 -26 -62 0 -21 -183 -368 -246 -467 -24 -37 -44 -71 -44 -74 0 -3 -6
-11 -13 -18 -6 -8 -30 -39 -52 -71 -80 -114 -171 -222 -280 -329 -60 -61 -103
-107 -94 -104 9 4 22 1 28 -5 8 -8 11 -8 11 0 0 7 11 8 33 4 17 -4 47 -4 65 0
17 3 32 3 32 -2 0 -4 12 -4 28 0 15 5 37 5 49 0 12 -4 25 -4 28 1 3 5 18 5 35
0 17 -5 30 -5 30 0 0 4 15 5 33 1 17 -4 46 -4 62 -1 17 3 44 3 60 0 17 -4 45
-3 63 1 17 3 32 3 32 -2 0 -4 13 -4 29 1 15 4 34 4 42 0 7 -5 20 -5 30 0 9 5
19 7 22 3 8 -7 174 -6 187 2 5 3 10 3 10 -2 0 -8 125 -7 147 2 7 2 13 1 13 -3
0 -8 126 -6 147 3 7 2 13 1 13 -3 0 -4 18 -7 40 -7 22 0 40 3 40 6 0 4 16 3
35 -1 19 -4 35 -5 35 -1 0 4 21 5 48 1 26 -3 64 -3 85 1 20 3 37 3 37 0 0 -7
128 -4 147 4 7 2 13 1 13 -3 0 -8 126 -6 147 3 7 2 13 1 13 -3 0 -4 18 -7 40
-7 22 0 40 3 40 6 0 4 16 3 35 -1 19 -4 35 -5 35 -1 0 7 106 5 126 -3 8 -3 14
-1 14 3 0 5 15 6 33 2 17 -4 47 -4 65 0 17 3 32 3 32 -2 0 -4 13 -4 30 1 17 5
32 5 35 0 3 -5 15 -6 28 -1 12 5 32 5 44 0 12 -4 25 -4 28 1 3 5 18 5 35 0 17
-5 30 -6 30 -2 0 4 16 7 35 7 19 0 35 -3 35 -7 0 -4 13 -3 28 2 16 4 35 4 43
-1 8 -4 21 -4 29 1 7 4 24 4 36 0 14 -6 26 -5 29 0 3 5 18 5 35 0 17 -5 30 -5
30 0 0 4 15 5 33 1 17 -4 47 -4 65 0 17 3 32 3 32 -2 0 -4 13 -4 30 1 17 5 32
5 35 0 3 -5 16 -5 28 -1 12 5 34 5 49 0 16 -4 28 -4 28 1 0 4 15 5 33 1 17 -4
47 -4 65 0 17 3 32 4 32 0 0 -7 107 -4 127 3 7 3 15 1 18 -4 3 -5 15 -6 28 -1
13 5 30 5 38 1 8 -5 21 -5 28 0 8 4 27 4 42 0 16 -5 29 -6 29 -2 0 4 16 7 35
7 19 0 35 -3 35 -7 0 -4 13 -3 30 2 17 5 32 5 35 0 3 -5 15 -6 28 -1 13 5 30
5 38 1 8 -5 21 -5 29 0 7 4 24 4 36 0 14 -6 26 -5 29 0 3 5 18 5 35 0 17 -5
30 -5 30 0 0 4 15 5 33 1 17 -4 46 -4 64 -1 17 4 36 4 42 0 7 -3 25 -5 41 -2
29 4 28 6 -75 106 -58 56 -105 108 -105 114 0 7 -4 12 -10 12 -20 0 -270 341
-270 368 0 7 -3 12 -8 12 -4 0 -16 17 -27 37 -10 21 -27 50 -37 65 -20 29
-179 344 -183 362 -1 6 -10 29 -19 51 -9 22 -26 63 -37 90 -12 28 -25 58 -30
67 -5 10 -9 25 -9 33 0 8 -4 23 -10 33 -9 17 -48 132 -88 262 -20 63 -76 279
-86 330 -3 14 -10 45 -16 70 -6 25 -13 56 -15 70 -2 14 -7 36 -10 50 -13 61
-43 248 -60 375 -3 28 -8 62 -11 77 -2 15 -6 56 -9 90 -3 35 -7 72 -9 83 -2
11 -7 67 -11 125 -4 58 -9 123 -11 145 -1 22 -5 142 -8 267 l-6 228 23 0 c12
0 36 0 52 1 32 0 88 0 120 -1 11 -1 27 -1 35 0 8 0 26 0 40 -1 14 0 31 0 38 0
6 1 20 1 30 1 9 0 33 0 52 1 19 0 41 0 48 0 25 -2 90 -2 117 -1 22 1 38 1 58
-1 26 -4 100 11 130 26 78 38 127 110 130 191 1 29 5 54 8 54 3 0 3 20 -1 45
-4 25 -3 48 1 50 4 3 4 19 -1 35 -5 17 -6 30 -2 30 8 0 6 85 -2 106 -3 8 -1
14 4 14 5 0 5 13 0 30 -5 17 -6 30 -2 30 4 0 7 18 7 40 0 22 -2 40 -5 40 -3 0
-6 22 -6 48 -3 119 -95 209 -221 218 -31 2 -59 7 -64 10 -5 3 -9 1 -9 -5 0 -6
-11 -6 -30 -1 -17 5 -30 5 -30 0 0 -5 -13 -5 -30 0 -17 5 -30 5 -30 0 0 -5
-13 -5 -30 0 -18 5 -30 5 -30 0 0 -6 -10 -6 -25 0 -14 5 -27 5 -30 0 -3 -5
-18 -5 -35 0 -17 5 -30 5 -30 0 0 -5 -13 -5 -30 0 -17 5 -30 5 -30 0 0 -5 -13
-5 -30 0 -18 5 -30 5 -30 0 0 -6 -10 -6 -25 0 -15 6 -27 6 -30 0 -3 -6 -15 -6
-30 0 -14 5 -27 5 -30 0 -3 -5 -18 -5 -35 0 -17 5 -30 5 -30 0 0 -5 -13 -5
-29 0 -15 4 -34 4 -42 0 -7 -5 -20 -5 -30 0 -9 5 -18 8 -20 7 -2 -1 2 4 10 11
8 6 19 12 24 12 15 0 160 92 242 154 74 56 229 203 283 269 36 44 122 166 122
174 0 3 6 14 14 22 41 49 158 312 181 411 1 3 7 24 14 48 6 24 14 59 17 79 2
19 6 38 8 42 19 30 27 385 12 506 -8 70 -31 176 -54 255 -9 30 -17 57 -17 60
-1 3 -7 18 -13 33 -7 16 -12 33 -12 38 0 5 -4 17 -9 27 -6 9 -24 49 -42 87
-121 264 -337 514 -586 680 -81 55 -219 130 -281 154 -80 31 -139 53 -152 56
-8 2 -51 13 -95 24 -44 11 -111 25 -150 32 -96 16 -372 18 -475 3z"/>
<path d="M2500 967 c-3 -3 -24 -7 -48 -11 -70 -9 -116 -36 -165 -95 -27 -34
-51 -109 -48 -151 1 -16 0 -62 -2 -123 -1 -20 2 -37 6 -37 5 0 5 -5 2 -10 -4
-6 -6 -34 -6 -63 1 -64 1 -83 0 -99 0 -7 0 -29 0 -48 1 -19 1 -42 0 -50 -5
-122 54 -222 155 -262 45 -17 150 -18 2744 -16 l2697 3 45 29 c64 41 109 104
113 156 1 11 4 20 8 20 3 0 3 18 -1 40 -4 22 -5 42 -2 45 7 7 7 68 0 87 -4 8
-3 20 2 27 4 7 4 28 0 47 -4 19 -5 34 -1 34 3 0 5 21 4 47 -4 69 -5 136 -3
148 3 13 3 13 -4 63 -15 115 -98 195 -213 208 -52 6 -133 5 -143 -1 -3 -2 -12
0 -20 5 -8 5 -21 5 -30 0 -9 -5 -22 -5 -30 0 -8 5 -21 5 -30 0 -9 -5 -22 -5
-30 0 -7 4 -24 4 -36 0 -14 -6 -26 -5 -29 0 -3 5 -18 5 -35 0 -17 -5 -30 -5
-30 -1 0 9 -37 8 -46 -1 -3 -4 -17 -3 -30 2 -14 6 -26 6 -29 0 -3 -5 -15 -6
-28 -1 -13 5 -30 5 -38 1 -8 -5 -21 -5 -29 0 -7 4 -23 4 -36 0 -12 -5 -24 -6
-27 -3 -8 8 -117 9 -117 1 0 -4 -13 -3 -30 2 -17 5 -32 5 -35 0 -3 -5 -16 -5
-28 -1 -12 5 -34 5 -49 0 -16 -4 -28 -4 -28 1 0 5 -13 5 -30 0 -16 -5 -30 -5
-30 0 0 4 -15 5 -32 1 -18 -4 -45 -4 -60 0 -16 4 -28 3 -28 -1 0 -5 -13 -5
-30 0 -17 5 -30 5 -30 0 0 -5 -13 -5 -30 0 -17 5 -30 5 -30 0 0 -5 -13 -5 -30
0 -17 5 -30 5 -30 0 0 -5 -13 -5 -30 0 -17 5 -30 5 -30 0 0 -5 -13 -5 -30 0
-17 5 -30 5 -30 0 0 -5 -13 -5 -30 0 -17 5 -30 5 -30 0 0 -5 -13 -5 -30 0 -17
5 -30 5 -30 0 0 -5 -13 -5 -30 0 -17 5 -30 5 -30 0 0 -5 -6 -7 -14 -4 -21 8
-116 10 -116 2 0 -4 -13 -3 -30 2 -17 5 -32 5 -35 0 -3 -5 -16 -5 -28 -1 -12
5 -34 5 -49 0 -16 -4 -28 -4 -28 1 0 5 -13 5 -30 0 -16 -5 -30 -5 -30 -1 0 4
-20 5 -45 1 -24 -4 -50 -3 -57 1 -6 4 -19 4 -28 -1 -9 -5 -22 -5 -30 0 -8 5
-21 5 -30 0 -9 -5 -22 -5 -30 0 -7 4 -24 4 -36 0 -14 -6 -26 -5 -29 0 -3 5
-18 5 -35 0 -17 -5 -30 -5 -30 0 0 5 -13 5 -30 0 -17 -5 -30 -5 -30 0 0 5 -13
5 -30 0 -17 -5 -30 -6 -30 -2 0 4 -16 7 -35 7 -19 0 -35 -3 -35 -7 0 -4 -13
-3 -30 2 -17 5 -30 5 -30 0 0 -5 -12 -5 -27 -1 -16 4 -39 5 -53 1 -14 -4 -35
-3 -47 1 -12 5 -25 4 -28 -1 -3 -6 -15 -6 -30 0 -15 6 -27 6 -30 0 -3 -6 -15
-6 -30 0 -15 6 -27 6 -30 0 -3 -6 -15 -6 -30 0 -15 6 -27 6 -30 0 -3 -6 -15
-6 -30 0 -15 6 -27 6 -30 0 -3 -6 -15 -6 -30 0 -15 6 -27 6 -30 0 -3 -6 -15
-6 -30 0 -15 6 -27 6 -30 0 -3 -5 -11 -7 -18 -4 -20 7 -117 10 -117 2 0 -4
-12 -3 -27 1 -16 5 -37 5 -48 1 -11 -4 -30 -4 -42 1 -13 5 -25 4 -28 -1 -3 -6
-15 -6 -30 0 -15 6 -27 6 -30 0 -3 -6 -15 -6 -30 0 -15 6 -27 6 -30 0 -3 -6
-15 -6 -30 0 -15 6 -27 6 -30 0 -3 -6 -15 -6 -30 0 -15 6 -27 6 -30 0 -3 -6
-15 -6 -30 0 -15 6 -27 6 -30 0 -3 -6 -15 -6 -30 0 -15 6 -27 6 -30 0 -3 -5
-11 -7 -18 -4 -20 7 -117 10 -117 2 0 -3 -12 -3 -27 1 -16 4 -42 4 -59 1 -18
-4 -38 -4 -45 1 -7 4 -20 4 -29 -1 -9 -5 -22 -5 -30 0 -8 5 -21 5 -30 0 -9 -5
-22 -5 -30 0 -7 4 -24 4 -36 0 -14 -6 -26 -5 -29 0 -3 5 -18 5 -35 0 -17 -5
-30 -5 -30 -1 0 9 -37 8 -46 -1 -3 -4 -17 -3 -30 2 -14 6 -26 6 -29 0 -3 -5
-15 -6 -28 -1 -13 5 -30 5 -38 1 -8 -5 -21 -5 -29 0 -7 4 -23 4 -36 0 -12 -5
-25 -6 -28 -3 -7 7 -101 7 -113 0 -5 -3 -15 -2 -23 3 -7 4 -23 4 -36 0 -12 -5
-25 -6 -28 -3 -8 8 -76 9 -76 1 0 -4 -13 -3 -30 2 -16 5 -30 6 -30 2 0 -8 -95
-6 -116 2 -8 3 -14 1 -14 -4 0 -5 -13 -5 -30 0 -17 5 -30 5 -30 0 0 -5 -13 -5
-30 0 -17 5 -30 5 -30 0 0 -5 -13 -5 -30 0 -17 5 -30 5 -30 0 0 -5 -12 -5 -27
-1 -16 4 -40 4 -55 0 -15 -4 -28 -3 -30 3 -2 5 -6 7 -8 5z"/>
</g>
</svg>
